STARTFONT 2.1
FONT -FontForge-Bungee Shade-Book-R-Normal--20-200-72-72-P-172-ISO10646-1
SIZE 20 72 72
FONTBOUNDINGBOX 51 51 -12 -18
COMMENT "Generated by fontforge, http://fontforge.sourceforge.net"
COMMENT "Copyright 2008 The Bungee Project Authors (david@djr.com)"
STARTPROPERTIES 39
FOUNDRY "FontForge"
FAMILY_NAME "Bungee Shade"
WEIGHT_NAME "Book"
SLANT "R"
SETWIDTH_NAME "Normal"
ADD_STYLE_NAME ""
PIXEL_SIZE 20
POINT_SIZE 200
RESOLUTION_X 72
RESOLUTION_Y 72
SPACING "P"
AVERAGE_WIDTH 172
CHARSET_REGISTRY "ISO10646"
CHARSET_ENCODING "1"
FONTNAME_REGISTRY ""
CHARSET_COLLECTIONS "ISO8859-2 ISO8859-9 ISO8859-4 ISO10646-1"
FONT_NAME "BungeeShade-Regular"
FACE_NAME "Bungee Shade"
COPYRIGHT "Copyright 2008 The Bungee Project Authors (david@djr.com)"
FONT_VERSION "1.000;PS 1.0;hotconv 1.0.72;makeotf.lib2.5.5900"
FONT_ASCENT 17
FONT_DESCENT 3
UNDERLINE_POSITION 0
UNDERLINE_THICKNESS 0
X_HEIGHT 14
CAP_HEIGHT 14
RAW_ASCENT 860
RAW_DESCENT 140
NORM_SPACE 7
RELATIVE_WEIGHT 40
RELATIVE_SETWIDTH 50
SUPERSCRIPT_X 0
SUPERSCRIPT_Y 7
SUPERSCRIPT_SIZE 12
SUBSCRIPT_X 0
SUBSCRIPT_Y 1
SUBSCRIPT_SIZE 12
AVG_LOWERCASE_WIDTH 164
AVG_UPPERCASE_WIDTH 167
ENDPROPERTIES
CHARS 1065
STARTCHAR space
ENCODING 32
SWIDTH 325 0
DWIDTH 7 0
BBX 1 1 0 0
BITMAP
00
ENDCHAR
STARTCHAR exclam
ENCODING 33
SWIDTH 524 0
DWIDTH 10 0
BBX 8 17 1 -2
BITMAP
3F
61
E5
E5
E5
E5
E5
E5
E1
FF
FF
61
65
E1
E1
FE
FC
ENDCHAR
STARTCHAR quotedbl
ENCODING 34
SWIDTH 746 0
DWIDTH 15 0
BBX 15 10 0 5
BITMAP
1FFE
2082
6492
E4D2
E4D2
64D2
60C2
70C6
7FF8
7DF0
ENDCHAR
STARTCHAR numbersign
ENCODING 35
SWIDTH 850 0
DWIDTH 17 0
BBX 17 17 0 -2
BITMAP
07DF00
043100
0D7500
110480
33FE80
710880
710880
7A6B00
7A6B00
220900
67FD00
E20900
F2D200
F0C400
30C400
7FF800
79E000
ENDCHAR
STARTCHAR dollar
ENCODING 36
SWIDTH 750 0
DWIDTH 15 0
BBX 14 21 1 -4
BITMAP
03C0
0420
1918
2108
47E8
C808
C9F0
C870
CC08
E3C4
F024
FF14
FF94
4014
CFE4
C108
E110
FC20
FC40
1F80
1F00
ENDCHAR
STARTCHAR percent
ENCODING 37
SWIDTH 1131 0
DWIDTH 23 0
BBX 22 17 0 -2
BITMAP
0FCF80
173080
28B500
6AB500
EAB500
EAA5F8
E8AB04
E72A74
F8EA8C
7FCAAC
3ED2AC
00D6AC
01D68C
018674
01CF88
01FFF0
01C7E0
ENDCHAR
STARTCHAR ampersand
ENCODING 38
SWIDTH 866 0
DWIDTH 17 0
BBX 17 17 0 -2
BITMAP
07FC00
080400
11E400
320400
327800
3A6000
3E2F80
339080
241280
65F480
E4F480
E40480
E3F900
F00100
7C0600
7FF800
3FF000
ENDCHAR
STARTCHAR quotesingle
ENCODING 39
SWIDTH 456 0
DWIDTH 9 0
BBX 8 10 1 5
BITMAP
3F
41
C9
E9
E9
E9
E1
E3
FC
F8
ENDCHAR
STARTCHAR parenleft
ENCODING 40
SWIDTH 529 0
DWIDTH 11 0
BBX 10 20 0 -3
BITMAP
07C0
0840
1340
2440
6480
6500
E500
E500
E500
E500
E500
E500
E500
E4C0
E440
E340
F040
7840
7F80
3F00
ENDCHAR
STARTCHAR parenright
ENCODING 41
SWIDTH 529 0
DWIDTH 11 0
BBX 10 20 0 -3
BITMAP
1F00
2080
6640
E140
F940
F940
3940
1940
1940
1940
1940
1940
1940
1940
2140
6640
E040
E080
FF00
FC00
ENDCHAR
STARTCHAR asterisk
ENCODING 42
SWIDTH 818 0
DWIDTH 16 0
BBX 15 14 1 1
BITMAP
03E0
0620
1EAC
22B4
6082
67F2
F084
FD58
FA28
1084
38C8
7DD0
7FE0
1980
ENDCHAR
STARTCHAR plus
ENCODING 43
SWIDTH 834 0
DWIDTH 17 0
BBX 15 15 1 -1
BITMAP
01C0
0220
0620
0EA0
1E9C
2082
6FFA
E082
E082
FE9C
FE90
0E20
0E20
0FC0
0F00
ENDCHAR
STARTCHAR comma
ENCODING 44
SWIDTH 484 0
DWIDTH 10 0
BBX 8 10 1 -4
BITMAP
3F
41
CD
C3
C3
FB
ED
E2
FC
F0
ENDCHAR
STARTCHAR hyphen
ENCODING 45
SWIDTH 520 0
DWIDTH 10 0
BBX 10 7 0 3
BITMAP
1FC0
2040
6740
E040
E040
FF80
FF00
ENDCHAR
STARTCHAR period
ENCODING 46
SWIDTH 484 0
DWIDTH 10 0
BBX 8 9 1 -2
BITMAP
3F
41
C1
C5
C5
C1
E1
FE
FC
ENDCHAR
STARTCHAR slash
ENCODING 47
SWIDTH 487 0
DWIDTH 10 0
BBX 10 20 0 -3
BITMAP
0780
0840
1940
3940
3A40
3A40
3280
3280
3280
3280
7280
7480
7500
6500
6500
6500
6100
E100
FE00
F800
ENDCHAR
STARTCHAR zero
ENCODING 48
SWIDTH 827 0
DWIDTH 17 0
BBX 15 17 1 -2
BITMAP
0FF8
13E4
2412
480A
C9CA
C9CA
C9CA
C9CA
C9CA
C9CA
C9CA
E412
E3E2
F004
FE38
7FE0
1FC0
ENDCHAR
STARTCHAR one
ENCODING 49
SWIDTH 701 0
DWIDTH 14 0
BBX 14 17 0 -2
BITMAP
1FE0
3020
77A0
70A0
7CA0
7CA0
1CA0
1CA0
1CA0
1CA0
1C98
2084
67F4
E004
E004
FFF8
7FE0
ENDCHAR
STARTCHAR two
ENCODING 50
SWIDTH 739 0
DWIDTH 15 0
BBX 14 17 0 -2
BITMAP
1FF8
3004
73E4
7014
7F94
7F14
0834
11C4
2618
64E0
64FC
E404
E7F4
E004
E004
FFF8
FFF0
ENDCHAR
STARTCHAR three
ENCODING 51
SWIDTH 737 0
DWIDTH 15 0
BBX 14 17 0 -2
BITMAP
1FF0
2008
67C8
E028
FF28
7F28
0828
19E4
3814
3FD4
3FD4
2014
67E4
6004
F018
FFE0
7FC0
ENDCHAR
STARTCHAR four
ENCODING 52
SWIDTH 809 0
DWIDTH 16 0
BBX 14 17 1 -2
BITMAP
3F7C
61C4
E9D4
E9D4
E9D4
E9D4
E9D4
E814
E414
E3F4
F014
FFD4
7FD4
01C4
01C4
01F8
01F0
ENDCHAR
STARTCHAR five
ENCODING 53
SWIDTH 747 0
DWIDTH 15 0
BBX 14 17 1 -2
BITMAP
3FF8
6008
E7E8
E808
E9F0
E810
E808
E7C4
E024
FF94
FF94
4024
CFC4
C008
E010
FFE0
FF80
ENDCHAR
STARTCHAR six
ENCODING 54
SWIDTH 793 0
DWIDTH 16 0
BBX 14 17 1 -2
BITMAP
0FF8
13E8
2408
4808
C9F0
C808
CFE4
C814
C994
C9D4
C9D4
E414
E3E4
F004
FE38
7FE0
3F80
ENDCHAR
STARTCHAR seven
ENCODING 55
SWIDTH 727 0
DWIDTH 15 0
BBX 14 17 0 -2
BITMAP
3FFC
2004
E7F4
E014
FF94
FF94
0214
0434
09C4
1A18
3A60
3A40
3A40
3840
38C0
3F00
3E00
ENDCHAR
STARTCHAR eight
ENCODING 56
SWIDTH 811 0
DWIDTH 16 0
BBX 16 17 0 -2
BITMAP
07FC
09F2
120A
32EA
72EA
7A0E
73F2
2409
6445
64E5
E4E5
E40D
F3F1
7002
7E1C
7FF0
1FE0
ENDCHAR
STARTCHAR nine
ENCODING 57
SWIDTH 793 0
DWIDTH 16 0
BBX 15 17 0 -2
BITMAP
07FC
0BF2
140A
64CA
64CA
64CA
E40A
E3FA
F00A
782A
7FCA
380A
19F2
3802
380C
3FF0
3FC0
ENDCHAR
STARTCHAR colon
ENCODING 58
SWIDTH 484 0
DWIDTH 10 0
BBX 8 16 1 -2
BITMAP
3F
41
C1
C5
C5
C1
FE
FF
C1
41
C5
C5
C1
E1
FE
FC
ENDCHAR
STARTCHAR semicolon
ENCODING 59
SWIDTH 484 0
DWIDTH 10 0
BBX 8 17 1 -4
BITMAP
3F
41
C5
C5
C1
C1
FE
FF
41
CD
C3
C3
FB
ED
E2
FC
F0
ENDCHAR
STARTCHAR less
ENCODING 60
SWIDTH 814 0
DWIDTH 16 0
BBX 14 15 1 -1
BITMAP
0008
00F4
0704
1874
2784
6818
E9F0
E860
E618
E1C4
F834
FF04
3FF4
07F8
00F0
ENDCHAR
STARTCHAR equal
ENCODING 61
SWIDTH 834 0
DWIDTH 17 0
BBX 15 13 1 0
BITMAP
1FFC
2002
6FFA
E002
FFFC
FFF8
FFFC
2002
6FFA
E002
E002
FFFC
FFF0
ENDCHAR
STARTCHAR greater
ENCODING 62
SWIDTH 814 0
DWIDTH 16 0
BBX 14 15 1 -2
BITMAP
3F00
20E0
E618
E1C4
FC34
FFD4
7F14
1814
2064
2788
60F0
E7E0
FF80
F800
4000
ENDCHAR
STARTCHAR question
ENCODING 63
SWIDTH 756 0
DWIDTH 15 0
BBX 15 17 0 -2
BITMAP
1FF8
2004
67F2
E00A
FFCA
FE0A
080A
19F2
3804
38F8
3F60
3840
3940
3840
3840
3F80
3F00
ENDCHAR
STARTCHAR at
ENCODING 64
SWIDTH 967 0
DWIDTH 19 0
BBX 18 21 1 -3
BITMAP
03FC00
0C0300
100080
23FC40
6FFF40
F9FEC0
FAFAC0
FD0AC0
FD6AC0
FD6AC0
FD6AC0
FD6AC0
FD0AC0
FD0880
FCFF80
F60100
F7FE00
F8FC00
FFFA00
7FFC00
1FF800
ENDCHAR
STARTCHAR A
ENCODING 65
SWIDTH 830 0
DWIDTH 17 0
BBX 15 17 1 -2
BITMAP
0FF8
0808
11C4
3224
3494
64D2
65CA
E80A
C80A
CFFA
C80A
C9CA
C9CA
C2C2
E2E2
FCFC
F0F0
ENDCHAR
STARTCHAR B
ENCODING 66
SWIDTH 825 0
DWIDTH 17 0
BBX 15 17 1 -2
BITMAP
3FF8
6004
E7E4
E814
E9D4
E9D4
E81C
E7F2
E80A
E9EA
E9EA
E80A
E7F2
E002
E00C
FFF0
FFE0
ENDCHAR
STARTCHAR C
ENCODING 67
SWIDTH 728 0
DWIDTH 15 0
BBX 13 17 1 -2
BITMAP
0FF8
1008
27E8
6808
C9F0
C9E0
C900
C900
C900
C900
C8F8
E808
E7E8
F008
FC08
7FF0
3FE0
ENDCHAR
STARTCHAR D
ENCODING 68
SWIDTH 846 0
DWIDTH 17 0
BBX 15 17 1 -2
BITMAP
3FFC
6002
E7F2
E80A
E9CA
E9EA
E9EA
E9EA
E9EA
E9EA
E9CA
E80A
E7F2
E002
E00C
FFF0
FFC0
ENDCHAR
STARTCHAR E
ENCODING 69
SWIDTH 754 0
DWIDTH 15 0
BBX 14 17 1 -2
BITMAP
3FFC
6004
E7F4
E804
E9F8
E9F0
E810
E7D0
E810
E9E0
E9F8
E804
E7F4
E004
E00C
FFF0
FFE0
ENDCHAR
STARTCHAR F
ENCODING 70
SWIDTH 718 0
DWIDTH 14 0
BBX 13 17 1 -2
BITMAP
3FF8
6008
E7E8
E808
E9F0
E9E0
E810
E7D0
E810
E810
E9E0
E9C0
E900
E100
E300
FC00
F800
ENDCHAR
STARTCHAR G
ENCODING 71
SWIDTH 808 0
DWIDTH 16 0
BBX 15 17 1 -2
BITMAP
0FFC
1004
21E4
6404
C9F8
C9E0
C93C
C942
C9CA
C9CA
C8CA
E40A
E3F2
F002
FC06
7FF8
3FF0
ENDCHAR
STARTCHAR H
ENCODING 72
SWIDTH 859 0
DWIDTH 17 0
BBX 15 17 1 -2
BITMAP
3F3E
6162
E9EA
E9EA
E9EA
E9EA
E80A
E7FA
E80A
E80A
E9EA
E9EA
E9EA
E1E2
E3E2
FCFC
F8F8
ENDCHAR
STARTCHAR I
ENCODING 73
SWIDTH 705 0
DWIDTH 14 0
BBX 13 17 1 -2
BITMAP
3FF8
4008
CFE8
C108
F930
F940
3940
3940
3940
3940
3930
4108
CFE8
C008
E018
FFE0
FFC0
ENDCHAR
STARTCHAR J
ENCODING 74
SWIDTH 788 0
DWIDTH 16 0
BBX 15 17 0 -2
BITMAP
003E
0042
00CA
01CA
01CA
01CA
1FCA
21CA
65CA
E5CA
E4CA
E412
E3E2
F004
7E18
3FF0
1FC0
ENDCHAR
STARTCHAR K
ENCODING 75
SWIDTH 846 0
DWIDTH 17 0
BBX 15 17 1 -2
BITMAP
3F3E
6142
E994
E994
E924
E92C
E842
E7F2
E80A
E9CA
E9EA
E9EA
E9EA
E1E2
E3E2
FCFC
F8F8
ENDCHAR
STARTCHAR L
ENCODING 76
SWIDTH 795 0
DWIDTH 16 0
BBX 15 17 1 -2
BITMAP
3F00
6100
E900
E900
E900
E900
E93C
E942
E9CA
E9CA
E9CA
E80A
E7F2
E002
E006
FFF8
FFF0
ENDCHAR
STARTCHAR M
ENCODING 77
SWIDTH 949 0
DWIDTH 19 0
BBX 17 17 1 -2
BITMAP
3F0F80
609080
E4A480
EA6A80
E91280
E89280
E96A80
E90A80
E91280
E9F280
E9F280
E9B280
E93280
E13080
E23880
FC3F00
F83E00
ENDCHAR
STARTCHAR N
ENCODING 78
SWIDTH 853 0
DWIDTH 17 0
BBX 15 17 1 -2
BITMAP
3E3E
6162
E4EA
EA6A
E92A
E88A
E84A
E94A
E92A
E99A
E9CA
E9EA
E9EA
E1E2
E3E2
FCFC
F8F8
ENDCHAR
STARTCHAR O
ENCODING 79
SWIDTH 837 0
DWIDTH 17 0
BBX 15 17 1 -2
BITMAP
0FF8
13E6
241A
480A
C9CA
C9CA
C9CA
C9CA
C9CA
C9CA
C9CA
E41A
E3E2
F004
FE18
7FF0
1FC0
ENDCHAR
STARTCHAR P
ENCODING 80
SWIDTH 782 0
DWIDTH 16 0
BBX 14 17 1 -2
BITMAP
3FF8
6004
E7E4
E414
E5CC
E5CC
E5CC
E414
E7E4
E404
E418
E5E0
E5C0
E100
E300
FC00
F800
ENDCHAR
STARTCHAR Q
ENCODING 81
SWIDTH 837 0
DWIDTH 17 0
BBX 15 19 1 -4
BITMAP
0FF8
1004
23E2
641A
C9CA
C9CA
C9CA
C9CA
C9CA
C9CA
C9CA
C80A
E41A
E3E2
F084
FC18
7C10
1FE0
0F80
ENDCHAR
STARTCHAR R
ENCODING 82
SWIDTH 843 0
DWIDTH 17 0
BBX 16 17 1 -2
BITMAP
3FF8
6004
E7E4
E812
E9D2
E9D2
E994
E812
E7F1
E809
E9E5
E9E5
E9E5
E1E1
E3E3
FCFC
F8F8
ENDCHAR
STARTCHAR S
ENCODING 83
SWIDTH 750 0
DWIDTH 15 0
BBX 14 17 1 -2
BITMAP
1FF8
2008
47E8
C808
C9F0
C870
CC08
E3C4
F024
FF14
FF94
4014
CFE4
C008
E010
FFE0
FF80
ENDCHAR
STARTCHAR T
ENCODING 84
SWIDTH 756 0
DWIDTH 15 0
BBX 15 17 0 -2
BITMAP
3FFE
6002
E7FA
E082
FE9C
FE98
0E90
0E90
0E90
0E90
0E90
0E90
0E90
0E10
0E30
0FC0
0F80
ENDCHAR
STARTCHAR U
ENCODING 85
SWIDTH 846 0
DWIDTH 17 0
BBX 15 17 1 -2
BITMAP
3F3E
6142
E9CA
E9CA
E9CA
E9CA
E9CA
E9CA
E9CA
E9CA
E8CA
E40A
E3F2
F004
FE18
7FF0
1FC0
ENDCHAR
STARTCHAR V
ENCODING 86
SWIDTH 830 0
DWIDTH 17 0
BBX 15 17 1 -2
BITMAP
3F3E
4142
C9CA
C9CA
C9CA
C9CA
C9CA
C9CA
E4D2
E492
F214
F224
71C8
7808
3810
3FE0
3FC0
ENDCHAR
STARTCHAR W
ENCODING 87
SWIDTH 931 0
DWIDTH 19 0
BBX 17 17 1 -2
BITMAP
3F0F80
611080
E93280
E93280
E93280
E9F280
E91280
E94A80
E8A280
E91280
E55280
E64A80
E26500
F0E100
71E300
7EFC00
7CF800
ENDCHAR
STARTCHAR X
ENCODING 88
SWIDTH 837 0
DWIDTH 17 0
BBX 15 17 1 -2
BITMAP
3F3E
6142
E9CA
E9CA
E492
E214
F224
79C8
7224
2412
64CA
69CA
E9CA
E1C2
E2E2
FCFC
F8F8
ENDCHAR
STARTCHAR Y
ENCODING 89
SWIDTH 805 0
DWIDTH 16 0
BBX 16 17 0 -2
BITMAP
1F3F
2121
6565
E4E5
E4E5
E4E5
E249
F212
7914
7CE4
3C48
1E50
1E50
0E10
0E10
0FE0
0F80
ENDCHAR
STARTCHAR Z
ENCODING 90
SWIDTH 760 0
DWIDTH 15 0
BBX 15 17 0 -2
BITMAP
1FFE
3002
77F2
7012
7F92
7E24
0248
0490
0920
1120
227C
6402
63FA
E002
E002
FFFC
FFF0
ENDCHAR
STARTCHAR bracketleft
ENCODING 91
SWIDTH 529 0
DWIDTH 11 0
BBX 10 20 0 -3
BITMAP
1FC0
2040
6740
E440
E480
E500
E500
E500
E500
E500
E500
E500
E500
E4C0
E440
E740
E040
E040
FF80
FF00
ENDCHAR
STARTCHAR backslash
ENCODING 92
SWIDTH 487 0
DWIDTH 10 0
BBX 10 20 0 -3
BITMAP
1E00
2100
6500
E500
E500
E500
7480
7480
7280
7280
7280
7280
7280
3A40
3A40
3940
3840
3840
3F80
3F00
ENDCHAR
STARTCHAR bracketright
ENCODING 93
SWIDTH 529 0
DWIDTH 11 0
BBX 10 20 0 -3
BITMAP
1FC0
2040
6740
E140
F940
F940
1940
1940
1940
1940
1940
1940
1940
1940
2140
6740
E040
E040
FF80
FF00
ENDCHAR
STARTCHAR asciicircum
ENCODING 94
SWIDTH 814 0
DWIDTH 16 0
BBX 15 13 0 2
BITMAP
03F0
0408
08E4
1914
1A14
3A54
32D2
32CA
34EA
61E2
61E2
7EFE
F8F8
ENDCHAR
STARTCHAR underscore
ENCODING 95
SWIDTH 834 0
DWIDTH 17 0
BBX 15 7 1 -4
BITMAP
1FFC
2002
EFFA
E002
E002
FFFC
FFF0
ENDCHAR
STARTCHAR grave
ENCODING 96
SWIDTH 600 0
DWIDTH 12 0
BBX 12 7 0 13
BITMAP
1E00
21F0
6790
E050
FF10
FFE0
3FC0
ENDCHAR
STARTCHAR a
ENCODING 97
SWIDTH 830 0
DWIDTH 17 0
BBX 15 17 1 -2
BITMAP
0FF8
0808
11C4
3224
3494
64D2
65CA
E80A
C80A
CFFA
C80A
C9CA
C9CA
C2C2
E2E2
FCFC
F0F0
ENDCHAR
STARTCHAR b
ENCODING 98
SWIDTH 825 0
DWIDTH 17 0
BBX 15 17 1 -2
BITMAP
3FF8
6004
E7E4
E814
E9D4
E9D4
E81C
E7F2
E80A
E9EA
E9EA
E80A
E7F2
E002
E00C
FFF0
FFE0
ENDCHAR
STARTCHAR c
ENCODING 99
SWIDTH 728 0
DWIDTH 15 0
BBX 13 17 1 -2
BITMAP
0FF8
1008
27E8
6808
C9F0
C9E0
C900
C900
C900
C900
C8F8
E808
E7E8
F008
FC08
7FF0
3FE0
ENDCHAR
STARTCHAR d
ENCODING 100
SWIDTH 846 0
DWIDTH 17 0
BBX 15 17 1 -2
BITMAP
3FFC
6002
E7F2
E80A
E9CA
E9EA
E9EA
E9EA
E9EA
E9EA
E9CA
E80A
E7F2
E002
E00C
FFF0
FFC0
ENDCHAR
STARTCHAR e
ENCODING 101
SWIDTH 754 0
DWIDTH 15 0
BBX 14 17 1 -2
BITMAP
3FFC
6004
E7F4
E804
E9F8
E9F0
E810
E7D0
E810
E9E0
E9F8
E804
E7F4
E004
E00C
FFF0
FFE0
ENDCHAR
STARTCHAR f
ENCODING 102
SWIDTH 718 0
DWIDTH 14 0
BBX 13 17 1 -2
BITMAP
3FF8
6008
E7E8
E808
E9F0
E9E0
E810
E7D0
E810
E810
E9E0
E9C0
E900
E100
E300
FC00
F800
ENDCHAR
STARTCHAR g
ENCODING 103
SWIDTH 808 0
DWIDTH 16 0
BBX 15 17 1 -2
BITMAP
0FFC
1004
21E4
6404
C9F8
C9E0
C93C
C942
C9CA
C9CA
C8CA
E40A
E3F2
F002
FC06
7FF8
3FF0
ENDCHAR
STARTCHAR h
ENCODING 104
SWIDTH 859 0
DWIDTH 17 0
BBX 15 17 1 -2
BITMAP
3F3E
6162
E9EA
E9EA
E9EA
E9EA
E80A
E7FA
E80A
E80A
E9EA
E9EA
E9EA
E1E2
E3E2
FCFC
F8F8
ENDCHAR
STARTCHAR i
ENCODING 105
SWIDTH 705 0
DWIDTH 14 0
BBX 13 17 1 -2
BITMAP
3FF8
4008
CFE8
C108
F930
F940
3940
3940
3940
3940
3930
4108
CFE8
C008
E018
FFE0
FFC0
ENDCHAR
STARTCHAR j
ENCODING 106
SWIDTH 788 0
DWIDTH 16 0
BBX 15 17 0 -2
BITMAP
003E
0042
00CA
01CA
01CA
01CA
1FCA
21CA
65CA
E5CA
E4CA
E412
E3E2
F004
7E18
3FF0
1FC0
ENDCHAR
STARTCHAR k
ENCODING 107
SWIDTH 846 0
DWIDTH 17 0
BBX 15 17 1 -2
BITMAP
3F3E
6142
E994
E994
E924
E92C
E842
E7F2
E80A
E9CA
E9EA
E9EA
E9EA
E1E2
E3E2
FCFC
F8F8
ENDCHAR
STARTCHAR l
ENCODING 108
SWIDTH 795 0
DWIDTH 16 0
BBX 15 17 1 -2
BITMAP
3F00
6100
E900
E900
E900
E900
E93C
E942
E9CA
E9CA
E9CA
E80A
E7F2
E002
E006
FFF8
FFF0
ENDCHAR
STARTCHAR m
ENCODING 109
SWIDTH 949 0
DWIDTH 19 0
BBX 17 17 1 -2
BITMAP
3F0F80
609080
E4A480
EA6A80
E91280
E89280
E96A80
E90A80
E91280
E9F280
E9F280
E9B280
E93280
E13080
E23880
FC3F00
F83E00
ENDCHAR
STARTCHAR n
ENCODING 110
SWIDTH 853 0
DWIDTH 17 0
BBX 15 17 1 -2
BITMAP
3E3E
6162
E4EA
EA6A
E92A
E88A
E84A
E94A
E92A
E99A
E9CA
E9EA
E9EA
E1E2
E3E2
FCFC
F8F8
ENDCHAR
STARTCHAR o
ENCODING 111
SWIDTH 837 0
DWIDTH 17 0
BBX 15 17 1 -2
BITMAP
0FF8
13E6
241A
480A
C9CA
C9CA
C9CA
C9CA
C9CA
C9CA
C9CA
E41A
E3E2
F004
FE18
7FF0
1FC0
ENDCHAR
STARTCHAR p
ENCODING 112
SWIDTH 782 0
DWIDTH 16 0
BBX 14 17 1 -2
BITMAP
3FF8
6004
E7E4
E414
E5CC
E5CC
E5CC
E414
E7E4
E404
E418
E5E0
E5C0
E100
E300
FC00
F800
ENDCHAR
STARTCHAR q
ENCODING 113
SWIDTH 837 0
DWIDTH 17 0
BBX 15 19 1 -4
BITMAP
0FF8
1004
23E2
641A
C9CA
C9CA
C9CA
C9CA
C9CA
C9CA
C9CA
C80A
E41A
E3E2
F084
FC18
7C10
1FE0
0F80
ENDCHAR
STARTCHAR r
ENCODING 114
SWIDTH 843 0
DWIDTH 17 0
BBX 16 17 1 -2
BITMAP
3FF8
6004
E7E4
E812
E9D2
E9D2
E994
E812
E7F1
E809
E9E5
E9E5
E9E5
E1E1
E3E3
FCFC
F8F8
ENDCHAR
STARTCHAR s
ENCODING 115
SWIDTH 750 0
DWIDTH 15 0
BBX 14 17 1 -2
BITMAP
1FF8
2008
47E8
C808
C9F0
C870
CC08
E3C4
F024
FF14
FF94
4014
CFE4
C008
E010
FFE0
FF80
ENDCHAR
STARTCHAR t
ENCODING 116
SWIDTH 756 0
DWIDTH 15 0
BBX 15 17 0 -2
BITMAP
3FFE
6002
E7FA
E082
FE9C
FE98
0E90
0E90
0E90
0E90
0E90
0E90
0E90
0E10
0E30
0FC0
0F80
ENDCHAR
STARTCHAR u
ENCODING 117
SWIDTH 846 0
DWIDTH 17 0
BBX 15 17 1 -2
BITMAP
3F3E
6142
E9CA
E9CA
E9CA
E9CA
E9CA
E9CA
E9CA
E9CA
E8CA
E40A
E3F2
F004
FE18
7FF0
1FC0
ENDCHAR
STARTCHAR v
ENCODING 118
SWIDTH 830 0
DWIDTH 17 0
BBX 15 17 1 -2
BITMAP
3F3E
4142
C9CA
C9CA
C9CA
C9CA
C9CA
C9CA
E4D2
E492
F214
F224
71C8
7808
3810
3FE0
3FC0
ENDCHAR
STARTCHAR w
ENCODING 119
SWIDTH 931 0
DWIDTH 19 0
BBX 17 17 1 -2
BITMAP
3F0F80
611080
E93280
E93280
E93280
E9F280
E91280
E94A80
E8A280
E91280
E55280
E64A80
E26500
F0E100
71E300
7EFC00
7CF800
ENDCHAR
STARTCHAR x
ENCODING 120
SWIDTH 837 0
DWIDTH 17 0
BBX 15 17 1 -2
BITMAP
3F3E
6142
E9CA
E9CA
E492
E214
F224
79C8
7224
2412
64CA
69CA
E9CA
E1C2
E2E2
FCFC
F8F8
ENDCHAR
STARTCHAR y
ENCODING 121
SWIDTH 805 0
DWIDTH 16 0
BBX 16 17 0 -2
BITMAP
1F3F
2121
6565
E4E5
E4E5
E4E5
E249
F212
7914
7CE4
3C48
1E50
1E50
0E10
0E10
0FE0
0F80
ENDCHAR
STARTCHAR z
ENCODING 122
SWIDTH 760 0
DWIDTH 15 0
BBX 15 17 0 -2
BITMAP
1FFE
3002
77F2
7012
7F92
7E24
0248
0490
0920
1120
227C
6402
63FA
E002
E002
FFFC
FFF0
ENDCHAR
STARTCHAR braceleft
ENCODING 123
SWIDTH 555 0
DWIDTH 11 0
BBX 11 20 0 -3
BITMAP
03C0
0420
1BA0
3220
3240
7280
7280
6480
6900
E480
E280
F280
F280
7240
7220
71A0
7820
7C20
3FC0
1F80
ENDCHAR
STARTCHAR bar
ENCODING 124
SWIDTH 447 0
DWIDTH 9 0
BBX 7 20 1 -3
BITMAP
1E
22
EA
EA
EA
EA
EA
EA
EA
EA
EA
EA
EA
EA
EA
EA
EA
E2
FC
F8
ENDCHAR
STARTCHAR braceright
ENCODING 125
SWIDTH 555 0
DWIDTH 11 0
BBX 11 20 0 -3
BITMAP
1F00
2080
6640
E140
F940
F940
3940
3920
3CA0
3EA0
1920
1940
3940
3940
2140
6640
E040
E180
FE00
FC00
ENDCHAR
STARTCHAR asciitilde
ENCODING 126
SWIDTH 834 0
DWIDTH 17 0
BBX 15 8 1 2
BITMAP
1FC4
203A
6FC2
E03A
E602
FFFC
FFF0
00C0
ENDCHAR
STARTCHAR uni00A0
ENCODING 160
SWIDTH 325 0
DWIDTH 7 0
BBX 1 1 0 0
BITMAP
00
ENDCHAR
STARTCHAR exclamdown
ENCODING 161
SWIDTH 523 0
DWIDTH 10 0
BBX 8 17 1 -2
BITMAP
3F
21
E5
E1
FF
E1
E1
65
E5
E5
E5
E5
E5
E1
E1
FE
FC
ENDCHAR
STARTCHAR cent
ENCODING 162
SWIDTH 728 0
DWIDTH 15 0
BBX 13 19 1 -3
BITMAP
03E0
0418
1888
13E8
2408
4808
C9F0
C9E0
C900
C900
C9F8
E408
E3E8
F088
FC88
7C10
3E20
0FC0
0F00
ENDCHAR
STARTCHAR sterling
ENCODING 163
SWIDTH 795 0
DWIDTH 16 0
BBX 16 17 0 -2
BITMAP
07FC
0804
11E4
3204
74F8
74E0
6440
6F5E
E421
F4E1
F4E5
F405
73F9
7001
7003
7FFC
7FF8
ENDCHAR
STARTCHAR currency
ENCODING 164
SWIDTH 921 0
DWIDTH 18 0
BBX 18 17 0 -2
BITMAP
0E0380
11FC40
240140
72FA40
F90480
797500
397500
197500
197500
197500
190480
12FA40
200140
71FC40
FBFE80
7DDF00
300C00
ENDCHAR
STARTCHAR yen
ENCODING 165
SWIDTH 803 0
DWIDTH 16 0
BBX 16 17 0 -2
BITMAP
1F3F
2121
6565
E4E5
E4E5
F4C9
F212
7914
7CE4
3042
33FA
7042
7E4C
7E08
0E10
0FE0
0F80
ENDCHAR
STARTCHAR brokenbar
ENCODING 166
SWIDTH 447 0
DWIDTH 9 0
BBX 7 20 1 -3
BITMAP
1E
22
EA
EA
EA
EA
EA
E2
FC
FE
E2
62
EA
EA
EA
EA
EA
E2
FC
F8
ENDCHAR
STARTCHAR section
ENCODING 167
SWIDTH 750 0
DWIDTH 15 0
BBX 14 17 1 -2
BITMAP
0FF8
17E8
2808
49F0
C810
CFE8
C814
E994
E414
F3F4
FF94
E014
2014
EFE8
E030
FFC0
FF80
ENDCHAR
STARTCHAR dieresis
ENCODING 168
SWIDTH 600 0
DWIDTH 12 0
BBX 12 6 0 13
BITMAP
1EF0
2110
E950
E110
FFE0
FFC0
ENDCHAR
STARTCHAR copyright
ENCODING 169
SWIDTH 967 0
DWIDTH 19 0
BBX 18 21 1 -3
BITMAP
03FC00
0C0300
100080
23FC40
6FFF40
F602C0
FCF2C0
FD06C0
FD7EC0
FD66C0
FD46C0
FD46C0
FD3EC0
FCF2C0
F602C0
F7FE80
F3FC80
F80100
FFFE00
7FFC00
3FF800
ENDCHAR
STARTCHAR ordfeminine
ENCODING 170
SWIDTH 620 0
DWIDTH 12 0
BBX 12 17 0 -2
BITMAP
0FE0
13A0
3450
3550
6950
6A30
67D0
E830
EBB0
E390
FFF0
FFF0
E010
6FF0
E010
FFE0
FFC0
ENDCHAR
STARTCHAR guillemotleft
ENCODING 171
SWIDTH 912 0
DWIDTH 18 0
BBX 17 12 1 0
BITMAP
07CF80
187080
264680
485880
CBD700
C9D300
C85880
E64680
F06080
FE7C80
7FFF00
1E1C00
ENDCHAR
STARTCHAR logicalnot
ENCODING 172
SWIDTH 834 0
DWIDTH 17 0
BBX 15 12 1 -1
BITMAP
1FFC
2002
6FFA
E00A
E00A
FFEA
FFEA
00EA
00E2
00E2
00FC
00F0
ENDCHAR
STARTCHAR uni00AD
ENCODING 173
SWIDTH 520 0
DWIDTH 10 0
BBX 10 7 0 3
BITMAP
1FC0
2040
6740
E040
E040
FF80
FF00
ENDCHAR
STARTCHAR registered
ENCODING 174
SWIDTH 660 0
DWIDTH 13 0
BBX 12 13 1 2
BITMAP
0FC0
3FE0
5750
D6D0
D4D0
D750
D7D0
D350
FFE0
E720
FFC0
FF00
3C00
ENDCHAR
STARTCHAR macron
ENCODING 175
SWIDTH 600 0
DWIDTH 12 0
BBX 12 6 0 13
BITMAP
1FE0
2010
67D0
E010
FFE0
FFC0
ENDCHAR
STARTCHAR degree
ENCODING 176
SWIDTH 583 0
DWIDTH 12 0
BBX 11 11 0 4
BITMAP
0FC0
17A0
2860
6B60
EB60
EB60
E860
E7A0
F840
7F80
3F00
ENDCHAR
STARTCHAR plusminus
ENCODING 177
SWIDTH 834 0
DWIDTH 17 0
BBX 15 17 1 -2
BITMAP
03E0
0620
0EA0
0EA0
1E9C
2082
EFFA
E082
FE9C
FE98
1E1C
2002
6FFA
E002
E002
FFFC
FFF0
ENDCHAR
STARTCHAR twosuperior
ENCODING 178
SWIDTH 585 0
DWIDTH 12 0
BBX 11 13 0 2
BITMAP
1FE0
37A0
7060
7F60
7860
13A0
2CC0
6BE0
E820
E7E0
E020
FFC0
FF80
ENDCHAR
STARTCHAR threesuperior
ENCODING 179
SWIDTH 584 0
DWIDTH 12 0
BBX 11 13 0 2
BITMAP
1FC0
2720
60A0
FEA0
F0C0
13A0
3060
3F60
2060
27A0
6040
FF80
7F00
ENDCHAR
STARTCHAR acute
ENCODING 180
SWIDTH 600 0
DWIDTH 12 0
BBX 12 7 0 13
BITMAP
01E0
1E10
27D0
6010
E3E0
FFC0
FE00
ENDCHAR
STARTCHAR mu
ENCODING 181
SWIDTH 813 0
DWIDTH 16 0
BBX 15 16 1 -3
BITMAP
1E3C
2142
E9CA
E9CA
E9CA
E9CA
E9CA
E9CA
E9CA
EC12
EBE2
E804
E1F8
E1E0
FFC0
F800
ENDCHAR
STARTCHAR paragraph
ENCODING 182
SWIDTH 782 0
DWIDTH 16 0
BBX 15 17 0 -2
BITMAP
0FFE
1002
23FA
640A
E80A
E80A
E80A
E40A
E3FA
F10A
FD2A
7D2A
3D2A
1C22
1C22
1FFC
1EF0
ENDCHAR
STARTCHAR periodcentered
ENCODING 183
SWIDTH 464 0
DWIDTH 9 0
BBX 9 9 0 2
BITMAP
1F00
2080
6080
E480
E480
E080
E080
FF00
FC00
ENDCHAR
STARTCHAR cedilla
ENCODING 184
SWIDTH 600 0
DWIDTH 12 0
BBX 8 8 2 -5
BITMAP
1F
35
65
65
62
E6
F8
F0
ENDCHAR
STARTCHAR onesuperior
ENCODING 185
SWIDTH 557 0
DWIDTH 11 0
BBX 11 13 0 2
BITMAP
1F80
3680
7180
7980
7980
1980
1980
1960
2120
67A0
E020
FFC0
7F00
ENDCHAR
STARTCHAR ordmasculine
ENCODING 186
SWIDTH 625 0
DWIDTH 13 0
BBX 12 17 0 -2
BITMAP
0FE0
17D0
2830
6BB0
EBB0
EBB0
EBB0
EBB0
E830
F7D0
FEE0
7FF0
6010
6FF0
E010
FFE0
FFC0
ENDCHAR
STARTCHAR guillemotright
ENCODING 187
SWIDTH 912 0
DWIDTH 18 0
BBX 17 13 1 0
BITMAP
302000
2E5C00
E1D300
EE4C80
E14280
F97280
F97A80
264C80
E85080
E0C300
EFCC00
F9F000
C18000
ENDCHAR
STARTCHAR onequarter
ENCODING 188
SWIDTH 1303 0
DWIDTH 26 0
BBX 26 17 0 -2
BITMAP
1F87C000
36888000
719A8000
79BA8000
79BAF380
19B2AD40
19B2AD40
1974AD40
2114AD40
6795A140
E0259F40
FFE5C140
7F69FD40
00E1FC40
00E61C40
00F81F80
00F01E00
ENDCHAR
STARTCHAR onehalf
ENCODING 189
SWIDTH 1260 0
DWIDTH 25 0
BBX 25 17 0 -2
BITMAP
1F87C000
36888000
719A8000
79BA8000
79BAFF00
19B2BC80
19B28280
1974FA80
2114C280
67959D00
E025A200
FFE5AF00
7F69A080
00E1BE80
00E38080
00FFFF00
00F3FC00
ENDCHAR
STARTCHAR threequarters
ENCODING 190
SWIDTH 1313 0
DWIDTH 26 0
BBX 26 17 0 -2
BITMAP
1FC7C000
27284000
60BA8000
FEBA8000
70FAFBC0
139AA540
3052A540
3F52A540
2054A540
2794A540
60759F40
FFE5C140
7F65FD40
0061FC40
00E20C40
00FC0F80
00F00E00
ENDCHAR
STARTCHAR questiondown
ENCODING 191
SWIDTH 756 0
DWIDTH 15 0
BBX 15 17 0 -2
BITMAP
01F8
0304
0724
0704
07F8
0408
1808
13E8
2408
64F0
E4FC
E402
E3FA
F002
7C02
7FFC
3FF0
ENDCHAR
STARTCHAR Agrave
ENCODING 192
SWIDTH 830 0
DWIDTH 17 0
BBX 15 22 1 -2
BITMAP
0FC0
1238
31E8
3008
3FF8
3808
0808
11C4
3224
2494
64D2
65CA
C80A
C80A
CFFA
C80A
C9CA
C9CA
C2C2
E2E2
FCFC
F0F0
ENDCHAR
STARTCHAR Aacute
ENCODING 193
SWIDTH 830 0
DWIDTH 17 0
BBX 15 22 1 -2
BITMAP
00F8
0F08
13E8
3008
33F0
3C08
3808
11C4
3224
3494
64D2
65CA
E80A
C80A
CFFA
C80A
C9CA
C9CA
C2C2
E2E2
FCFC
F0F0
ENDCHAR
STARTCHAR Acircumflex
ENCODING 194
SWIDTH 830 0
DWIDTH 17 0
BBX 15 23 1 -2
BITMAP
01C0
0630
09C8
1228
3088
3FF8
3808
3808
11C4
3224
2494
64D2
65CA
C80A
C80A
CFFA
C80A
C9CA
C9CA
C2C2
E2E2
FCFC
F0F0
ENDCHAR
STARTCHAR Atilde
ENCODING 195
SWIDTH 830 0
DWIDTH 17 0
BBX 15 22 1 -2
BITMAP
07D8
0828
13C8
3028
3208
3FF0
3808
11C8
3224
3494
64D2
65CA
E80A
C80A
CFFA
C80A
C9CA
C9CA
C2C2
E2E2
FCFC
F0F8
ENDCHAR
STARTCHAR Adieresis
ENCODING 196
SWIDTH 830 0
DWIDTH 17 0
BBX 15 22 1 -2
BITMAP
0F78
1084
3494
7084
7084
7FF8
7808
11C8
3224
3494
64D2
65CA
E80A
C80A
CFFA
C80A
C9CA
C9CA
C2C2
E2E2
FCFC
F0F8
ENDCHAR
STARTCHAR Aring
ENCODING 197
SWIDTH 830 0
DWIDTH 17 0
BBX 15 23 1 -2
BITMAP
03E0
0C18
09E8
1214
35D4
34D4
7218
79E8
31C8
3224
3494
64D2
65CA
E80A
C80A
CFFA
C80A
C9CA
C9CA
C2C2
E2E2
FCFC
F0F8
ENDCHAR
STARTCHAR AE
ENCODING 198
SWIDTH 1105 0
DWIDTH 22 0
BBX 21 17 1 -2
BITMAP
0FFFF8
080008
31FFE8
320808
64C9F0
64C9E0
65C820
C80FA0
C80820
CFF1C0
C809F0
C9C808
C9CFE8
C1C008
E3C018
FDFFE0
F1FFC0
ENDCHAR
STARTCHAR Ccedilla
ENCODING 199
SWIDTH 728 0
DWIDTH 15 0
BBX 13 19 1 -4
BITMAP
0FF8
1008
27E8
4808
C9F0
C9E0
C900
C900
C900
C900
C8F8
E808
E7E8
F088
FE98
7C30
3C20
0FC0
1F00
ENDCHAR
STARTCHAR Egrave
ENCODING 200
SWIDTH 754 0
DWIDTH 15 0
BBX 14 22 1 -2
BITMAP
1F80
3070
77C8
7008
7FC8
6034
6004
E7F4
E804
E9F8
E9F0
E810
E7D0
E810
E9E0
E9F8
E804
E7F4
E004
E00C
FFF0
FFE0
ENDCHAR
STARTCHAR Eacute
ENCODING 201
SWIDTH 754 0
DWIDTH 15 0
BBX 14 22 1 -2
BITMAP
00F8
0F08
13E8
3008
73F0
6C0C
6004
E7F4
E804
E9F8
E9F0
E810
E7D0
E810
E9E0
E9F8
E804
E7F4
E004
E00C
FFF0
FFE0
ENDCHAR
STARTCHAR Ecircumflex
ENCODING 202
SWIDTH 754 0
DWIDTH 15 0
BBX 14 23 1 -2
BITMAP
03C0
0C30
13C8
3008
7188
7FF0
600C
6004
E7F4
E804
E9F8
E9F0
E810
E7D0
E810
E9E0
E9F8
E804
E7F4
E004
E00C
FFF0
FFE0
ENDCHAR
STARTCHAR Edieresis
ENCODING 203
SWIDTH 754 0
DWIDTH 15 0
BBX 14 22 1 -2
BITMAP
0F78
1088
34A8
7088
7088
7FFC
6004
67F4
E804
E9F8
E9F0
E810
E7D0
E810
E9E0
E9F8
E804
E7F4
E004
E00C
FFF0
FFE0
ENDCHAR
STARTCHAR Igrave
ENCODING 204
SWIDTH 705 0
DWIDTH 14 0
BBX 13 22 1 -2
BITMAP
1F00
20F0
67D0
E010
FFD0
C028
4008
CFE8
C108
F930
F940
3940
3940
3940
3940
3930
4108
CFE8
C008
E018
FFE0
FFC0
ENDCHAR
STARTCHAR Iacute
ENCODING 205
SWIDTH 705 0
DWIDTH 14 0
BBX 13 22 1 -2
BITMAP
01F0
1E10
27D0
6010
E7E0
D838
C008
CFE8
C108
F930
F940
3940
3940
3940
3940
3930
4108
CFE8
C008
E018
FFE0
FFC0
ENDCHAR
STARTCHAR Icircumflex
ENCODING 206
SWIDTH 705 0
DWIDTH 14 0
BBX 13 23 1 -2
BITMAP
0380
1C60
2390
2450
6110
FFF0
C008
C008
CFE8
C108
F930
F940
3940
3940
3940
3940
3930
4108
CFE8
C008
E018
FFE0
FFC0
ENDCHAR
STARTCHAR Idieresis
ENCODING 207
SWIDTH 705 0
DWIDTH 14 0
BBX 13 22 1 -2
BITMAP
1EF0
2108
6948
E108
E110
FFF0
C008
CFE8
C108
F930
F940
3940
3940
3940
3940
3930
4108
CFE8
C008
E018
FFE0
FFC0
ENDCHAR
STARTCHAR Eth
ENCODING 208
SWIDTH 856 0
DWIDTH 17 0
BBX 16 17 0 -2
BITMAP
1FFE
3001
73F9
7205
72F5
72F5
6235
6F35
E235
F2F5
F2F5
F205
73F9
7001
7006
7FF8
7FF0
ENDCHAR
STARTCHAR Ntilde
ENCODING 209
SWIDTH 853 0
DWIDTH 17 0
BBX 15 22 1 -2
BITMAP
07F8
0804
1BC4
3824
3A08
27F6
61E2
E4EA
EA6A
E92A
E88A
E84A
E94A
E92A
E99A
E9CA
E9EA
E9EA
E1E2
E3E2
FCFC
F8F8
ENDCHAR
STARTCHAR Ograve
ENCODING 210
SWIDTH 837 0
DWIDTH 17 0
BBX 15 22 1 -2
BITMAP
0FE0
1318
30E8
3008
3FF8
3004
23E2
641A
C80A
C9CA
C9CA
C9CA
C9CA
C9CA
C9CA
C9CA
E41A
E3E2
F004
FE18
7FF0
1FC0
ENDCHAR
STARTCHAR Oacute
ENCODING 211
SWIDTH 837 0
DWIDTH 17 0
BBX 15 22 1 -2
BITMAP
03F8
0C68
1388
3008
3FF8
3004
23E2
641A
C80A
C9CA
C9CA
C9CA
C9CA
C9CA
C9CA
C9CA
E41A
E3E2
F004
FE18
7FF0
1FC0
ENDCHAR
STARTCHAR Ocircumflex
ENCODING 212
SWIDTH 837 0
DWIDTH 17 0
BBX 15 23 1 -2
BITMAP
01C0
0630
09E8
1208
33E8
3C18
3004
23E2
641A
C80A
C9CA
C9CA
C9CA
C9CA
C9CA
C9CA
C9CA
E41A
E3E2
F004
FE18
7FF0
1FC0
ENDCHAR
STARTCHAR Otilde
ENCODING 213
SWIDTH 837 0
DWIDTH 17 0
BBX 15 22 1 -2
BITMAP
07D8
0828
13C8
3028
3388
3C78
23E6
641A
C80A
C9CA
C9CA
C9CA
C9CA
C9CA
C9CA
C9CA
E41A
E3E2
F004
FE18
7FF0
1FC0
ENDCHAR
STARTCHAR Odieresis
ENCODING 214
SWIDTH 837 0
DWIDTH 17 0
BBX 15 22 1 -2
BITMAP
0F78
1084
3294
7084
7084
7FF8
33E4
641A
E80A
C9CA
C9CA
C9CA
C9CA
C9CA
C9CA
C9CA
E41A
E3E2
F004
FE18
7FF0
1FC0
ENDCHAR
STARTCHAR multiply
ENCODING 215
SWIDTH 834 0
DWIDTH 17 0
BBX 15 14 1 -1
BITMAP
0E18
1124
20D2
7224
F948
7C90
3948
1224
1492
20C2
73E4
FDF8
78E0
3040
ENDCHAR
STARTCHAR Oslash
ENCODING 216
SWIDTH 837 0
DWIDTH 17 0
BBX 15 20 1 -3
BITMAP
003C
0044
0F84
13D2
242A
49AA
C94A
C96A
C9AA
CAAA
CAEA
C96A
C9EA
EE0A
E3F2
F404
F018
61F0
7FC0
7800
ENDCHAR
STARTCHAR Ugrave
ENCODING 217
SWIDTH 846 0
DWIDTH 17 0
BBX 15 22 1 -2
BITMAP
0F80
1078
33E8
3008
3F88
21F6
61C2
E9CA
E9CA
E9CA
E9CA
E9CA
E9CA
E9CA
E9CA
E8CA
E40A
E3F2
F004
FE18
7FF0
1FC0
ENDCHAR
STARTCHAR Uacute
ENCODING 218
SWIDTH 846 0
DWIDTH 17 0
BBX 15 22 1 -2
BITMAP
00F8
0704
19E4
3804
3878
27EE
6142
E9CA
E9CA
E9CA
E9CA
E9CA
E9CA
E9CA
E9CA
E8CA
E40A
E3F2
F004
FE18
7FF0
1FC0
ENDCHAR
STARTCHAR Ucircumflex
ENCODING 219
SWIDTH 846 0
DWIDTH 17 0
BBX 15 23 1 -2
BITMAP
01C0
0638
09E4
1A04
39E4
3FF8
21E6
6142
E9CA
E9CA
E9CA
E9CA
E9CA
E9CA
E9CA
E9CA
E80A
E40A
E3F2
F004
FE18
7FF0
1FC0
ENDCHAR
STARTCHAR Udieresis
ENCODING 220
SWIDTH 846 0
DWIDTH 17 0
BBX 15 22 1 -2
BITMAP
0F78
1084
3294
7084
7084
7FFE
61C2
E9CA
E9CA
E9CA
E9CA
E9CA
E9CA
E9CA
E9CA
E8CA
E40A
E3F2
F004
FE18
7FF0
1FC0
ENDCHAR
STARTCHAR Yacute
ENCODING 221
SWIDTH 805 0
DWIDTH 16 0
BBX 16 22 0 -2
BITMAP
007C
0784
09F4
1804
1C38
23E7
2121
64E5
E4E5
E4E5
E4E5
E249
F212
7914
7CE4
3C48
1E50
1E50
0E10
0E10
0FE0
0F80
ENDCHAR
STARTCHAR Thorn
ENCODING 222
SWIDTH 792 0
DWIDTH 16 0
BBX 14 17 1 -2
BITMAP
3F00
6100
E8F8
E804
E7E4
E814
E9CC
E9CC
E9CC
E814
E7E4
E804
E818
E1E0
E3C0
FC00
F800
ENDCHAR
STARTCHAR germandbls
ENCODING 223
SWIDTH 859 0
DWIDTH 17 0
BBX 16 17 1 -2
BITMAP
3FF8
6004
E7E4
E414
E594
E594
E5A2
E5B9
E505
E5E5
E5E5
E505
E539
E101
E186
FFF8
FBF0
ENDCHAR
STARTCHAR agrave
ENCODING 224
SWIDTH 830 0
DWIDTH 17 0
BBX 15 22 1 -2
BITMAP
0FC0
1238
31E8
3008
3FF8
3808
0808
11C4
3224
2494
64D2
65CA
C80A
C80A
CFFA
C80A
C9CA
C9CA
C2C2
E2E2
FCFC
F0F0
ENDCHAR
STARTCHAR aacute
ENCODING 225
SWIDTH 830 0
DWIDTH 17 0
BBX 15 22 1 -2
BITMAP
00F8
0F08
13E8
3008
33F0
3C08
3808
11C4
3224
3494
64D2
65CA
E80A
C80A
CFFA
C80A
C9CA
C9CA
C2C2
E2E2
FCFC
F0F0
ENDCHAR
STARTCHAR acircumflex
ENCODING 226
SWIDTH 830 0
DWIDTH 17 0
BBX 15 23 1 -2
BITMAP
01C0
0630
09C8
1228
3088
3FF8
3808
3808
11C4
3224
2494
64D2
65CA
C80A
C80A
CFFA
C80A
C9CA
C9CA
C2C2
E2E2
FCFC
F0F0
ENDCHAR
STARTCHAR atilde
ENCODING 227
SWIDTH 830 0
DWIDTH 17 0
BBX 15 22 1 -2
BITMAP
07D8
0828
13C8
3028
3208
3FF0
3808
11C8
3224
3494
64D2
65CA
E80A
C80A
CFFA
C80A
C9CA
C9CA
C2C2
E2E2
FCFC
F0F8
ENDCHAR
STARTCHAR adieresis
ENCODING 228
SWIDTH 830 0
DWIDTH 17 0
BBX 15 22 1 -2
BITMAP
0F78
1084
3494
7084
7084
7FF8
7808
11C8
3224
3494
64D2
65CA
E80A
C80A
CFFA
C80A
C9CA
C9CA
C2C2
E2E2
FCFC
F0F8
ENDCHAR
STARTCHAR aring
ENCODING 229
SWIDTH 830 0
DWIDTH 17 0
BBX 15 23 1 -2
BITMAP
03E0
0C18
09E8
1214
35D4
34D4
7218
79E8
31C8
3224
3494
64D2
65CA
E80A
C80A
CFFA
C80A
C9CA
C9CA
C2C2
E2E2
FCFC
F0F8
ENDCHAR
STARTCHAR ae
ENCODING 230
SWIDTH 1105 0
DWIDTH 22 0
BBX 21 17 1 -2
BITMAP
0FFFF8
080008
31FFE8
320808
64C9F0
64C9E0
65C820
C80FA0
C80820
CFF1C0
C809F0
C9C808
C9CFE8
C1C008
E3C018
FDFFE0
F1FFC0
ENDCHAR
STARTCHAR ccedilla
ENCODING 231
SWIDTH 728 0
DWIDTH 15 0
BBX 13 19 1 -4
BITMAP
0FF8
1008
27E8
4808
C9F0
C9E0
C900
C900
C900
C900
C8F8
E808
E7E8
F088
FE98
7C30
3C20
0FC0
1F00
ENDCHAR
STARTCHAR egrave
ENCODING 232
SWIDTH 754 0
DWIDTH 15 0
BBX 14 22 1 -2
BITMAP
1F80
3070
77C8
7008
7FC8
6034
6004
E7F4
E804
E9F8
E9F0
E810
E7D0
E810
E9E0
E9F8
E804
E7F4
E004
E00C
FFF0
FFE0
ENDCHAR
STARTCHAR eacute
ENCODING 233
SWIDTH 754 0
DWIDTH 15 0
BBX 14 22 1 -2
BITMAP
00F8
0F08
13E8
3008
73F0
6C0C
6004
E7F4
E804
E9F8
E9F0
E810
E7D0
E810
E9E0
E9F8
E804
E7F4
E004
E00C
FFF0
FFE0
ENDCHAR
STARTCHAR ecircumflex
ENCODING 234
SWIDTH 754 0
DWIDTH 15 0
BBX 14 23 1 -2
BITMAP
03C0
0C30
13C8
3008
7188
7FF0
600C
6004
E7F4
E804
E9F8
E9F0
E810
E7D0
E810
E9E0
E9F8
E804
E7F4
E004
E00C
FFF0
FFE0
ENDCHAR
STARTCHAR edieresis
ENCODING 235
SWIDTH 754 0
DWIDTH 15 0
BBX 14 22 1 -2
BITMAP
0F78
1088
34A8
7088
7088
7FFC
6004
67F4
E804
E9F8
E9F0
E810
E7D0
E810
E9E0
E9F8
E804
E7F4
E004
E00C
FFF0
FFE0
ENDCHAR
STARTCHAR igrave
ENCODING 236
SWIDTH 705 0
DWIDTH 14 0
BBX 13 22 1 -2
BITMAP
1F00
20F0
67D0
E010
FFD0
C028
4008
CFE8
C108
F930
F940
3940
3940
3940
3940
3930
4108
CFE8
C008
E018
FFE0
FFC0
ENDCHAR
STARTCHAR iacute
ENCODING 237
SWIDTH 705 0
DWIDTH 14 0
BBX 13 22 1 -2
BITMAP
01F0
1E10
27D0
6010
E7E0
D838
C008
CFE8
C108
F930
F940
3940
3940
3940
3940
3930
4108
CFE8
C008
E018
FFE0
FFC0
ENDCHAR
STARTCHAR icircumflex
ENCODING 238
SWIDTH 705 0
DWIDTH 14 0
BBX 13 23 1 -2
BITMAP
0380
1C60
2390
2450
6110
FFF0
C008
C008
CFE8
C108
F930
F940
3940
3940
3940
3940
3930
4108
CFE8
C008
E018
FFE0
FFC0
ENDCHAR
STARTCHAR idieresis
ENCODING 239
SWIDTH 705 0
DWIDTH 14 0
BBX 13 22 1 -2
BITMAP
1EF0
2108
6948
E108
E110
FFF0
C008
CFE8
C108
F930
F940
3940
3940
3940
3940
3930
4108
CFE8
C008
E018
FFE0
FFC0
ENDCHAR
STARTCHAR eth
ENCODING 240
SWIDTH 856 0
DWIDTH 17 0
BBX 16 17 0 -2
BITMAP
1FFE
3001
73F9
7205
72F5
72F5
6235
6F35
E235
F2F5
F2F5
F205
73F9
7001
7006
7FF8
7FF0
ENDCHAR
STARTCHAR ntilde
ENCODING 241
SWIDTH 853 0
DWIDTH 17 0
BBX 15 22 1 -2
BITMAP
07F8
0804
1BC4
3824
3A08
27F6
61E2
E4EA
EA6A
E92A
E88A
E84A
E94A
E92A
E99A
E9CA
E9EA
E9EA
E1E2
E3E2
FCFC
F8F8
ENDCHAR
STARTCHAR ograve
ENCODING 242
SWIDTH 837 0
DWIDTH 17 0
BBX 15 22 1 -2
BITMAP
0FE0
1318
30E8
3008
3FF8
3004
23E2
641A
C80A
C9CA
C9CA
C9CA
C9CA
C9CA
C9CA
C9CA
E41A
E3E2
F004
FE18
7FF0
1FC0
ENDCHAR
STARTCHAR oacute
ENCODING 243
SWIDTH 837 0
DWIDTH 17 0
BBX 15 22 1 -2
BITMAP
03F8
0C68
1388
3008
3FF8
3004
23E2
641A
C80A
C9CA
C9CA
C9CA
C9CA
C9CA
C9CA
C9CA
E41A
E3E2
F004
FE18
7FF0
1FC0
ENDCHAR
STARTCHAR ocircumflex
ENCODING 244
SWIDTH 837 0
DWIDTH 17 0
BBX 15 23 1 -2
BITMAP
01C0
0630
09E8
1208
33E8
3C18
3004
23E2
641A
C80A
C9CA
C9CA
C9CA
C9CA
C9CA
C9CA
C9CA
E41A
E3E2
F004
FE18
7FF0
1FC0
ENDCHAR
STARTCHAR otilde
ENCODING 245
SWIDTH 837 0
DWIDTH 17 0
BBX 15 22 1 -2
BITMAP
07D8
0828
13C8
3028
3388
3C78
23E6
641A
C80A
C9CA
C9CA
C9CA
C9CA
C9CA
C9CA
C9CA
E41A
E3E2
F004
FE18
7FF0
1FC0
ENDCHAR
STARTCHAR odieresis
ENCODING 246
SWIDTH 837 0
DWIDTH 17 0
BBX 15 22 1 -2
BITMAP
0F78
1084
3294
7084
7084
7FF8
33E4
641A
E80A
C9CA
C9CA
C9CA
C9CA
C9CA
C9CA
C9CA
E41A
E3E2
F004
FE18
7FF0
1FC0
ENDCHAR
STARTCHAR divide
ENCODING 247
SWIDTH 834 0
DWIDTH 17 0
BBX 15 16 1 -2
BITMAP
03E0
0410
0C90
0C10
0C20
1FFC
2002
EFFA
E002
FFFC
FC10
0C90
0C10
0E20
0FC0
0F80
ENDCHAR
STARTCHAR oslash
ENCODING 248
SWIDTH 837 0
DWIDTH 17 0
BBX 15 20 1 -3
BITMAP
003C
0044
0F84
13D2
242A
49AA
C94A
C96A
C9AA
CAAA
CAEA
C96A
C9EA
EE0A
E3F2
F404
F018
61F0
7FC0
7800
ENDCHAR
STARTCHAR ugrave
ENCODING 249
SWIDTH 846 0
DWIDTH 17 0
BBX 15 22 1 -2
BITMAP
0F80
1078
33E8
3008
3F88
21F6
61C2
E9CA
E9CA
E9CA
E9CA
E9CA
E9CA
E9CA
E9CA
E8CA
E40A
E3F2
F004
FE18
7FF0
1FC0
ENDCHAR
STARTCHAR uacute
ENCODING 250
SWIDTH 846 0
DWIDTH 17 0
BBX 15 22 1 -2
BITMAP
00F8
0704
19E4
3804
3878
27EE
6142
E9CA
E9CA
E9CA
E9CA
E9CA
E9CA
E9CA
E9CA
E8CA
E40A
E3F2
F004
FE18
7FF0
1FC0
ENDCHAR
STARTCHAR ucircumflex
ENCODING 251
SWIDTH 846 0
DWIDTH 17 0
BBX 15 23 1 -2
BITMAP
01C0
0638
09E4
1A04
39E4
3FF8
21E6
6142
E9CA
E9CA
E9CA
E9CA
E9CA
E9CA
E9CA
E9CA
E80A
E40A
E3F2
F004
FE18
7FF0
1FC0
ENDCHAR
STARTCHAR udieresis
ENCODING 252
SWIDTH 846 0
DWIDTH 17 0
BBX 15 22 1 -2
BITMAP
0F78
1084
3294
7084
7084
7FFE
61C2
E9CA
E9CA
E9CA
E9CA
E9CA
E9CA
E9CA
E9CA
E8CA
E40A
E3F2
F004
FE18
7FF0
1FC0
ENDCHAR
STARTCHAR yacute
ENCODING 253
SWIDTH 805 0
DWIDTH 16 0
BBX 16 22 0 -2
BITMAP
007C
0784
09F4
1804
1C38
23E7
2121
64E5
E4E5
E4E5
E4E5
E249
F212
7914
7CE4
3C48
1E50
1E50
0E10
0E10
0FE0
0F80
ENDCHAR
STARTCHAR thorn
ENCODING 254
SWIDTH 792 0
DWIDTH 16 0
BBX 14 17 1 -2
BITMAP
3F00
6100
E8F8
E804
E7E4
E814
E9CC
E9CC
E9CC
E814
E7E4
E804
E818
E1E0
E3C0
FC00
F800
ENDCHAR
STARTCHAR ydieresis
ENCODING 255
SWIDTH 805 0
DWIDTH 16 0
BBX 16 22 0 -2
BITMAP
07BC
0842
3A52
3842
3844
3FFF
20E1
6161
E4E5
E4E5
E4E5
E449
F212
7912
78E4
3C48
1E50
1E50
0E10
0E10
0FE0
0F80
ENDCHAR
STARTCHAR Amacron
ENCODING 256
SWIDTH 830 0
DWIDTH 17 0
BBX 15 22 1 -2
BITMAP
0FF8
1008
13E8
3008
3008
3FF0
3808
11C8
3224
3494
64D2
65CA
E80A
C80A
CFFA
C80A
C9CA
C9CA
C2C2
E2E2
FCFC
F0F8
ENDCHAR
STARTCHAR amacron
ENCODING 257
SWIDTH 830 0
DWIDTH 17 0
BBX 15 22 1 -2
BITMAP
0FF8
1008
13E8
3008
3008
3FF0
3808
11C8
3224
3494
64D2
65CA
E80A
C80A
CFFA
C80A
C9CA
C9CA
C2C2
E2E2
FCFC
F0F8
ENDCHAR
STARTCHAR Abreve
ENCODING 258
SWIDTH 830 0
DWIDTH 17 0
BBX 15 23 1 -2
BITMAP
0E38
1144
34D4
3218
79E8
3C10
3FF0
3808
11C8
3224
3494
64D2
65CA
E80A
C80A
CFFA
C80A
C9CA
C9CA
C2C2
E2E2
FCFC
F0F0
ENDCHAR
STARTCHAR abreve
ENCODING 259
SWIDTH 830 0
DWIDTH 17 0
BBX 15 23 1 -2
BITMAP
0E38
1144
34D4
3218
79E8
3C10
3FF0
3808
11C8
3224
3494
64D2
65CA
E80A
C80A
CFFA
C80A
C9CA
C9CA
C2C2
E2E2
FCFC
F0F0
ENDCHAR
STARTCHAR Aogonek
ENCODING 260
SWIDTH 830 0
DWIDTH 17 0
BBX 15 21 1 -6
BITMAP
0FF8
0808
11C4
3224
3494
64D2
65CA
E80A
C80A
CFFA
C80A
C9CA
C9CA
C2D2
E2D2
FCD6
F1DA
01C2
01E2
01FC
00F8
ENDCHAR
STARTCHAR aogonek
ENCODING 261
SWIDTH 830 0
DWIDTH 17 0
BBX 15 21 1 -6
BITMAP
0FF8
0808
11C4
3224
3494
64D2
65CA
E80A
C80A
CFFA
C80A
C9CA
C9CA
C2D2
E2D2
FCD6
F1DA
01C2
01E2
01FC
00F8
ENDCHAR
STARTCHAR Cacute
ENCODING 262
SWIDTH 728 0
DWIDTH 15 0
BBX 13 22 1 -2
BITMAP
00F8
0F08
1BE8
3808
39F0
3E08
2008
27E8
6808
C9F0
C9E0
C900
C900
C900
C900
C8F8
E808
E7E8
F008
FC08
7FF0
3FE0
ENDCHAR
STARTCHAR cacute
ENCODING 263
SWIDTH 728 0
DWIDTH 15 0
BBX 13 22 1 -2
BITMAP
00F8
0F08
1BE8
3808
39F0
3E08
2008
27E8
6808
C9F0
C9E0
C900
C900
C900
C900
C8F8
E808
E7E8
F008
FC08
7FF0
3FE0
ENDCHAR
STARTCHAR Ccircumflex
ENCODING 264
SWIDTH 728 0
DWIDTH 15 0
BBX 13 23 1 -2
BITMAP
01C0
0E30
11C8
1228
7088
7FF0
7808
6008
27E8
6808
C9F0
C9E0
C900
C900
C900
C900
C8F8
E808
E7E8
F008
FC08
7FF0
3FE0
ENDCHAR
STARTCHAR ccircumflex
ENCODING 265
SWIDTH 728 0
DWIDTH 15 0
BBX 13 23 1 -2
BITMAP
01C0
0E30
11C8
1228
7088
7FF0
7808
6008
27E8
6808
C9F0
C9E0
C900
C900
C900
C900
C8F8
E808
E7E8
F008
FC08
7FF0
3FE0
ENDCHAR
STARTCHAR Cdotaccent
ENCODING 266
SWIDTH 728 0
DWIDTH 15 0
BBX 13 22 1 -2
BITMAP
03E0
0420
0CA0
1C20
1C20
1BD8
1008
27E8
6808
C9F0
C9E0
C900
C900
C900
C900
C8F8
E808
E7E8
F008
FC08
7FF0
3FE0
ENDCHAR
STARTCHAR cdotaccent
ENCODING 267
SWIDTH 728 0
DWIDTH 15 0
BBX 13 22 1 -2
BITMAP
03E0
0420
0CA0
1C20
1C20
1BD8
1008
27E8
6808
C9F0
C9E0
C900
C900
C900
C900
C8F8
E808
E7E8
F008
FC08
7FF0
3FE0
ENDCHAR
STARTCHAR Ccaron
ENCODING 268
SWIDTH 728 0
DWIDTH 15 0
BBX 13 23 1 -2
BITMAP
0830
17C8
3028
73C8
7810
7E60
7998
1008
27E8
6808
C9F0
C9E0
C900
C900
C900
C900
C8F8
E808
E7E8
F008
FC08
7FF0
3FE0
ENDCHAR
STARTCHAR ccaron
ENCODING 269
SWIDTH 728 0
DWIDTH 15 0
BBX 13 23 1 -2
BITMAP
0830
17C8
3028
73C8
7810
7E60
7998
1008
27E8
6808
C9F0
C9E0
C900
C900
C900
C900
C8F8
E808
E7E8
F008
FC08
7FF0
3FE0
ENDCHAR
STARTCHAR Dcaron
ENCODING 270
SWIDTH 846 0
DWIDTH 17 0
BBX 15 23 1 -2
BITMAP
0418
0BE4
1A24
39C4
3808
3F70
209C
6002
E7F2
E80A
E9CA
E9EA
E9EA
E9EA
E9EA
E9EA
E9CA
E80A
E7F2
E002
E00C
FFF0
FFC0
ENDCHAR
STARTCHAR dcaron
ENCODING 271
SWIDTH 846 0
DWIDTH 17 0
BBX 15 23 1 -2
BITMAP
0418
0BE4
1A24
39C4
3808
3F70
209C
6002
E7F2
E80A
E9CA
E9EA
E9EA
E9EA
E9EA
E9EA
E9CA
E80A
E7F2
E002
E00C
FFF0
FFC0
ENDCHAR
STARTCHAR Dcroat
ENCODING 272
SWIDTH 856 0
DWIDTH 17 0
BBX 16 17 0 -2
BITMAP
1FFE
3001
73F9
7205
72F5
72F5
6235
6F35
E235
F2F5
F2F5
F205
73F9
7001
7006
7FF8
7FF0
ENDCHAR
STARTCHAR dcroat
ENCODING 273
SWIDTH 856 0
DWIDTH 17 0
BBX 16 17 0 -2
BITMAP
1FFE
3001
73F9
7205
72F5
72F5
6235
6F35
E235
F2F5
F2F5
F205
73F9
7001
7006
7FF8
7FF0
ENDCHAR
STARTCHAR Emacron
ENCODING 274
SWIDTH 754 0
DWIDTH 15 0
BBX 14 22 1 -2
BITMAP
0FF0
1008
33C8
7008
7008
6FF4
6004
E7F4
E804
E9F8
E9F0
E810
E7D0
E810
E9E0
E9F8
E804
E7F4
E004
E00C
FFF0
FFE0
ENDCHAR
STARTCHAR emacron
ENCODING 275
SWIDTH 754 0
DWIDTH 15 0
BBX 14 22 1 -2
BITMAP
0FF0
1008
33C8
7008
7008
6FF4
6004
E7F4
E804
E9F8
E9F0
E810
E7D0
E810
E9E0
E9F8
E804
E7F4
E004
E00C
FFF0
FFE0
ENDCHAR
STARTCHAR Ebreve
ENCODING 276
SWIDTH 754 0
DWIDTH 15 0
BBX 14 23 1 -2
BITMAP
0E70
1188
3598
7428
73C8
7C10
63EC
6004
E7F4
E804
E9F8
E9F0
E810
E7D0
E810
E9E0
E9F8
E804
E7F4
E004
E00C
FFF0
FFE0
ENDCHAR
STARTCHAR ebreve
ENCODING 277
SWIDTH 754 0
DWIDTH 15 0
BBX 14 23 1 -2
BITMAP
0E70
1188
3598
7428
73C8
7C10
63EC
6004
E7F4
E804
E9F8
E9F0
E810
E7D0
E810
E9E0
E9F8
E804
E7F4
E004
E00C
FFF0
FFE0
ENDCHAR
STARTCHAR Edotaccent
ENCODING 278
SWIDTH 754 0
DWIDTH 15 0
BBX 14 22 1 -2
BITMAP
03C0
0C20
1D20
1C20
1C20
23DC
6004
E7F4
E804
E9F8
E9F0
E810
E7D0
E810
E9E0
E9F8
E804
E7F4
E004
E00C
FFF0
FFE0
ENDCHAR
STARTCHAR edotaccent
ENCODING 279
SWIDTH 754 0
DWIDTH 15 0
BBX 14 22 1 -2
BITMAP
03C0
0C20
1D20
1C20
1C20
23DC
6004
E7F4
E804
E9F8
E9F0
E810
E7D0
E810
E9E0
E9F8
E804
E7F4
E004
E00C
FFF0
FFE0
ENDCHAR
STARTCHAR Eogonek
ENCODING 280
SWIDTH 754 0
DWIDTH 15 0
BBX 14 21 1 -6
BITMAP
3FFC
6004
E7F4
E804
E9F8
E9F0
E810
E7D0
E810
E9E0
E9F8
E804
E7F4
E024
E024
FFA8
FF34
0384
03CC
03F0
03E0
ENDCHAR
STARTCHAR eogonek
ENCODING 281
SWIDTH 754 0
DWIDTH 15 0
BBX 14 21 1 -6
BITMAP
3FFC
6004
E7F4
E804
E9F8
E9F0
E810
E7D0
E810
E9E0
E9F8
E804
E7F4
E024
E024
FFA8
FF34
0384
03CC
03F0
03E0
ENDCHAR
STARTCHAR Ecaron
ENCODING 282
SWIDTH 754 0
DWIDTH 15 0
BBX 14 23 1 -2
BITMAP
0830
17C8
3028
73C8
7810
7E60
619C
6004
E7F4
E804
E9F8
E9F0
E810
E7D0
E810
E9E0
E9F8
E804
E7F4
E004
E00C
FFF0
FFE0
ENDCHAR
STARTCHAR ecaron
ENCODING 283
SWIDTH 754 0
DWIDTH 15 0
BBX 14 23 1 -2
BITMAP
0830
17C8
3028
73C8
7810
7E60
619C
6004
E7F4
E804
E9F8
E9F0
E810
E7D0
E810
E9E0
E9F8
E804
E7F4
E004
E00C
FFF0
FFE0
ENDCHAR
STARTCHAR Gcircumflex
ENCODING 284
SWIDTH 808 0
DWIDTH 16 0
BBX 15 23 1 -2
BITMAP
01E0
0618
09E4
1804
38C4
3FF8
3804
2004
21E4
4404
C9F8
C9E0
C93C
C942
C9CA
C9CA
C8CA
E40A
E3F2
F002
FC06
7FF8
3FF0
ENDCHAR
STARTCHAR gcircumflex
ENCODING 285
SWIDTH 808 0
DWIDTH 16 0
BBX 15 23 1 -2
BITMAP
01E0
0618
09E4
1804
38C4
3FF8
3804
2004
21E4
4404
C9F8
C9E0
C93C
C942
C9CA
C9CA
C8CA
E40A
E3F2
F002
FC06
7FF8
3FF0
ENDCHAR
STARTCHAR Gbreve
ENCODING 286
SWIDTH 808 0
DWIDTH 16 0
BBX 15 23 1 -2
BITMAP
0F38
1144
12D4
3A14
39E8
3E10
39EC
1004
21E4
6404
C9F8
C9E0
C93C
C942
C9CA
C9CA
C8CA
E40A
E3F2
F002
FC06
7FF8
3FF0
ENDCHAR
STARTCHAR gbreve
ENCODING 287
SWIDTH 808 0
DWIDTH 16 0
BBX 15 23 1 -2
BITMAP
0F38
1144
12D4
3A14
39E8
3E10
39EC
1004
21E4
6404
C9F8
C9E0
C93C
C942
C9CA
C9CA
C8CA
E40A
E3F2
F002
FC06
7FF8
3FF0
ENDCHAR
STARTCHAR Gdotaccent
ENCODING 288
SWIDTH 808 0
DWIDTH 16 0
BBX 15 22 1 -2
BITMAP
01E0
0610
0E90
0E10
0E20
09DC
1004
21E4
6404
C9F8
C9E0
C93C
C942
C9CA
C9CA
C8CA
E40A
E3F2
F002
FC06
7FF8
3FF0
ENDCHAR
STARTCHAR gdotaccent
ENCODING 289
SWIDTH 808 0
DWIDTH 16 0
BBX 15 22 1 -2
BITMAP
01E0
0610
0E90
0E10
0E20
09DC
1004
21E4
6404
C9F8
C9E0
C93C
C942
C9CA
C9CA
C8CA
E40A
E3F2
F002
FC06
7FF8
3FF0
ENDCHAR
STARTCHAR Gcommaaccent
ENCODING 290
SWIDTH 808 0
DWIDTH 16 0
BBX 15 24 1 -9
BITMAP
0FFC
13E4
2404
480C
C9F0
C9E0
C93C
C942
C9CA
C9CA
C8CA
E40A
E3F2
F002
FFFC
7C18
3C90
0C50
0C50
0FD0
0EA0
0640
0F80
0F00
ENDCHAR
STARTCHAR gcommaaccent
ENCODING 291
SWIDTH 808 0
DWIDTH 16 0
BBX 15 24 1 -9
BITMAP
0FFC
13E4
2404
480C
C9F0
C9E0
C93C
C942
C9CA
C9CA
C8CA
E40A
E3F2
F002
FFFC
7C18
3C90
0C50
0C50
0FD0
0EA0
0640
0F80
0F00
ENDCHAR
STARTCHAR Hcircumflex
ENCODING 292
SWIDTH 859 0
DWIDTH 17 0
BBX 15 23 1 -2
BITMAP
01C0
0638
09E4
1A04
3884
3FF8
21E6
61E2
E9EA
E9EA
E9EA
E9EA
E80A
E7FA
E80A
E80A
E9EA
E9EA
E9EA
E1E2
E3E2
FCFC
F8F8
ENDCHAR
STARTCHAR hcircumflex
ENCODING 293
SWIDTH 859 0
DWIDTH 17 0
BBX 15 23 1 -2
BITMAP
01C0
0638
09E4
1A04
3884
3FF8
21E6
61E2
E9EA
E9EA
E9EA
E9EA
E80A
E7FA
E80A
E80A
E9EA
E9EA
E9EA
E1E2
E3E2
FCFC
F8F8
ENDCHAR
STARTCHAR Hbar
ENCODING 294
SWIDTH 879 0
DWIDTH 18 0
BBX 17 17 0 -2
BITMAP
1F9F80
30B080
72F280
620280
67FE80
E20280
F2F280
F2F280
720280
73FC80
720280
720280
72F280
70F080
71F180
7E7E00
7C7C00
ENDCHAR
STARTCHAR hbar
ENCODING 295
SWIDTH 879 0
DWIDTH 18 0
BBX 17 17 0 -2
BITMAP
1F9F80
30B080
72F280
620280
67FE80
E20280
F2F280
F2F280
720280
73FC80
720280
720280
72F280
70F080
71F180
7E7E00
7C7C00
ENDCHAR
STARTCHAR Itilde
ENCODING 296
SWIDTH 705 0
DWIDTH 14 0
BBX 13 22 1 -2
BITMAP
1FF0
2010
2710
60D0
EF10
D0E8
C008
CFE8
C108
F930
F940
3940
3940
3940
3940
3930
4108
CFE8
C008
E018
FFE0
FFC0
ENDCHAR
STARTCHAR itilde
ENCODING 297
SWIDTH 705 0
DWIDTH 14 0
BBX 13 22 1 -2
BITMAP
1FF0
2010
2710
60D0
EF10
D0E8
C008
CFE8
C108
F930
F940
3940
3940
3940
3940
3930
4108
CFE8
C008
E018
FFE0
FFC0
ENDCHAR
STARTCHAR Imacron
ENCODING 298
SWIDTH 705 0
DWIDTH 14 0
BBX 13 22 1 -2
BITMAP
1FE0
2010
67D0
E010
E010
FFF0
C008
CFE8
C108
F930
F940
3940
3940
3940
3940
3930
4108
CFE8
C008
E018
FFE0
FFC0
ENDCHAR
STARTCHAR imacron
ENCODING 299
SWIDTH 705 0
DWIDTH 14 0
BBX 13 22 1 -2
BITMAP
1FE0
2010
67D0
E010
E010
FFF0
C008
CFE8
C108
F930
F940
3940
3940
3940
3940
3930
4108
CFE8
C008
E018
FFE0
FFC0
ENDCHAR
STARTCHAR Ibreve
ENCODING 300
SWIDTH 705 0
DWIDTH 14 0
BBX 13 23 1 -2
BITMAP
1C60
2390
6B30
E850
E790
F860
4798
4008
CFE8
C108
F930
F940
3940
3940
3940
3940
3930
4108
CFE8
C008
E018
FFE0
FFC0
ENDCHAR
STARTCHAR ibreve
ENCODING 301
SWIDTH 705 0
DWIDTH 14 0
BBX 13 23 1 -2
BITMAP
1C60
2390
6B30
E850
E790
F860
4798
4008
CFE8
C108
F930
F940
3940
3940
3940
3940
3930
4108
CFE8
C008
E018
FFE0
FFC0
ENDCHAR
STARTCHAR Iogonek
ENCODING 302
SWIDTH 705 0
DWIDTH 14 0
BBX 13 21 1 -6
BITMAP
3FF8
4008
CFE8
C108
F930
F940
3940
3940
3940
3940
3930
4108
CFE8
C048
E148
FE50
FE68
0608
0798
07E0
07C0
ENDCHAR
STARTCHAR iogonek
ENCODING 303
SWIDTH 705 0
DWIDTH 14 0
BBX 13 21 1 -6
BITMAP
3FF8
4008
CFE8
C108
F930
F940
3940
3940
3940
3940
3930
4108
CFE8
C048
E148
FE50
FE68
0608
0798
07E0
07C0
ENDCHAR
STARTCHAR Idotaccent
ENCODING 304
SWIDTH 705 0
DWIDTH 14 0
BBX 13 22 1 -2
BITMAP
0780
0840
1940
3840
3840
27B8
4008
CFE8
C108
F930
F940
3940
3940
3940
3940
3930
4108
CFE8
C008
E018
FFE0
FFC0
ENDCHAR
STARTCHAR dotlessi
ENCODING 305
SWIDTH 705 0
DWIDTH 14 0
BBX 13 17 1 -2
BITMAP
3FF8
4008
CFE8
C108
F930
F940
3940
3940
3940
3940
3930
4108
CFE8
C008
E018
FFE0
FFC0
ENDCHAR
STARTCHAR IJ
ENCODING 306
SWIDTH 844 0
DWIDTH 17 0
BBX 15 17 1 -2
BITMAP
3F3E
6142
E9CA
E9CA
E9CA
E9CA
E9CA
E1CA
FFCA
FDCA
FFCA
200A
6FF2
E004
E008
FFF0
FFC0
ENDCHAR
STARTCHAR ij
ENCODING 307
SWIDTH 844 0
DWIDTH 17 0
BBX 15 17 1 -2
BITMAP
3F3E
6142
E9CA
E9CA
E9CA
E9CA
E9CA
E1CA
FFCA
FDCA
FFCA
200A
6FF2
E004
E008
FFF0
FFC0
ENDCHAR
STARTCHAR Jcircumflex
ENCODING 308
SWIDTH 788 0
DWIDTH 16 0
BBX 17 23 0 -2
BITMAP
001C00
00E300
013C80
030280
073C80
07FF00
07C200
00C200
01CA00
01CA00
01CA00
01CA00
1FCA00
21CA00
65CA00
E5CA00
E4CA00
E41200
E3E200
F00400
7E1800
3FF000
1FC000
ENDCHAR
STARTCHAR jcircumflex
ENCODING 309
SWIDTH 788 0
DWIDTH 16 0
BBX 17 23 0 -2
BITMAP
001C00
00E300
013C80
030280
073C80
07FF00
07C200
00C200
01CA00
01CA00
01CA00
01CA00
1FCA00
21CA00
65CA00
E5CA00
E4CA00
E41200
E3E200
F00400
7E1800
3FF000
1FC000
ENDCHAR
STARTCHAR Kcommaaccent
ENCODING 310
SWIDTH 846 0
DWIDTH 17 0
BBX 15 24 1 -9
BITMAP
3F7E
69D2
E994
E9A4
E92C
E842
E7F2
E80A
E9CA
E9EA
E9EA
E9EA
E1E2
E1E2
E3E2
FC1C
FC98
0C50
0C50
0FD0
0EA0
0E40
0F80
0F00
ENDCHAR
STARTCHAR kcommaaccent
ENCODING 311
SWIDTH 846 0
DWIDTH 17 0
BBX 15 24 1 -9
BITMAP
3F7E
69D2
E994
E9A4
E92C
E842
E7F2
E80A
E9CA
E9EA
E9EA
E9EA
E1E2
E1E2
E3E2
FC1C
FC98
0C50
0C50
0FD0
0EA0
0E40
0F80
0F00
ENDCHAR
STARTCHAR kgreenlandic
ENCODING 312
SWIDTH 846 0
DWIDTH 17 0
BBX 15 17 1 -2
BITMAP
3F3E
6142
E994
E994
E924
E92C
E842
E7F2
E80A
E9CA
E9EA
E9EA
E9EA
E1E2
E3E2
FCFC
F8F8
ENDCHAR
STARTCHAR Lacute
ENCODING 313
SWIDTH 795 0
DWIDTH 16 0
BBX 15 22 1 -2
BITMAP
03E0
3C10
6F90
E010
FFE0
E180
E100
E900
E900
E900
E900
E93C
E942
E9CA
E9CA
E9CA
E80A
E7F2
E002
E006
FFF8
FFF0
ENDCHAR
STARTCHAR lacute
ENCODING 314
SWIDTH 795 0
DWIDTH 16 0
BBX 15 22 1 -2
BITMAP
03E0
3C10
6F90
E010
FFE0
E180
E100
E900
E900
E900
E900
E93C
E942
E9CA
E9CA
E9CA
E80A
E7F2
E002
E006
FFF8
FFF0
ENDCHAR
STARTCHAR Lcommaaccent
ENCODING 315
SWIDTH 795 0
DWIDTH 16 0
BBX 15 24 1 -9
BITMAP
3F00
6100
E900
E900
E900
E900
E93C
E942
E9CA
E9CA
E9CA
E80A
E7F2
E002
FFFC
FC18
FD90
0C60
1C60
1FE0
1DA0
0E40
0F80
0F00
ENDCHAR
STARTCHAR lcommaaccent
ENCODING 316
SWIDTH 795 0
DWIDTH 16 0
BBX 15 24 1 -9
BITMAP
3F00
6100
E900
E900
E900
E900
E93C
E942
E9CA
E9CA
E9CA
E80A
E7F2
E002
FFFC
FC18
FD90
0C60
1C60
1FE0
1DA0
0E40
0F80
0F00
ENDCHAR
STARTCHAR Lcaron
ENCODING 317
SWIDTH 795 0
DWIDTH 16 0
BBX 15 17 1 -2
BITMAP
3F7E
61C2
E9D4
E994
E984
E9F8
E9FC
E9C2
E9CA
E9CA
E9CA
E80A
E7F2
E002
E006
FFF8
FFF0
ENDCHAR
STARTCHAR lcaron
ENCODING 318
SWIDTH 795 0
DWIDTH 16 0
BBX 15 17 1 -2
BITMAP
3F7E
61C2
E9D4
E994
E984
E9F8
E9FC
E9C2
E9CA
E9CA
E9CA
E80A
E7F2
E002
E006
FFF8
FFF0
ENDCHAR
STARTCHAR Ldot
ENCODING 319
SWIDTH 795 0
DWIDTH 16 0
BBX 15 17 1 -2
BITMAP
3F00
6100
E900
E93C
E942
E9D2
E9C2
E9FC
E9FC
E9C2
E9CA
E80A
E7F2
E002
E006
FFF8
FFF0
ENDCHAR
STARTCHAR ldot
ENCODING 320
SWIDTH 795 0
DWIDTH 16 0
BBX 15 17 1 -2
BITMAP
3F00
6100
E900
E93C
E942
E9D2
E9C2
E9FC
E9FC
E9C2
E9CA
E80A
E7F2
E002
E006
FFF8
FFF0
ENDCHAR
STARTCHAR Lslash
ENCODING 321
SWIDTH 805 0
DWIDTH 16 0
BBX 16 17 0 -2
BITMAP
1F80
3080
7280
7280
7260
6220
6DBE
E221
E2E5
F2E5
F2E5
7205
73F9
7001
7001
7FFE
7FF8
ENDCHAR
STARTCHAR lslash
ENCODING 322
SWIDTH 805 0
DWIDTH 16 0
BBX 16 17 0 -2
BITMAP
1F80
3080
7280
7280
7260
6220
6DBE
E221
E2E5
F2E5
F2E5
7205
73F9
7001
7001
7FFE
7FF8
ENDCHAR
STARTCHAR Nacute
ENCODING 323
SWIDTH 853 0
DWIDTH 17 0
BBX 15 22 1 -2
BITMAP
00F8
0704
19E4
3804
3878
27EE
6162
E4EA
EA6A
E92A
E88A
E84A
E94A
E92A
E99A
E9CA
E9EA
E9EA
E1E2
E3E2
FCFC
F8F8
ENDCHAR
STARTCHAR nacute
ENCODING 324
SWIDTH 853 0
DWIDTH 17 0
BBX 15 22 1 -2
BITMAP
00F8
0704
19E4
3804
3878
27EE
6162
E4EA
EA6A
E92A
E88A
E84A
E94A
E92A
E99A
E9CA
E9EA
E9EA
E1E2
E3E2
FCFC
F8F8
ENDCHAR
STARTCHAR Ncommaaccent
ENCODING 325
SWIDTH 853 0
DWIDTH 17 0
BBX 15 24 1 -9
BITMAP
3E3E
6DEA
EA6A
E92A
E88A
E88A
E94A
E92A
E99A
E9CA
E9CA
E9EA
E1E2
E1E2
E1E2
FE1C
FE98
0E50
0E50
0FD0
0EA0
0640
0F80
0F00
ENDCHAR
STARTCHAR ncommaaccent
ENCODING 326
SWIDTH 853 0
DWIDTH 17 0
BBX 15 24 1 -9
BITMAP
3E3E
6DEA
EA6A
E92A
E88A
E88A
E94A
E92A
E99A
E9CA
E9CA
E9EA
E1E2
E1E2
E1E2
FE1C
FE98
0E50
0E50
0FD0
0EA0
0640
0F80
0F00
ENDCHAR
STARTCHAR Ncaron
ENCODING 327
SWIDTH 853 0
DWIDTH 17 0
BBX 15 23 1 -2
BITMAP
0418
0BE8
1228
31C8
3808
3E30
23FE
6162
E4EA
EA6A
E92A
E88A
E84A
E94A
E92A
E99A
E9CA
E9EA
E9EA
E1E2
E3E2
FCFC
F8F8
ENDCHAR
STARTCHAR ncaron
ENCODING 328
SWIDTH 853 0
DWIDTH 17 0
BBX 15 23 1 -2
BITMAP
0418
0BE8
1228
31C8
3808
3E30
23FE
6162
E4EA
EA6A
E92A
E88A
E84A
E94A
E92A
E99A
E9CA
E9EA
E9EA
E1E2
E3E2
FCFC
F8F8
ENDCHAR
STARTCHAR napostrophe
ENCODING 329
SWIDTH 853 0
DWIDTH 17 0
BBX 15 25 1 -2
BITMAP
3E00
4100
4D00
C500
C500
FD00
EA00
E200
FE3E
E162
E4EA
EA6A
E92A
E88A
E84A
E94A
E92A
E99A
E9CA
E9EA
E9EA
E1E2
E3E2
FCFC
F8F8
ENDCHAR
STARTCHAR Eng
ENCODING 330
SWIDTH 846 0
DWIDTH 17 0
BBX 15 19 1 -4
BITMAP
0FF8
13E6
241A
680A
E9CA
E9CA
E9CA
E9CA
E9CA
E9CA
E9CA
E9CA
E9CA
E10A
E132
FF04
FBF8
03F0
03C0
ENDCHAR
STARTCHAR eng
ENCODING 331
SWIDTH 846 0
DWIDTH 17 0
BBX 15 19 1 -4
BITMAP
0FF8
13E6
241A
680A
E9CA
E9CA
E9CA
E9CA
E9CA
E9CA
E9CA
E9CA
E9CA
E10A
E132
FF04
FBF8
03F0
03C0
ENDCHAR
STARTCHAR Omacron
ENCODING 332
SWIDTH 837 0
DWIDTH 17 0
BBX 15 22 1 -2
BITMAP
0FF8
1008
33E8
3008
3808
3FF8
33E4
641A
E80A
C9CA
C9CA
C9CA
C9CA
C9CA
C9CA
C9CA
E41A
E3E2
F004
FE18
7FF0
1FC0
ENDCHAR
STARTCHAR omacron
ENCODING 333
SWIDTH 837 0
DWIDTH 17 0
BBX 15 22 1 -2
BITMAP
0FF8
1008
33E8
3008
3808
3FF8
33E4
641A
E80A
C9CA
C9CA
C9CA
C9CA
C9CA
C9CA
C9CA
E41A
E3E2
F004
FE18
7FF0
1FC0
ENDCHAR
STARTCHAR Obreve
ENCODING 334
SWIDTH 837 0
DWIDTH 17 0
BBX 15 23 1 -2
BITMAP
0E38
11C4
3214
31E4
3808
3C10
3FF8
13E4
641A
E80A
C9CA
C9CA
C9CA
C9CA
C9CA
C9CA
C9CA
E41A
E3E2
F004
FE18
7FF0
1FC0
ENDCHAR
STARTCHAR obreve
ENCODING 335
SWIDTH 837 0
DWIDTH 17 0
BBX 15 23 1 -2
BITMAP
0E38
11C4
3214
31E4
3808
3C10
3FF8
13E4
641A
E80A
C9CA
C9CA
C9CA
C9CA
C9CA
C9CA
C9CA
E41A
E3E2
F004
FE18
7FF0
1FC0
ENDCHAR
STARTCHAR Ohungarumlaut
ENCODING 336
SWIDTH 837 0
DWIDTH 17 0
BBX 15 24 1 -2
BITMAP
079C
08A2
1844
1AD4
3AD4
30C4
3088
7FF8
33E4
641A
E80A
C9CA
C9CA
C9CA
C9CA
C9CA
C9CA
C9CA
E41A
E3E2
F004
FE18
7FF0
1FC0
ENDCHAR
STARTCHAR ohungarumlaut
ENCODING 337
SWIDTH 837 0
DWIDTH 17 0
BBX 15 24 1 -2
BITMAP
079C
08A2
1844
1AD4
3AD4
30C4
3088
7FF8
33E4
641A
E80A
C9CA
C9CA
C9CA
C9CA
C9CA
C9CA
C9CA
E41A
E3E2
F004
FE18
7FF0
1FC0
ENDCHAR
STARTCHAR OE
ENCODING 338
SWIDTH 1115 0
DWIDTH 22 0
BBX 21 17 1 -2
BITMAP
0FFFF8
100008
23FFE8
640808
C9C9F0
C9C9E0
C9C810
C9CF90
C9C810
C9C9E0
C9C9F0
E40808
E3FFE8
F00008
FC0008
7FFFF0
3FFFC0
ENDCHAR
STARTCHAR oe
ENCODING 339
SWIDTH 1115 0
DWIDTH 22 0
BBX 21 17 1 -2
BITMAP
0FFFF8
100008
23FFE8
640808
C9C9F0
C9C9E0
C9C810
C9CF90
C9C810
C9C9E0
C9C9F0
E40808
E3FFE8
F00008
FC0008
7FFFF0
3FFFC0
ENDCHAR
STARTCHAR Racute
ENCODING 340
SWIDTH 843 0
DWIDTH 17 0
BBX 16 22 1 -2
BITMAP
01F8
0E28
13C8
3008
3FF0
2018
6004
E7E4
E812
E9D2
E9D2
E994
E812
E7F1
E809
E9E5
E9E5
E9E5
E1E1
E3E3
FCFC
F8F8
ENDCHAR
STARTCHAR racute
ENCODING 341
SWIDTH 843 0
DWIDTH 17 0
BBX 16 22 1 -2
BITMAP
01F8
0E28
13C8
3008
3FF0
2018
6004
E7E4
E812
E9D2
E9D2
E994
E812
E7F1
E809
E9E5
E9E5
E9E5
E1E1
E3E3
FCFC
F8F8
ENDCHAR
STARTCHAR Rcommaaccent
ENCODING 342
SWIDTH 843 0
DWIDTH 17 0
BBX 16 24 1 -9
BITMAP
3FF8
67E4
E812
E992
E9D2
E9D4
E814
E7F2
E809
E805
E9E5
E9E5
E9E5
E1E1
E1E3
FE1C
FE98
0E50
0E50
0FD0
0E90
0660
0F80
0F00
ENDCHAR
STARTCHAR rcommaaccent
ENCODING 343
SWIDTH 843 0
DWIDTH 17 0
BBX 16 24 1 -9
BITMAP
3FF8
67E4
E812
E992
E9D2
E9D4
E814
E7F2
E809
E805
E9E5
E9E5
E9E5
E1E1
E1E3
FE1C
FE98
0E50
0E50
0FD0
0E90
0660
0F80
0F00
ENDCHAR
STARTCHAR Rcaron
ENCODING 344
SWIDTH 843 0
DWIDTH 17 0
BBX 16 23 1 -2
BITMAP
0418
0BE8
1A28
39C8
3808
3E30
3FF8
2004
E7E4
E812
E9D2
E9D2
E994
E812
E7F1
E809
E9E5
E9E5
E9E5
E1E1
E3E3
FCFC
F8F8
ENDCHAR
STARTCHAR rcaron
ENCODING 345
SWIDTH 843 0
DWIDTH 17 0
BBX 16 23 1 -2
BITMAP
0418
0BE8
1A28
39C8
3808
3E30
3FF8
2004
E7E4
E812
E9D2
E9D2
E994
E812
E7F1
E809
E9E5
E9E5
E9E5
E1E1
E3E3
FCFC
F8F8
ENDCHAR
STARTCHAR Sacute
ENCODING 346
SWIDTH 750 0
DWIDTH 15 0
BBX 14 22 1 -2
BITMAP
01F0
0E08
33C8
7008
73F0
7C18
6008
27E8
4808
C9F0
C870
CC08
E3C4
F024
FF14
FF94
4014
CFE4
C008
E010
FFE0
FF80
ENDCHAR
STARTCHAR sacute
ENCODING 347
SWIDTH 750 0
DWIDTH 15 0
BBX 14 22 1 -2
BITMAP
01F0
0E08
33C8
7008
73F0
7C18
6008
27E8
4808
C9F0
C870
CC08
E3C4
F024
FF14
FF94
4014
CFE4
C008
E010
FFE0
FF80
ENDCHAR
STARTCHAR Scircumflex
ENCODING 348
SWIDTH 750 0
DWIDTH 15 0
BBX 14 23 1 -2
BITMAP
0380
0C70
1388
3448
7108
7FF0
7008
6008
27E8
4808
C9F0
C870
CC08
E3C4
F024
FF14
FF94
4014
CFE4
C008
E010
FFE0
FF80
ENDCHAR
STARTCHAR scircumflex
ENCODING 349
SWIDTH 750 0
DWIDTH 15 0
BBX 14 23 1 -2
BITMAP
0380
0C70
1388
3448
7108
7FF0
7008
6008
27E8
4808
C9F0
C870
CC08
E3C4
F024
FF14
FF94
4014
CFE4
C008
E010
FFE0
FF80
ENDCHAR
STARTCHAR Scedilla
ENCODING 350
SWIDTH 750 0
DWIDTH 15 0
BBX 14 19 1 -4
BITMAP
1FF8
2008
47E8
C808
C9F0
C870
CC08
E3C4
F024
FF14
FF94
4014
CFE4
C108
FD30
F840
F840
1F80
3E00
ENDCHAR
STARTCHAR scedilla
ENCODING 351
SWIDTH 750 0
DWIDTH 15 0
BBX 14 19 1 -4
BITMAP
1FF8
2008
47E8
C808
C9F0
C870
CC08
E3C4
F024
FF14
FF94
4014
CFE4
C108
FD30
F840
F840
1F80
3E00
ENDCHAR
STARTCHAR Scaron
ENCODING 352
SWIDTH 750 0
DWIDTH 15 0
BBX 14 23 1 -2
BITMAP
0830
17C8
3008
73C8
7010
7E60
7198
2008
27E8
C808
C9F0
C870
CC08
E3C4
F024
FF14
FF94
4014
CFE4
C008
E010
FFE0
FF80
ENDCHAR
STARTCHAR scaron
ENCODING 353
SWIDTH 750 0
DWIDTH 15 0
BBX 14 23 1 -2
BITMAP
0830
17C8
3008
73C8
7010
7E60
7198
2008
27E8
C808
C9F0
C870
CC08
E3C4
F024
FF14
FF94
4014
CFE4
C008
E010
FFE0
FF80
ENDCHAR
STARTCHAR Tcommaaccent
ENCODING 354
SWIDTH 756 0
DWIDTH 15 0
BBX 15 24 0 -9
BITMAP
3FFE
67FA
E082
E082
FE9C
FE98
0E90
0E90
0E90
0E90
0E90
0E90
0E10
0E10
0FE0
0E10
0E90
0E50
0E50
0FD0
0EA0
0640
0F80
0F00
ENDCHAR
STARTCHAR tcommaaccent
ENCODING 355
SWIDTH 756 0
DWIDTH 15 0
BBX 15 24 0 -9
BITMAP
3FFE
67FA
E082
E082
FE9C
FE98
0E90
0E90
0E90
0E90
0E90
0E90
0E10
0E10
0FE0
0E10
0E90
0E50
0E50
0FD0
0EA0
0640
0F80
0F00
ENDCHAR
STARTCHAR Tcaron
ENCODING 356
SWIDTH 756 0
DWIDTH 15 0
BBX 15 23 0 -2
BITMAP
0418
0BE4
1A04
39E4
3808
3F30
20DE
6002
E7FA
E082
FE9C
FE98
0E90
0E90
0E90
0E90
0E90
0E90
0E90
0E10
0E30
0FC0
0F80
ENDCHAR
STARTCHAR tcaron
ENCODING 357
SWIDTH 756 0
DWIDTH 15 0
BBX 15 23 0 -2
BITMAP
0418
0BE4
1A04
39E4
3808
3F30
20DE
6002
E7FA
E082
FE9C
FE98
0E90
0E90
0E90
0E90
0E90
0E90
0E90
0E10
0E30
0FC0
0F80
ENDCHAR
STARTCHAR Tbar
ENCODING 358
SWIDTH 756 0
DWIDTH 15 0
BBX 15 17 0 -2
BITMAP
3FFE
6002
E7FA
E082
FE9C
FE98
0E98
1084
33F4
7084
7E98
7E90
3E90
0E10
0E30
0FC0
0F80
ENDCHAR
STARTCHAR tbar
ENCODING 359
SWIDTH 756 0
DWIDTH 15 0
BBX 15 17 0 -2
BITMAP
3FFE
6002
E7FA
E082
FE9C
FE98
0E98
1084
33F4
7084
7E98
7E90
3E90
0E10
0E30
0FC0
0F80
ENDCHAR
STARTCHAR Utilde
ENCODING 360
SWIDTH 846 0
DWIDTH 17 0
BBX 15 22 1 -2
BITMAP
07F8
0804
1BC4
3824
3E08
21F6
61C2
E9CA
E9CA
E9CA
E9CA
E9CA
E9CA
E9CA
E9CA
E8CA
E40A
E3F2
F004
FE18
7FF0
1FC0
ENDCHAR
STARTCHAR utilde
ENCODING 361
SWIDTH 846 0
DWIDTH 17 0
BBX 15 22 1 -2
BITMAP
07F8
0804
1BC4
3824
3E08
21F6
61C2
E9CA
E9CA
E9CA
E9CA
E9CA
E9CA
E9CA
E9CA
E8CA
E40A
E3F2
F004
FE18
7FF0
1FC0
ENDCHAR
STARTCHAR Umacron
ENCODING 362
SWIDTH 846 0
DWIDTH 17 0
BBX 15 22 1 -2
BITMAP
07F8
0804
1BE4
3804
3808
3FFE
21C2
E9CA
E9CA
E9CA
E9CA
E9CA
E9CA
E9CA
E9CA
E8CA
E40A
E3F2
F004
FE18
7FF0
1FC0
ENDCHAR
STARTCHAR umacron
ENCODING 363
SWIDTH 846 0
DWIDTH 17 0
BBX 15 22 1 -2
BITMAP
07F8
0804
1BE4
3804
3808
3FFE
21C2
E9CA
E9CA
E9CA
E9CA
E9CA
E9CA
E9CA
E9CA
E8CA
E40A
E3F2
F004
FE18
7FF0
1FC0
ENDCHAR
STARTCHAR Ubreve
ENCODING 364
SWIDTH 846 0
DWIDTH 17 0
BBX 15 23 1 -2
BITMAP
0F38
11C4
3214
39E4
3808
3E10
21EE
61C2
E9CA
E9CA
E9CA
E9CA
E9CA
E9CA
E9CA
E9CA
E8CA
E40A
E3F2
F004
FE18
7FF0
1FC0
ENDCHAR
STARTCHAR ubreve
ENCODING 365
SWIDTH 846 0
DWIDTH 17 0
BBX 15 23 1 -2
BITMAP
0F38
11C4
3214
39E4
3808
3E10
21EE
61C2
E9CA
E9CA
E9CA
E9CA
E9CA
E9CA
E9CA
E9CA
E8CA
E40A
E3F2
F004
FE18
7FF0
1FC0
ENDCHAR
STARTCHAR Uring
ENCODING 366
SWIDTH 846 0
DWIDTH 17 0
BBX 15 26 1 -2
BITMAP
03D0
05E8
0A14
12D4
32D4
3214
31E4
3808
3E10
21EE
61C2
E9CA
E9CA
E9CA
E9CA
E9CA
E9CA
E9CA
E9CA
E9CA
E48A
E3F2
F004
FE18
7FF0
1FC0
ENDCHAR
STARTCHAR uring
ENCODING 367
SWIDTH 846 0
DWIDTH 17 0
BBX 15 26 1 -2
BITMAP
03D0
05E8
0A14
12D4
32D4
3214
31E4
3808
3E10
21EE
61C2
E9CA
E9CA
E9CA
E9CA
E9CA
E9CA
E9CA
E9CA
E9CA
E48A
E3F2
F004
FE18
7FF0
1FC0
ENDCHAR
STARTCHAR Uhungarumlaut
ENCODING 368
SWIDTH 846 0
DWIDTH 17 0
BBX 15 24 1 -2
BITMAP
039C
0462
0842
1A54
1AD4
38C4
30C8
3FFE
21C2
E9CA
E9CA
E9CA
E9CA
E9CA
E9CA
E9CA
E9CA
E8CA
E40A
E3F2
F004
FE18
7FF0
1FC0
ENDCHAR
STARTCHAR uhungarumlaut
ENCODING 369
SWIDTH 846 0
DWIDTH 17 0
BBX 15 24 1 -2
BITMAP
039C
0462
0842
1A54
1AD4
38C4
30C8
3FFE
21C2
E9CA
E9CA
E9CA
E9CA
E9CA
E9CA
E9CA
E9CA
E8CA
E40A
E3F2
F004
FE18
7FF0
1FC0
ENDCHAR
STARTCHAR Uogonek
ENCODING 370
SWIDTH 846 0
DWIDTH 17 0
BBX 15 21 1 -6
BITMAP
3F3E
6142
E9CA
E9CA
E9CA
E9CA
E9CA
E9CA
E9CA
E9CA
E8CA
E40A
E3F2
F082
FE9C
7EB0
3ED0
0E10
0F10
0FE0
0780
ENDCHAR
STARTCHAR uogonek
ENCODING 371
SWIDTH 846 0
DWIDTH 17 0
BBX 15 21 1 -6
BITMAP
3F3E
6142
E9CA
E9CA
E9CA
E9CA
E9CA
E9CA
E9CA
E9CA
E8CA
E40A
E3F2
F082
FE9C
7EB0
3ED0
0E10
0F10
0FE0
0780
ENDCHAR
STARTCHAR Wcircumflex
ENCODING 372
SWIDTH 931 0
DWIDTH 19 0
BBX 17 23 1 -2
BITMAP
00E000
031800
04E400
091400
184400
1FFC00
21F380
617080
E93280
E93280
E93280
E9F280
E91280
E94A80
E8A280
E91280
E55280
E64A80
E26500
F0E100
71E300
7EFC00
7CF800
ENDCHAR
STARTCHAR wcircumflex
ENCODING 373
SWIDTH 931 0
DWIDTH 19 0
BBX 17 23 1 -2
BITMAP
00E000
031800
04E400
091400
184400
1FFC00
21F380
617080
E93280
E93280
E93280
E9F280
E91280
E94A80
E8A280
E91280
E55280
E64A80
E26500
F0E100
71E300
7EFC00
7CF800
ENDCHAR
STARTCHAR Ycircumflex
ENCODING 374
SWIDTH 805 0
DWIDTH 16 0
BBX 16 23 0 -2
BITMAP
00E0
0718
08E4
0914
1804
3FFC
20E3
2161
6565
E4E5
E4E5
E4E5
E249
F212
7914
7CE4
3C48
1E50
1E50
0E10
0E10
0FE0
0F80
ENDCHAR
STARTCHAR ycircumflex
ENCODING 375
SWIDTH 805 0
DWIDTH 16 0
BBX 16 23 0 -2
BITMAP
00E0
0718
08E4
0914
1804
3FFC
20E3
2161
6565
E4E5
E4E5
E4E5
E249
F212
7914
7CE4
3C48
1E50
1E50
0E10
0E10
0FE0
0F80
ENDCHAR
STARTCHAR Ydieresis
ENCODING 376
SWIDTH 805 0
DWIDTH 16 0
BBX 16 22 0 -2
BITMAP
07BC
0842
3A52
3842
3844
3FFF
20E1
6161
E4E5
E4E5
E4E5
E449
F212
7912
78E4
3C48
1E50
1E50
0E10
0E10
0FE0
0F80
ENDCHAR
STARTCHAR Zacute
ENCODING 377
SWIDTH 760 0
DWIDTH 15 0
BBX 15 22 0 -2
BITMAP
00F8
0704
19E4
3804
39F8
360E
3002
77F2
7012
7F92
7E24
0248
0490
0920
1120
227C
6402
63FA
E002
E002
FFFC
FFF0
ENDCHAR
STARTCHAR zacute
ENCODING 378
SWIDTH 760 0
DWIDTH 15 0
BBX 15 22 0 -2
BITMAP
00F8
0704
19E4
3804
39F8
360E
3002
77F2
7012
7F92
7E24
0248
0490
0920
1120
227C
6402
63FA
E002
E002
FFFC
FFF0
ENDCHAR
STARTCHAR Zdotaccent
ENCODING 379
SWIDTH 760 0
DWIDTH 15 0
BBX 15 22 0 -2
BITMAP
01E0
0210
0E90
0E10
0E10
11EE
3002
77F2
7012
7F92
7E24
0248
0490
0920
1120
227C
6402
63FA
E002
E002
FFFC
FFF0
ENDCHAR
STARTCHAR zdotaccent
ENCODING 380
SWIDTH 760 0
DWIDTH 15 0
BBX 15 22 0 -2
BITMAP
01E0
0210
0E90
0E10
0E10
11EE
3002
77F2
7012
7F92
7E24
0248
0490
0920
1120
227C
6402
63FA
E002
E002
FFFC
FFF0
ENDCHAR
STARTCHAR Zcaron
ENCODING 381
SWIDTH 760 0
DWIDTH 15 0
BBX 15 23 0 -2
BITMAP
0418
0BE4
1A04
39E4
3808
3F30
30CE
3002
77F2
7012
7F92
7E24
0248
0490
0920
1120
227C
6402
63FA
E002
E002
FFFC
FFF0
ENDCHAR
STARTCHAR zcaron
ENCODING 382
SWIDTH 760 0
DWIDTH 15 0
BBX 15 23 0 -2
BITMAP
0418
0BE4
1A04
39E4
3808
3F30
30CE
3002
77F2
7012
7F92
7E24
0248
0490
0920
1120
227C
6402
63FA
E002
E002
FFFC
FFF0
ENDCHAR
STARTCHAR Schwa
ENCODING 399
SWIDTH 815 0
DWIDTH 16 0
BBX 15 17 1 -2
BITMAP
1FF8
33E4
7012
7FCA
7FCA
400A
400A
CFF2
C80A
C9CA
C9CA
C812
E7E2
F004
FE38
7FE0
3FC0
ENDCHAR
STARTCHAR florin
ENCODING 402
SWIDTH 674 0
DWIDTH 13 0
BBX 13 17 0 -2
BITMAP
01F8
0208
0468
0C88
1CB0
1CB8
2088
67E8
E088
FCB0
F8A0
2120
6620
E040
E180
FE00
FC00
ENDCHAR
STARTCHAR Ohorn
ENCODING 416
SWIDTH 847 0
DWIDTH 17 0
BBX 16 19 1 -2
BITMAP
0007
0019
0FE3
13FD
240A
480A
C9CA
C9CA
C9CA
C9CA
C9CA
C9CA
C9CA
E41A
E3E2
F004
FE18
7FF0
3FC0
ENDCHAR
STARTCHAR ohorn
ENCODING 417
SWIDTH 847 0
DWIDTH 17 0
BBX 16 19 1 -2
BITMAP
0007
0019
0FE3
13FD
240A
480A
C9CA
C9CA
C9CA
C9CA
C9CA
C9CA
C9CA
E41A
E3E2
F004
FE18
7FF0
3FC0
ENDCHAR
STARTCHAR Uhorn
ENCODING 431
SWIDTH 856 0
DWIDTH 17 0
BBX 16 19 1 -2
BITMAP
0007
0019
3F23
6145
E9C9
E9C9
E9C9
E9C9
E9C9
E9C9
E9C9
E9C9
E8C9
E40A
E3F2
F004
FE18
7FF0
1FC0
ENDCHAR
STARTCHAR uhorn
ENCODING 432
SWIDTH 856 0
DWIDTH 17 0
BBX 16 19 1 -2
BITMAP
0007
0019
3F23
6145
E9C9
E9C9
E9C9
E9C9
E9C9
E9C9
E9C9
E9C9
E8C9
E40A
E3F2
F004
FE18
7FF0
1FC0
ENDCHAR
STARTCHAR Acaron
ENCODING 461
SWIDTH 830 0
DWIDTH 17 0
BBX 15 23 1 -2
BITMAP
0418
0BE8
1228
31C8
3808
3F70
3898
0808
11C4
3224
3494
64D2
65CA
E80A
C80A
CFFA
C80A
C9CA
C9CA
C2C2
E2E2
FCFC
F0F0
ENDCHAR
STARTCHAR acaron
ENCODING 462
SWIDTH 830 0
DWIDTH 17 0
BBX 15 23 1 -2
BITMAP
0418
0BE8
1228
31C8
3808
3F70
3898
0808
11C4
3224
3494
64D2
65CA
E80A
C80A
CFFA
C80A
C9CA
C9CA
C2C2
E2E2
FCFC
F0F0
ENDCHAR
STARTCHAR Icaron
ENCODING 463
SWIDTH 705 0
DWIDTH 14 0
BBX 13 23 1 -2
BITMAP
1870
2790
2450
E390
F020
FEC0
4138
4008
CFE8
C108
F930
F940
3940
3940
3940
3940
3930
4108
CFE8
C008
E018
FFE0
FFC0
ENDCHAR
STARTCHAR icaron
ENCODING 464
SWIDTH 705 0
DWIDTH 14 0
BBX 13 23 1 -2
BITMAP
1870
2790
2450
E390
F020
FEC0
4138
4008
CFE8
C108
F930
F940
3940
3940
3940
3940
3930
4108
CFE8
C008
E018
FFE0
FFC0
ENDCHAR
STARTCHAR Ocaron
ENCODING 465
SWIDTH 837 0
DWIDTH 17 0
BBX 15 23 1 -2
BITMAP
0E18
11E8
3228
31C8
3808
3F30
3CC8
13E6
641A
C80A
C9CA
C9CA
C9CA
C9CA
C9CA
C9CA
C9CA
E41A
E3E2
F004
FE18
7FF0
1FC0
ENDCHAR
STARTCHAR ocaron
ENCODING 466
SWIDTH 837 0
DWIDTH 17 0
BBX 15 23 1 -2
BITMAP
0E18
11E8
3228
31C8
3808
3F30
3CC8
13E6
641A
C80A
C9CA
C9CA
C9CA
C9CA
C9CA
C9CA
C9CA
E41A
E3E2
F004
FE18
7FF0
1FC0
ENDCHAR
STARTCHAR Ucaron
ENCODING 467
SWIDTH 846 0
DWIDTH 17 0
BBX 15 23 1 -2
BITMAP
0418
0BE4
1A24
39C4
3808
3E30
21FE
6142
E9CA
E9CA
E9CA
E9CA
E9CA
E9CA
E9CA
E9CA
E8CA
E40A
E3F2
F004
FE18
7FF0
1FC0
ENDCHAR
STARTCHAR ucaron
ENCODING 468
SWIDTH 846 0
DWIDTH 17 0
BBX 15 23 1 -2
BITMAP
0418
0BE4
1A24
39C4
3808
3E30
21FE
6142
E9CA
E9CA
E9CA
E9CA
E9CA
E9CA
E9CA
E9CA
E8CA
E40A
E3F2
F004
FE18
7FF0
1FC0
ENDCHAR
STARTCHAR Udieresismacron
ENCODING 469
SWIDTH 846 0
DWIDTH 17 0
BBX 15 26 1 -2
BITMAP
07F8
0BE8
3808
3FF8
3084
3084
3294
7084
7084
7FFE
61C2
E9CA
E9CA
E9CA
E9CA
E9CA
E9CA
E9CA
E9CA
E8CA
E40A
E3F2
F004
FE18
7FF0
1FC0
ENDCHAR
STARTCHAR udieresismacron
ENCODING 470
SWIDTH 846 0
DWIDTH 17 0
BBX 15 26 1 -2
BITMAP
07F8
0BE8
3808
3FF8
3084
3084
3294
7084
7084
7FFE
61C2
E9CA
E9CA
E9CA
E9CA
E9CA
E9CA
E9CA
E9CA
E8CA
E40A
E3F2
F004
FE18
7FF0
1FC0
ENDCHAR
STARTCHAR Udieresisacute
ENCODING 471
SWIDTH 846 0
DWIDTH 17 0
BBX 15 26 1 -2
BITMAP
01F0
0250
0690
0E10
0FF8
1084
3294
7084
7084
7FFE
61C2
E9CA
E9CA
E9CA
E9CA
E9CA
E9CA
E9CA
E9CA
E8CA
E40A
E3F2
F004
FE18
7FF0
1FC0
ENDCHAR
STARTCHAR udieresisacute
ENCODING 472
SWIDTH 846 0
DWIDTH 17 0
BBX 15 26 1 -2
BITMAP
01F0
0250
0690
0E10
0FF8
1084
3294
7084
7084
7FFE
61C2
E9CA
E9CA
E9CA
E9CA
E9CA
E9CA
E9CA
E9CA
E8CA
E40A
E3F2
F004
FE18
7FF0
1FC0
ENDCHAR
STARTCHAR Udieresiscaron
ENCODING 473
SWIDTH 846 0
DWIDTH 17 0
BBX 15 27 1 -2
BITMAP
0E18
19E4
3BE4
3808
3E30
3FF8
1084
3294
7084
7084
7FFE
61C2
E9CA
E9CA
E9CA
E9CA
E9CA
E9CA
E9CA
E9CA
E8CA
E40A
E3F2
F004
FE18
7FF0
1FC0
ENDCHAR
STARTCHAR udieresiscaron
ENCODING 474
SWIDTH 846 0
DWIDTH 17 0
BBX 15 27 1 -2
BITMAP
0E18
19E4
3BE4
3808
3E30
3FF8
1084
3294
7084
7084
7FFE
61C2
E9CA
E9CA
E9CA
E9CA
E9CA
E9CA
E9CA
E9CA
E8CA
E40A
E3F2
F004
FE18
7FF0
1FC0
ENDCHAR
STARTCHAR Udieresisgrave
ENCODING 475
SWIDTH 846 0
DWIDTH 17 0
BBX 15 26 1 -2
BITMAP
03C0
0CA0
0C20
0E20
0FF8
1084
3294
7084
7084
7FFE
61C2
E9CA
E9CA
E9CA
E9CA
E9CA
E9CA
E9CA
E9CA
E8CA
E40A
E3F2
F004
FE18
7FF0
1FC0
ENDCHAR
STARTCHAR udieresisgrave
ENCODING 476
SWIDTH 846 0
DWIDTH 17 0
BBX 15 26 1 -2
BITMAP
03C0
0CA0
0C20
0E20
0FF8
1084
3294
7084
7084
7FFE
61C2
E9CA
E9CA
E9CA
E9CA
E9CA
E9CA
E9CA
E9CA
E8CA
E40A
E3F2
F004
FE18
7FF0
1FC0
ENDCHAR
STARTCHAR Gcaron
ENCODING 486
SWIDTH 808 0
DWIDTH 16 0
BBX 15 23 1 -2
BITMAP
0C38
13C8
1228
71C8
7818
7F60
389C
1004
21E4
6404
C9F8
C9E0
C93C
C942
C9CA
C9CA
C8CA
E40A
E3F2
F002
FC06
7FF8
3FF0
ENDCHAR
STARTCHAR gcaron
ENCODING 487
SWIDTH 808 0
DWIDTH 16 0
BBX 15 23 1 -2
BITMAP
0C38
13C8
1228
71C8
7818
7F60
389C
1004
21E4
6404
C9F8
C9E0
C93C
C942
C9CA
C9CA
C8CA
E40A
E3F2
F002
FC06
7FF8
3FF0
ENDCHAR
STARTCHAR Scommaaccent
ENCODING 536
SWIDTH 750 0
DWIDTH 15 0
BBX 14 24 1 -9
BITMAP
1FF8
27E8
4808
C9F8
C8E0
C818
C704
E0E4
FC14
FF94
4014
4024
CFC4
C018
FFE0
FC20
FDA0
1C60
1C60
1FA0
1D20
0CC0
1F00
1E00
ENDCHAR
STARTCHAR scommaaccent
ENCODING 537
SWIDTH 750 0
DWIDTH 15 0
BBX 14 24 1 -9
BITMAP
1FF8
27E8
4808
C9F8
C8E0
C818
C704
E0E4
FC14
FF94
4014
4024
CFC4
C018
FFE0
FC20
FDA0
1C60
1C60
1FA0
1D20
0CC0
1F00
1E00
ENDCHAR
STARTCHAR uni021A
ENCODING 538
SWIDTH 756 0
DWIDTH 15 0
BBX 15 24 0 -9
BITMAP
3FFE
67FA
E082
E082
FE9C
FE98
0E90
0E90
0E90
0E90
0E90
0E90
0E10
0E10
0FE0
0E10
0E90
0E50
0E50
0FD0
0EA0
0640
0F80
0F00
ENDCHAR
STARTCHAR uni021B
ENCODING 539
SWIDTH 756 0
DWIDTH 15 0
BBX 15 24 0 -9
BITMAP
3FFE
67FA
E082
E082
FE9C
FE98
0E90
0E90
0E90
0E90
0E90
0E90
0E10
0E10
0FE0
0E10
0E90
0E50
0E50
0FD0
0EA0
0640
0F80
0F00
ENDCHAR
STARTCHAR dotlessj
ENCODING 567
SWIDTH 788 0
DWIDTH 16 0
BBX 15 17 0 -2
BITMAP
003E
0042
00CA
01CA
01CA
01CA
1FCA
21CA
65CA
E5CA
E4CA
E412
E3E2
F004
7E18
3FF0
1FC0
ENDCHAR
STARTCHAR ascript
ENCODING 593
SWIDTH 846 0
DWIDTH 17 0
BBX 15 17 1 -2
BITMAP
0FF8
13E4
2412
680A
C9CA
C9CA
C9CA
C9CA
C9CA
C9CA
C9CA
E40A
E3FA
E002
FC02
FFFC
3FF8
ENDCHAR
STARTCHAR schwa
ENCODING 601
SWIDTH 815 0
DWIDTH 16 0
BBX 15 17 1 -2
BITMAP
1FF8
33E4
7012
7FCA
7FCA
400A
400A
CFF2
C80A
C9CA
C9CA
C812
E7E2
F004
FE38
7FE0
3FC0
ENDCHAR
STARTCHAR gscript
ENCODING 609
SWIDTH 815 0
DWIDTH 16 0
BBX 15 18 1 -3
BITMAP
0FF8
1004
27F2
480A
C9CA
C9CA
C9CA
C80A
E7F2
E00A
F00A
FFCA
7FCA
100A
33F2
700C
7FF0
7FE0
ENDCHAR
STARTCHAR commaturnedmod
ENCODING 699
SWIDTH 600 0
DWIDTH 12 0
BBX 8 9 2 6
BITMAP
1F
25
6E
E9
ED
E1
E1
FE
F8
ENDCHAR
STARTCHAR apostrophemod
ENCODING 700
SWIDTH 600 0
DWIDTH 12 0
BBX 8 10 2 6
BITMAP
1E
21
6D
E3
E3
FB
ED
66
F8
F0
ENDCHAR
STARTCHAR ringhalfright
ENCODING 702
SWIDTH 412 0
DWIDTH 8 0
BBX 8 9 0 6
BITMAP
3F
65
E3
FB
FB
25
61
FE
F8
ENDCHAR
STARTCHAR ringhalfleft
ENCODING 703
SWIDTH 412 0
DWIDTH 8 0
BBX 8 9 0 6
BITMAP
1F
27
69
EA
EB
E7
E1
FE
FC
ENDCHAR
STARTCHAR circumflex
ENCODING 710
SWIDTH 600 0
DWIDTH 12 0
BBX 12 8 0 12
BITMAP
0380
1C60
2790
6050
E310
FFE0
FFC0
8080
ENDCHAR
STARTCHAR caron
ENCODING 711
SWIDTH 600 0
DWIDTH 12 0
BBX 12 7 0 13
BITMAP
1870
2790
6450
E390
FC60
FF80
3F00
ENDCHAR
STARTCHAR verticallinemod
ENCODING 712
SWIDTH 456 0
DWIDTH 9 0
BBX 7 10 1 5
BITMAP
3E
62
EA
EA
EA
EA
E2
E2
FC
F8
ENDCHAR
STARTCHAR firsttonechinese
ENCODING 713
SWIDTH 600 0
DWIDTH 12 0
BBX 12 6 0 13
BITMAP
1FE0
2010
67D0
E010
FFE0
FFC0
ENDCHAR
STARTCHAR secondtonechinese
ENCODING 714
SWIDTH 600 0
DWIDTH 12 0
BBX 12 7 0 13
BITMAP
01E0
1E10
27D0
6010
E3E0
FFC0
FE00
ENDCHAR
STARTCHAR fourthtonechinese
ENCODING 715
SWIDTH 600 0
DWIDTH 12 0
BBX 12 7 0 13
BITMAP
1E00
21F0
6790
E050
FF10
FFE0
3FC0
ENDCHAR
STARTCHAR verticallinelowmod
ENCODING 716
SWIDTH 456 0
DWIDTH 9 0
BBX 7 10 1 -5
BITMAP
3E
62
EA
EA
EA
EA
E2
E2
FC
F8
ENDCHAR
STARTCHAR breve
ENCODING 728
SWIDTH 600 0
DWIDTH 12 0
BBX 12 7 0 13
BITMAP
1C60
2390
6850
E790
F020
FFC0
7F00
ENDCHAR
STARTCHAR dotaccent
ENCODING 729
SWIDTH 600 0
DWIDTH 12 0
BBX 8 7 2 13
BITMAP
1E
21
65
E1
E1
FE
FC
ENDCHAR
STARTCHAR ring
ENCODING 730
SWIDTH 600 0
DWIDTH 12 0
BBX 12 10 0 13
BITMAP
0BC0
17B0
2850
6B30
EBB0
E850
E790
F020
FFC0
7F00
ENDCHAR
STARTCHAR ogonek
ENCODING 731
SWIDTH 600 0
DWIDTH 12 0
BBX 8 8 2 -6
BITMAP
1E
2A
6B
6D
E1
F1
FE
7C
ENDCHAR
STARTCHAR tilde
ENCODING 732
SWIDTH 600 0
DWIDTH 12 0
BBX 12 6 0 13
BITMAP
1FE0
2610
61D0
E010
FFE0
FF80
ENDCHAR
STARTCHAR hungarumlaut
ENCODING 733
SWIDTH 600 0
DWIDTH 12 0
BBX 13 8 -1 13
BITMAP
0F38
11C8
35A8
35A8
6188
6108
7FF0
FBC0
ENDCHAR
STARTCHAR gravecmb
ENCODING 768
SWIDTH 100 0
DWIDTH 2 0
BBX 12 7 -5 13
BITMAP
1E00
21F0
6790
E050
FF10
FFE0
3FC0
ENDCHAR
STARTCHAR acutecmb
ENCODING 769
SWIDTH 100 0
DWIDTH 2 0
BBX 12 7 -5 13
BITMAP
01E0
1E10
27D0
6010
E3E0
FFC0
FE00
ENDCHAR
STARTCHAR circumflexcmb
ENCODING 770
SWIDTH 100 0
DWIDTH 2 0
BBX 12 8 -5 12
BITMAP
0380
1C60
2790
6050
E310
FFE0
FFC0
8080
ENDCHAR
STARTCHAR tildecmb
ENCODING 771
SWIDTH 100 0
DWIDTH 2 0
BBX 12 6 -5 13
BITMAP
1FE0
2610
61D0
E010
FFE0
FF80
ENDCHAR
STARTCHAR uni0304
ENCODING 772
SWIDTH 600 0
DWIDTH 12 0
BBX 12 6 0 13
BITMAP
1FE0
2010
67D0
E010
FFE0
FFC0
ENDCHAR
STARTCHAR brevecmb
ENCODING 774
SWIDTH 100 0
DWIDTH 2 0
BBX 12 7 -5 13
BITMAP
1C60
2390
6850
E790
F020
FFC0
7F00
ENDCHAR
STARTCHAR dotaccentcmb
ENCODING 775
SWIDTH 100 0
DWIDTH 2 0
BBX 8 7 -3 13
BITMAP
1E
21
65
E1
E1
FE
FC
ENDCHAR
STARTCHAR dieresiscmb
ENCODING 776
SWIDTH 100 0
DWIDTH 2 0
BBX 12 6 -5 13
BITMAP
1EF0
2110
E950
E110
FFE0
FFC0
ENDCHAR
STARTCHAR hookcmb
ENCODING 777
SWIDTH 100 0
DWIDTH 2 0
BBX 9 8 -3 13
BITMAP
1F00
2E80
6580
F980
F680
7100
7E00
7C00
ENDCHAR
STARTCHAR ringcmb
ENCODING 778
SWIDTH 100 0
DWIDTH 2 0
BBX 12 10 -5 13
BITMAP
0BC0
17B0
2850
6B30
EBB0
E850
E790
F020
FFC0
7F00
ENDCHAR
STARTCHAR hungarumlautcmb
ENCODING 779
SWIDTH 100 0
DWIDTH 2 0
BBX 13 8 -5 13
BITMAP
0F78
1088
35A8
75A8
6108
6110
7FE0
FFC0
ENDCHAR
STARTCHAR caroncmb
ENCODING 780
SWIDTH 100 0
DWIDTH 2 0
BBX 12 7 -5 13
BITMAP
1870
2790
6450
E390
FC60
FF80
3F00
ENDCHAR
STARTCHAR horncmb
ENCODING 795
SWIDTH 100 0
DWIDTH 2 0
BBX 7 7 -3 10
BITMAP
0E
32
66
7A
E4
F8
F0
ENDCHAR
STARTCHAR dotbelowcmb
ENCODING 803
SWIDTH 100 0
DWIDTH 2 0
BBX 8 7 -3 -7
BITMAP
1E
21
65
E1
E1
FE
FC
ENDCHAR
STARTCHAR dieresisbelowcmb
ENCODING 804
SWIDTH 100 0
DWIDTH 2 0
BBX 12 6 -5 -7
BITMAP
1EF0
2110
E950
E110
FFE0
FFC0
ENDCHAR
STARTCHAR commaaccent
ENCODING 806
SWIDTH 600 0
DWIDTH 12 0
BBX 8 10 2 -9
BITMAP
1E
21
6D
E3
E3
FB
ED
66
F8
F0
ENDCHAR
STARTCHAR cedillacmb
ENCODING 807
SWIDTH 100 0
DWIDTH 2 0
BBX 8 8 -3 -5
BITMAP
1F
35
65
65
62
E6
F8
F0
ENDCHAR
STARTCHAR ogonekcmb
ENCODING 808
SWIDTH 100 0
DWIDTH 2 0
BBX 8 8 -2 -6
BITMAP
1C
2A
EA
CD
E1
F3
FC
F8
ENDCHAR
STARTCHAR brevebelowcmb
ENCODING 814
SWIDTH 100 0
DWIDTH 2 0
BBX 12 7 -5 -7
BITMAP
1C60
2390
6850
E790
F020
FFC0
7F00
ENDCHAR
STARTCHAR macronbelowcmb
ENCODING 817
SWIDTH 100 0
DWIDTH 2 0
BBX 12 6 -5 -6
BITMAP
1FE0
2010
67D0
E010
FFE0
FFC0
ENDCHAR
STARTCHAR uni0394
ENCODING 916
SWIDTH 830 0
DWIDTH 17 0
BBX 15 17 1 -2
BITMAP
07F0
0808
11C8
3224
3414
7494
6494
65D2
65CA
E9CA
C9CA
C80A
C80A
C7F2
C002
FFFC
FFF8
ENDCHAR
STARTCHAR uni03A9
ENCODING 937
SWIDTH 877 0
DWIDTH 18 0
BBX 17 17 0 -2
BITMAP
07FE00
080100
11F880
320480
727280
72F280
72F280
72F280
72F280
72F280
72F480
6A6480
612880
E62680
E02080
FFFF00
FFFE00
ENDCHAR
STARTCHAR uni03BC
ENCODING 956
SWIDTH 813 0
DWIDTH 16 0
BBX 15 16 1 -3
BITMAP
1E3C
2142
E9CA
E9CA
E9CA
E9CA
E9CA
E9CA
E9CA
EC12
EBE2
E804
E1F8
E1E0
FFC0
F800
ENDCHAR
STARTCHAR pi
ENCODING 960
SWIDTH 821 0
DWIDTH 16 0
BBX 15 14 1 -2
BITMAP
1FFC
6002
E7F2
E80A
E9CA
E9CA
E9CA
E9CA
E9CA
E9CA
E1C2
E1C2
FFFC
F9F8
ENDCHAR
STARTCHAR Ddotbelow
ENCODING 7692
SWIDTH 846 0
DWIDTH 17 0
BBX 15 22 1 -7
BITMAP
3FFC
6002
E7F2
E80A
E9CA
E9EA
E9EA
E9EA
E9EA
E9EA
E9CA
E80A
E7F2
E002
E004
FFF8
FC10
0C90
0C10
0E20
0FC0
0F80
ENDCHAR
STARTCHAR ddotbelow
ENCODING 7693
SWIDTH 846 0
DWIDTH 17 0
BBX 15 22 1 -7
BITMAP
3FFC
6002
E7F2
E80A
E9CA
E9EA
E9EA
E9EA
E9EA
E9EA
E9CA
E80A
E7F2
E002
E004
FFF8
FC10
0C90
0C10
0E20
0FC0
0F80
ENDCHAR
STARTCHAR Dlinebelow
ENCODING 7694
SWIDTH 846 0
DWIDTH 17 0
BBX 15 21 1 -6
BITMAP
3FFC
6002
E7F2
E80A
E9CA
E9EA
E9EA
E9EA
E9EA
E9EA
E9CA
E80A
E7F2
E002
E004
FFF8
F008
33E8
3008
3FF0
3FE0
ENDCHAR
STARTCHAR dlinebelow
ENCODING 7695
SWIDTH 846 0
DWIDTH 17 0
BBX 15 21 1 -6
BITMAP
3FFC
6002
E7F2
E80A
E9CA
E9EA
E9EA
E9EA
E9EA
E9EA
E9CA
E80A
E7F2
E002
E004
FFF8
F008
33E8
3008
3FF0
3FE0
ENDCHAR
STARTCHAR Gmacron
ENCODING 7712
SWIDTH 808 0
DWIDTH 16 0
BBX 15 22 1 -2
BITMAP
07F8
0804
19E4
3804
3808
3FF8
3004
21E4
6404
C9F8
C9E0
C93C
C942
C9CA
C9CA
C8CA
E40A
E3F2
E002
FC06
7FF8
3FF0
ENDCHAR
STARTCHAR gmacron
ENCODING 7713
SWIDTH 808 0
DWIDTH 16 0
BBX 15 22 1 -2
BITMAP
07F8
0804
19E4
3804
3808
3FF8
3004
21E4
6404
C9F8
C9E0
C93C
C942
C9CA
C9CA
C8CA
E40A
E3F2
E002
FC06
7FF8
3FF0
ENDCHAR
STARTCHAR Hdotbelow
ENCODING 7716
SWIDTH 859 0
DWIDTH 17 0
BBX 15 22 1 -7
BITMAP
3F3E
6162
E9EA
E9EA
E9EA
E9EA
E80A
E7FA
E80A
E80A
E9EA
E9EA
E9EA
E1E2
E3E2
FDFC
FA18
0E90
0E10
0E30
0FC0
0F80
ENDCHAR
STARTCHAR hdotbelow
ENCODING 7717
SWIDTH 859 0
DWIDTH 17 0
BBX 15 22 1 -7
BITMAP
3F3E
6162
E9EA
E9EA
E9EA
E9EA
E80A
E7FA
E80A
E80A
E9EA
E9EA
E9EA
E1E2
E3E2
FDFC
FA18
0E90
0E10
0E30
0FC0
0F80
ENDCHAR
STARTCHAR Hbrevebelow
ENCODING 7722
SWIDTH 859 0
DWIDTH 17 0
BBX 15 22 1 -7
BITMAP
3F3E
6162
E9EA
E9EA
E9EA
E80A
E80A
E7FA
E80A
E9EA
E9EA
E9EA
E9EA
E1E2
E1E2
FFFC
F8C4
3A14
39E8
3C10
3FE0
1F80
ENDCHAR
STARTCHAR hbrevebelow
ENCODING 7723
SWIDTH 859 0
DWIDTH 17 0
BBX 15 22 1 -7
BITMAP
3F3E
6162
E9EA
E9EA
E9EA
E80A
E80A
E7FA
E80A
E9EA
E9EA
E9EA
E9EA
E1E2
E1E2
FFFC
F8C4
3A14
39E8
3C10
3FE0
1F80
ENDCHAR
STARTCHAR Ldotbelow
ENCODING 7734
SWIDTH 795 0
DWIDTH 16 0
BBX 15 22 1 -7
BITMAP
3F00
6100
E900
E900
E900
E900
E93C
E942
E9CA
E9CA
E9CA
E80A
E7F2
E002
E002
FFFC
FC10
0CA0
1C20
1E20
1FC0
0F80
ENDCHAR
STARTCHAR ldotbelow
ENCODING 7735
SWIDTH 795 0
DWIDTH 16 0
BBX 15 22 1 -7
BITMAP
3F00
6100
E900
E900
E900
E900
E93C
E942
E9CA
E9CA
E9CA
E80A
E7F2
E002
E002
FFFC
FC10
0CA0
1C20
1E20
1FC0
0F80
ENDCHAR
STARTCHAR Ldotbelowmacron
ENCODING 7736
SWIDTH 795 0
DWIDTH 16 0
BBX 15 27 1 -7
BITMAP
0FF0
1008
33E8
7008
7008
7FF0
61C0
E900
E900
E900
E900
E93C
E942
E9CA
E9CA
E9CA
E80A
E7F2
E002
E002
FFFC
FC10
0CA0
1C20
1E20
1FC0
0F80
ENDCHAR
STARTCHAR ldotbelowmacron
ENCODING 7737
SWIDTH 795 0
DWIDTH 16 0
BBX 15 27 1 -7
BITMAP
0FF0
1008
33E8
7008
7008
7FF0
61C0
E900
E900
E900
E900
E93C
E942
E9CA
E9CA
E9CA
E80A
E7F2
E002
E002
FFFC
FC10
0CA0
1C20
1E20
1FC0
0F80
ENDCHAR
STARTCHAR Llinebelow
ENCODING 7738
SWIDTH 795 0
DWIDTH 16 0
BBX 15 21 1 -6
BITMAP
3F00
6100
E900
E900
E900
E900
E93C
E942
E9CA
E9CA
E9CA
E80A
E7F2
E002
FFFC
F008
F3E8
3008
7018
7FE0
7FC0
ENDCHAR
STARTCHAR llinebelow
ENCODING 7739
SWIDTH 795 0
DWIDTH 16 0
BBX 15 21 1 -6
BITMAP
3F00
6100
E900
E900
E900
E900
E93C
E942
E9CA
E9CA
E9CA
E80A
E7F2
E002
FFFC
F008
F3E8
3008
7018
7FE0
7FC0
ENDCHAR
STARTCHAR Mdotbelow
ENCODING 7746
SWIDTH 949 0
DWIDTH 19 0
BBX 17 22 1 -7
BITMAP
3F0F80
609080
E4A480
EA6A80
E91280
E89280
E96A80
E90A80
E91280
E9F280
E9F280
E9B280
E93280
E13080
E23880
FDFF00
FA0E00
064800
060800
071000
07E000
07C000
ENDCHAR
STARTCHAR mdotbelow
ENCODING 7747
SWIDTH 949 0
DWIDTH 19 0
BBX 17 22 1 -7
BITMAP
3F0F80
609080
E4A480
EA6A80
E91280
E89280
E96A80
E90A80
E91280
E9F280
E9F280
E9B280
E93280
E13080
E23880
FDFF00
FA0E00
064800
060800
071000
07E000
07C000
ENDCHAR
STARTCHAR Ndotaccent
ENCODING 7748
SWIDTH 853 0
DWIDTH 17 0
BBX 15 22 1 -2
BITMAP
01E0
0610
0E90
0E10
0E10
33EE
61E2
E4EA
EA6A
E92A
E88A
E84A
E94A
E92A
E99A
E9CA
E9EA
E9EA
E1E2
E3E2
FCFC
F8F8
ENDCHAR
STARTCHAR ndotaccent
ENCODING 7749
SWIDTH 853 0
DWIDTH 17 0
BBX 15 22 1 -2
BITMAP
01E0
0610
0E90
0E10
0E10
33EE
61E2
E4EA
EA6A
E92A
E88A
E84A
E94A
E92A
E99A
E9CA
E9EA
E9EA
E1E2
E3E2
FCFC
F8F8
ENDCHAR
STARTCHAR Ndotbelow
ENCODING 7750
SWIDTH 853 0
DWIDTH 17 0
BBX 15 22 1 -7
BITMAP
3E3E
6162
E4EA
EA6A
E92A
E88A
E84A
E94A
E92A
E99A
E9CA
E9EA
E9EA
E1E2
E3E2
FDFC
FA18
0E90
0E10
0E20
0FC0
0F80
ENDCHAR
STARTCHAR ndotbelow
ENCODING 7751
SWIDTH 853 0
DWIDTH 17 0
BBX 15 22 1 -7
BITMAP
3E3E
6162
E4EA
EA6A
E92A
E88A
E84A
E94A
E92A
E99A
E9CA
E9EA
E9EA
E1E2
E3E2
FDFC
FA18
0E90
0E10
0E20
0FC0
0F80
ENDCHAR
STARTCHAR Nlinebelow
ENCODING 7752
SWIDTH 853 0
DWIDTH 17 0
BBX 15 21 1 -6
BITMAP
3E3E
6162
E4EA
EA6A
E92A
E88A
E84A
E94A
E92A
E99A
E9CA
E9EA
E9EA
E1E2
E1E2
FFFC
FBE4
3804
3808
3FF0
3FE0
ENDCHAR
STARTCHAR nlinebelow
ENCODING 7753
SWIDTH 853 0
DWIDTH 17 0
BBX 15 21 1 -6
BITMAP
3E3E
6162
E4EA
EA6A
E92A
E88A
E84A
E94A
E92A
E99A
E9CA
E9EA
E9EA
E1E2
E1E2
FFFC
FBE4
3804
3808
3FF0
3FE0
ENDCHAR
STARTCHAR Rdotbelow
ENCODING 7770
SWIDTH 843 0
DWIDTH 17 0
BBX 16 22 1 -7
BITMAP
3FF8
6004
E7E4
E812
E9D2
E9D2
E994
E812
E7F1
E809
E9E5
E9E5
E9E5
E1E1
E3E3
FDFC
FA18
0650
0E10
0E30
0FC0
0F80
ENDCHAR
STARTCHAR rdotbelow
ENCODING 7771
SWIDTH 843 0
DWIDTH 17 0
BBX 16 22 1 -7
BITMAP
3FF8
6004
E7E4
E812
E9D2
E9D2
E994
E812
E7F1
E809
E9E5
E9E5
E9E5
E1E1
E3E3
FDFC
FA18
0650
0E10
0E30
0FC0
0F80
ENDCHAR
STARTCHAR Rdotbelowmacron
ENCODING 7772
SWIDTH 843 0
DWIDTH 17 0
BBX 16 27 1 -7
BITMAP
0FF0
1008
37C8
7008
7008
7FF0
600C
67E4
E812
E9D2
E9D2
E994
E812
E7F1
E809
E9E5
E9E5
E9E5
E1E1
E3E3
FDFC
FA18
0650
0E10
0E30
0FC0
0F80
ENDCHAR
STARTCHAR rdotbelowmacron
ENCODING 7773
SWIDTH 843 0
DWIDTH 17 0
BBX 16 27 1 -7
BITMAP
0FF0
1008
37C8
7008
7008
7FF0
600C
67E4
E812
E9D2
E9D2
E994
E812
E7F1
E809
E9E5
E9E5
E9E5
E1E1
E3E3
FDFC
FA18
0650
0E10
0E30
0FC0
0F80
ENDCHAR
STARTCHAR Rlinebelow
ENCODING 7774
SWIDTH 843 0
DWIDTH 17 0
BBX 16 21 1 -6
BITMAP
3FF8
67E4
E812
E992
E9D2
E9D4
E814
E7F2
E809
E805
E9E5
E9E5
E9E5
E1E1
E1E3
FFFC
FBE4
3804
3808
3FF0
3FE0
ENDCHAR
STARTCHAR rlinebelow
ENCODING 7775
SWIDTH 843 0
DWIDTH 17 0
BBX 16 21 1 -6
BITMAP
3FF8
67E4
E812
E992
E9D2
E9D4
E814
E7F2
E809
E805
E9E5
E9E5
E9E5
E1E1
E1E3
FFFC
FBE4
3804
3808
3FF0
3FE0
ENDCHAR
STARTCHAR Sdotaccent
ENCODING 7776
SWIDTH 750 0
DWIDTH 15 0
BBX 14 22 1 -2
BITMAP
03C0
0420
1D20
1C20
1C20
13D8
2008
27E8
C808
C9F0
C870
CC08
E3C4
F024
FF14
FF94
4014
CFE4
C008
E010
FFE0
FF80
ENDCHAR
STARTCHAR sdotaccent
ENCODING 7777
SWIDTH 750 0
DWIDTH 15 0
BBX 14 22 1 -2
BITMAP
03C0
0420
1D20
1C20
1C20
13D8
2008
27E8
C808
C9F0
C870
CC08
E3C4
F024
FF14
FF94
4014
CFE4
C008
E010
FFE0
FF80
ENDCHAR
STARTCHAR Sdotbelow
ENCODING 7778
SWIDTH 750 0
DWIDTH 15 0
BBX 14 22 1 -7
BITMAP
1FF8
2008
47E8
C808
C9F0
C870
CC08
E3C4
F024
FF14
FF94
4014
CFE4
C008
C010
FFE0
FC20
1D20
1C20
1C60
1F80
1F00
ENDCHAR
STARTCHAR sdotbelow
ENCODING 7779
SWIDTH 750 0
DWIDTH 15 0
BBX 14 22 1 -7
BITMAP
1FF8
2008
47E8
C808
C9F0
C870
CC08
E3C4
F024
FF14
FF94
4014
CFE4
C008
C010
FFE0
FC20
1D20
1C20
1C60
1F80
1F00
ENDCHAR
STARTCHAR Tdotbelow
ENCODING 7788
SWIDTH 756 0
DWIDTH 15 0
BBX 15 22 0 -7
BITMAP
3FFE
6002
E7FA
E082
FE9C
FE98
0E90
0E90
0E90
0E90
0E90
0E90
0E90
0E10
0E10
0FE0
0E10
0E90
0E10
0E30
0FC0
0F80
ENDCHAR
STARTCHAR tdotbelow
ENCODING 7789
SWIDTH 756 0
DWIDTH 15 0
BBX 15 22 0 -7
BITMAP
3FFE
6002
E7FA
E082
FE9C
FE98
0E90
0E90
0E90
0E90
0E90
0E90
0E90
0E10
0E10
0FE0
0E10
0E90
0E10
0E30
0FC0
0F80
ENDCHAR
STARTCHAR Tlinebelow
ENCODING 7790
SWIDTH 756 0
DWIDTH 15 0
BBX 15 21 0 -6
BITMAP
3FFE
67FA
E082
E082
FE9C
FE98
0E90
0E90
0E90
0E90
0E90
0E90
0E90
0E10
0E10
0FF8
1BE4
3804
3808
3FF0
3FE0
ENDCHAR
STARTCHAR tlinebelow
ENCODING 7791
SWIDTH 756 0
DWIDTH 15 0
BBX 15 21 0 -6
BITMAP
3FFE
67FA
E082
E082
FE9C
FE98
0E90
0E90
0E90
0E90
0E90
0E90
0E90
0E10
0E10
0FF8
1BE4
3804
3808
3FF0
3FE0
ENDCHAR
STARTCHAR Wgrave
ENCODING 7808
SWIDTH 931 0
DWIDTH 19 0
BBX 17 22 1 -2
BITMAP
07C000
083C00
19F400
380400
3F8400
21FB80
61F080
E93280
E93280
E93280
E9F280
E91280
E94A80
E8A280
E91280
E55280
E64A80
E26500
F0E100
71E300
7EFC00
7CF800
ENDCHAR
STARTCHAR wgrave
ENCODING 7809
SWIDTH 931 0
DWIDTH 19 0
BBX 17 22 1 -2
BITMAP
07C000
083C00
19F400
380400
3F8400
21FB80
61F080
E93280
E93280
E93280
E9F280
E91280
E94A80
E8A280
E91280
E55280
E64A80
E26500
F0E100
71E300
7EFC00
7CF800
ENDCHAR
STARTCHAR Wacute
ENCODING 7810
SWIDTH 931 0
DWIDTH 19 0
BBX 17 22 1 -2
BITMAP
007C00
078200
0DF200
1C0200
1C3C00
23F780
611080
E93280
E93280
E93280
E9F280
E91280
E94A80
E8A280
E91280
E55280
E64A80
E26500
F0E100
71E300
7EFC00
7CF800
ENDCHAR
STARTCHAR wacute
ENCODING 7811
SWIDTH 931 0
DWIDTH 19 0
BBX 17 22 1 -2
BITMAP
007C00
078200
0DF200
1C0200
1C3C00
23F780
611080
E93280
E93280
E93280
E9F280
E91280
E94A80
E8A280
E91280
E55280
E64A80
E26500
F0E100
71E300
7EFC00
7CF800
ENDCHAR
STARTCHAR Wdieresis
ENCODING 7812
SWIDTH 931 0
DWIDTH 19 0
BBX 17 22 1 -2
BITMAP
07BC00
084200
1A4A00
384200
384200
3FFF80
21F080
613080
E93280
E93280
E9F280
E91280
E94A80
E8A280
E91280
E95280
E64A80
E26500
F0E100
F1E300
7EFC00
7CF800
ENDCHAR
STARTCHAR wdieresis
ENCODING 7813
SWIDTH 931 0
DWIDTH 19 0
BBX 17 22 1 -2
BITMAP
07BC00
084200
1A4A00
384200
384200
3FFF80
21F080
613080
E93280
E93280
E9F280
E91280
E94A80
E8A280
E91280
E95280
E64A80
E26500
F0E100
F1E300
7EFC00
7CF800
ENDCHAR
STARTCHAR Ydotaccent
ENCODING 7822
SWIDTH 805 0
DWIDTH 16 0
BBX 16 22 0 -2
BITMAP
01E0
0210
0650
0E10
0E10
11EF
20E1
6161
E4E5
E4E5
E4E5
E449
F212
7914
7CE4
3C48
1E50
1E50
0E10
0E10
0FE0
0F80
ENDCHAR
STARTCHAR ydotaccent
ENCODING 7823
SWIDTH 805 0
DWIDTH 16 0
BBX 16 22 0 -2
BITMAP
01E0
0210
0650
0E10
0E10
11EF
20E1
6161
E4E5
E4E5
E4E5
E449
F212
7914
7CE4
3C48
1E50
1E50
0E10
0E10
0FE0
0F80
ENDCHAR
STARTCHAR Zdotbelow
ENCODING 7826
SWIDTH 760 0
DWIDTH 15 0
BBX 15 22 0 -7
BITMAP
1FFE
3002
77F2
7012
7F92
7E24
0248
0490
0920
1120
227C
6402
63FA
E002
E002
FFFC
FE10
0E50
0E10
0E30
0FC0
0F80
ENDCHAR
STARTCHAR zdotbelow
ENCODING 7827
SWIDTH 760 0
DWIDTH 15 0
BBX 15 22 0 -7
BITMAP
1FFE
3002
77F2
7012
7F92
7E24
0248
0490
0920
1120
227C
6402
63FA
E002
E002
FFFC
FE10
0E50
0E10
0E30
0FC0
0F80
ENDCHAR
STARTCHAR tdieresis
ENCODING 7831
SWIDTH 756 0
DWIDTH 15 0
BBX 15 22 0 -2
BITMAP
0F78
1084
3294
7084
70C4
6F3A
6002
E7FA
E082
FE9C
FE98
0E90
0E90
0E90
0E90
0E90
0E90
0E90
0E10
0E30
0FC0
0F80
ENDCHAR
STARTCHAR Germandbls
ENCODING 7838
SWIDTH 859 0
DWIDTH 17 0
BBX 16 17 1 -2
BITMAP
3FF8
6004
E7E4
E414
E594
E594
E5A2
E5B9
E505
E5E5
E5E5
E505
E539
E101
E186
FFF8
FBF0
ENDCHAR
STARTCHAR Adotbelow
ENCODING 7840
SWIDTH 830 0
DWIDTH 17 0
BBX 15 22 1 -7
BITMAP
0FF8
0808
11C4
3224
3494
64D2
65CA
E80A
C80A
CFFA
C80A
C9CA
C9CA
C2C2
E2E2
FFFC
F410
0CA0
0C20
0E20
0FC0
0F80
ENDCHAR
STARTCHAR adotbelow
ENCODING 7841
SWIDTH 830 0
DWIDTH 17 0
BBX 15 22 1 -7
BITMAP
0FF8
0808
11C4
3224
3494
64D2
65CA
E80A
C80A
CFFA
C80A
C9CA
C9CA
C2C2
E2E2
FFFC
F410
0CA0
0C20
0E20
0FC0
0F80
ENDCHAR
STARTCHAR Ahookabove
ENCODING 7842
SWIDTH 830 0
DWIDTH 17 0
BBX 15 24 1 -2
BITMAP
03E0
0410
0DD0
1DB0
1E30
1FD0
0FE0
0818
0808
11C4
3224
3494
64D2
65CA
E80A
C80A
CFFA
C80A
C9CA
C9CA
C2C2
E2E2
FCFC
F0F0
ENDCHAR
STARTCHAR ahookabove
ENCODING 7843
SWIDTH 830 0
DWIDTH 17 0
BBX 15 24 1 -2
BITMAP
03E0
0410
0DD0
1DB0
1E30
1FD0
0FE0
0818
0808
11C4
3224
3494
64D2
65CA
E80A
C80A
CFFA
C80A
C9CA
C9CA
C2C2
E2E2
FCFC
F0F0
ENDCHAR
STARTCHAR Acircumflexacute
ENCODING 7844
SWIDTH 830 0
DWIDTH 17 0
BBX 15 27 1 -2
BITMAP
001C
0064
0094
0184
0188
0670
09C8
1228
3088
3FF8
3808
3808
11C4
3224
2494
64D2
65CA
C80A
C80A
CFFA
C80A
C9CA
C9CA
C2C2
E2E2
FCFC
F0F0
ENDCHAR
STARTCHAR acircumflexacute
ENCODING 7845
SWIDTH 830 0
DWIDTH 17 0
BBX 15 27 1 -2
BITMAP
001C
0064
0094
0184
0188
0670
09C8
1228
3088
3FF8
3808
3808
11C4
3224
2494
64D2
65CA
C80A
C80A
CFFA
C80A
C9CA
C9CA
C2C2
E2E2
FCFC
F0F0
ENDCHAR
STARTCHAR Acircumflexgrave
ENCODING 7846
SWIDTH 830 0
DWIDTH 17 0
BBX 15 26 1 -2
BITMAP
00F8
01A4
0394
0384
0678
09C8
1228
3088
3FF8
3808
3808
11C4
3224
2494
64D2
65CA
C80A
C80A
CFFA
C80A
C9CA
C9CA
C2C2
E2E2
FCFC
F0F0
ENDCHAR
STARTCHAR acircumflexgrave
ENCODING 7847
SWIDTH 830 0
DWIDTH 17 0
BBX 15 26 1 -2
BITMAP
00F8
01A4
0394
0384
0678
09C8
1228
3088
3FF8
3808
3808
11C4
3224
2494
64D2
65CA
C80A
C80A
CFFA
C80A
C9CA
C9CA
C2C2
E2E2
FCFC
F0F0
ENDCHAR
STARTCHAR Acircumflexhookabove
ENCODING 7848
SWIDTH 830 0
DWIDTH 17 0
BBX 15 28 1 -2
BITMAP
007C
00BE
018E
01F6
01DA
01C6
0638
09C8
1228
3088
3FF8
3808
3808
11C4
3224
2494
64D2
65CA
C80A
C80A
CFFA
C80A
C9CA
C9CA
C2C2
E2E2
FCFC
F0F0
ENDCHAR
STARTCHAR acircumflexhookabove
ENCODING 7849
SWIDTH 830 0
DWIDTH 17 0
BBX 15 28 1 -2
BITMAP
007C
00BE
018E
01F6
01DA
01C6
0638
09C8
1228
3088
3FF8
3808
3808
11C4
3224
2494
64D2
65CA
C80A
C80A
CFFA
C80A
C9CA
C9CA
C2C2
E2E2
FCFC
F0F0
ENDCHAR
STARTCHAR Acircumflextilde
ENCODING 7850
SWIDTH 830 0
DWIDTH 17 0
BBX 15 27 1 -2
BITMAP
07F8
0808
13E8
3008
3FF0
3C10
29C8
1228
3088
3FF8
3808
3808
11C4
3224
2494
64D2
65CA
C80A
C80A
CFFA
C80A
C9CA
C9CA
C2C2
E2E2
FCFC
F0F0
ENDCHAR
STARTCHAR acircumflextilde
ENCODING 7851
SWIDTH 830 0
DWIDTH 17 0
BBX 15 27 1 -2
BITMAP
07F8
0808
13E8
3008
3FF0
3C10
29C8
1228
3088
3FF8
3808
3808
11C4
3224
2494
64D2
65CA
C80A
C80A
CFFA
C80A
C9CA
C9CA
C2C2
E2E2
FCFC
F0F0
ENDCHAR
STARTCHAR Acircumflexdotbelow
ENCODING 7852
SWIDTH 830 0
DWIDTH 17 0
BBX 15 28 1 -7
BITMAP
01C0
0630
09C8
1228
3088
3FF8
3808
3808
11C4
3224
2494
64D2
65CA
C80A
C80A
CFFA
C80A
C9CA
C9CA
C2C2
E2E2
FFFC
F410
0CA0
0C20
0E20
0FC0
0F80
ENDCHAR
STARTCHAR acircumflexdotbelow
ENCODING 7853
SWIDTH 830 0
DWIDTH 17 0
BBX 15 28 1 -7
BITMAP
01C0
0630
09C8
1228
3088
3FF8
3808
3808
11C4
3224
2494
64D2
65CA
C80A
C80A
CFFA
C80A
C9CA
C9CA
C2C2
E2E2
FFFC
F410
0CA0
0C20
0E20
0FC0
0F80
ENDCHAR
STARTCHAR Abreveacute
ENCODING 7854
SWIDTH 830 0
DWIDTH 17 0
BBX 15 27 1 -2
BITMAP
0070
01B0
0350
0710
0F38
11C4
34D4
3218
79E8
3C10
3FF0
3808
11C8
3224
3494
64D2
65CA
E80A
C80A
CFFA
C80A
C9CA
C9CA
C2C2
E2E2
FCFC
F0F0
ENDCHAR
STARTCHAR abreveacute
ENCODING 7855
SWIDTH 830 0
DWIDTH 17 0
BBX 15 27 1 -2
BITMAP
0070
01B0
0350
0710
0F38
11C4
34D4
3218
79E8
3C10
3FF0
3808
11C8
3224
3494
64D2
65CA
E80A
C80A
CFFA
C80A
C9CA
C9CA
C2C2
E2E2
FCFC
F0F0
ENDCHAR
STARTCHAR Abrevegrave
ENCODING 7856
SWIDTH 830 0
DWIDTH 17 0
BBX 15 27 1 -2
BITMAP
0780
0CC0
1D40
1C40
1E78
11C4
34D4
3218
79E8
3C10
3FF0
3808
11C8
3224
3494
64D2
65CA
E80A
C80A
CFFA
C80A
C9CA
C9CA
C2C2
E2E2
FCFC
F0F0
ENDCHAR
STARTCHAR abrevegrave
ENCODING 7857
SWIDTH 830 0
DWIDTH 17 0
BBX 15 27 1 -2
BITMAP
0780
0CC0
1D40
1C40
1E78
11C4
34D4
3218
79E8
3C10
3FF0
3808
11C8
3224
3494
64D2
65CA
E80A
C80A
CFFA
C80A
C9CA
C9CA
C2C2
E2E2
FCFC
F0F0
ENDCHAR
STARTCHAR Abrevehookabove
ENCODING 7858
SWIDTH 830 0
DWIDTH 17 0
BBX 15 29 1 -2
BITMAP
03F0
0408
0DE8
0FD8
0EE8
0610
0FF8
11C4
34D4
3218
79E8
3C10
3FF0
3808
11C8
3224
3494
64D2
65CA
E80A
C80A
CFFA
C80A
C9CA
C9CA
C2C2
E2E2
FCFC
F0F0
ENDCHAR
STARTCHAR abrevehookabove
ENCODING 7859
SWIDTH 830 0
DWIDTH 17 0
BBX 15 29 1 -2
BITMAP
03F0
0408
0DE8
0FD8
0EE8
0610
0FF8
11C4
34D4
3218
79E8
3C10
3FF0
3808
11C8
3224
3494
64D2
65CA
E80A
C80A
CFFA
C80A
C9CA
C9CA
C2C2
E2E2
FCFC
F0F0
ENDCHAR
STARTCHAR Abrevetilde
ENCODING 7860
SWIDTH 830 0
DWIDTH 17 0
BBX 15 27 1 -2
BITMAP
07F8
0808
13E8
3208
3FF8
31C4
34D4
3218
79E8
3C10
3FF0
3808
11C8
3224
3494
64D2
65CA
E80A
C80A
CFFA
C80A
C9CA
C9CA
C2C2
E2E2
FCFC
F0F0
ENDCHAR
STARTCHAR abrevetilde
ENCODING 7861
SWIDTH 830 0
DWIDTH 17 0
BBX 15 27 1 -2
BITMAP
07F8
0808
13E8
3208
3FF8
31C4
34D4
3218
79E8
3C10
3FF0
3808
11C8
3224
3494
64D2
65CA
E80A
C80A
CFFA
C80A
C9CA
C9CA
C2C2
E2E2
FCFC
F0F0
ENDCHAR
STARTCHAR Abrevedotbelow
ENCODING 7862
SWIDTH 830 0
DWIDTH 17 0
BBX 15 28 1 -7
BITMAP
0E38
1144
34D4
3218
79E8
3C10
3FF0
3808
11C8
3224
3494
64D2
65CA
E80A
C80A
CFFA
C80A
C9CA
C9CA
C2C2
E2E2
FFFC
F410
0CA0
0C20
0E20
0FC0
0F80
ENDCHAR
STARTCHAR abrevedotbelow
ENCODING 7863
SWIDTH 830 0
DWIDTH 17 0
BBX 15 28 1 -7
BITMAP
0E38
1144
34D4
3218
79E8
3C10
3FF0
3808
11C8
3224
3494
64D2
65CA
E80A
C80A
CFFA
C80A
C9CA
C9CA
C2C2
E2E2
FFFC
F410
0CA0
0C20
0E20
0FC0
0F80
ENDCHAR
STARTCHAR Edotbelow
ENCODING 7864
SWIDTH 754 0
DWIDTH 15 0
BBX 14 22 1 -7
BITMAP
3FFC
6004
E7F4
E804
E9F8
E9F0
E810
E7D0
E810
E9E0
E9F8
E804
E7F4
E004
E004
FFF8
FC20
1CA0
1C20
1C60
1F80
1F00
ENDCHAR
STARTCHAR edotbelow
ENCODING 7865
SWIDTH 754 0
DWIDTH 15 0
BBX 14 22 1 -7
BITMAP
3FFC
6004
E7F4
E804
E9F8
E9F0
E810
E7D0
E810
E9E0
E9F8
E804
E7F4
E004
E004
FFF8
FC20
1CA0
1C20
1C60
1F80
1F00
ENDCHAR
STARTCHAR Ehookabove
ENCODING 7866
SWIDTH 754 0
DWIDTH 15 0
BBX 14 24 1 -2
BITMAP
07C0
0820
1B90
39D0
3E50
3DA0
1FC0
203C
6004
E7F4
E804
E9F8
E9F0
E810
E7D0
E810
E9E0
E9F8
E804
E7F4
E004
E00C
FFF0
FFE0
ENDCHAR
STARTCHAR ehookabove
ENCODING 7867
SWIDTH 754 0
DWIDTH 15 0
BBX 14 24 1 -2
BITMAP
07C0
0820
1B90
39D0
3E50
3DA0
1FC0
203C
6004
E7F4
E804
E9F8
E9F0
E810
E7D0
E810
E9E0
E9F8
E804
E7F4
E004
E00C
FFF0
FFE0
ENDCHAR
STARTCHAR Etilde
ENCODING 7868
SWIDTH 754 0
DWIDTH 15 0
BBX 14 22 1 -2
BITMAP
0FF0
1008
3388
7048
7710
68EC
6004
E7F4
E804
E9F8
E9F0
E810
E7D0
E810
E9E0
E9F8
E804
E7F4
E004
E00C
FFF0
FFE0
ENDCHAR
STARTCHAR etilde
ENCODING 7869
SWIDTH 754 0
DWIDTH 15 0
BBX 14 22 1 -2
BITMAP
0FF0
1008
3388
7048
7710
68EC
6004
E7F4
E804
E9F8
E9F0
E810
E7D0
E810
E9E0
E9F8
E804
E7F4
E004
E00C
FFF0
FFE0
ENDCHAR
STARTCHAR Ecircumflexacute
ENCODING 7870
SWIDTH 754 0
DWIDTH 15 0
BBX 14 27 1 -2
BITMAP
0018
0064
01B4
0384
0398
0460
1BD8
3008
7188
7FF0
600C
6004
E7F4
E804
E9F8
E9F0
E810
E7D0
E810
E9E0
E9F8
E804
E7F4
E004
E00C
FFF0
FFE0
ENDCHAR
STARTCHAR ecircumflexacute
ENCODING 7871
SWIDTH 754 0
DWIDTH 15 0
BBX 14 27 1 -2
BITMAP
0018
0064
01B4
0384
0398
0460
1BD8
3008
7188
7FF0
600C
6004
E7F4
E804
E9F8
E9F0
E810
E7D0
E810
E9E0
E9F8
E804
E7F4
E004
E00C
FFF0
FFE0
ENDCHAR
STARTCHAR Ecircumflexgrave
ENCODING 7872
SWIDTH 754 0
DWIDTH 15 0
BBX 14 26 1 -2
BITMAP
00F0
0108
0328
0388
0478
1BC8
3008
7188
7FF0
600C
6004
E7F4
E804
E9F8
E9F0
E810
E7D0
E810
E9E0
E9F8
E804
E7F4
E004
E00C
FFF0
FFE0
ENDCHAR
STARTCHAR ecircumflexgrave
ENCODING 7873
SWIDTH 754 0
DWIDTH 15 0
BBX 14 26 1 -2
BITMAP
00F0
0108
0328
0388
0478
1BC8
3008
7188
7FF0
600C
6004
E7F4
E804
E9F8
E9F0
E810
E7D0
E810
E9E0
E9F8
E804
E7F4
E004
E00C
FFF0
FFE0
ENDCHAR
STARTCHAR Ecircumflexhookabove
ENCODING 7874
SWIDTH 754 0
DWIDTH 15 0
BBX 15 28 1 -2
BITMAP
007C
00BA
0396
03E6
03DA
01C4
0E38
13C8
3008
7188
7FF0
600C
6004
E7F4
E804
E9F8
E9F0
E810
E7D0
E810
E9E0
E9F8
E804
E7F4
E004
E00C
FFF0
FFE0
ENDCHAR
STARTCHAR ecircumflexhookabove
ENCODING 7875
SWIDTH 754 0
DWIDTH 15 0
BBX 15 28 1 -2
BITMAP
007C
00BA
0396
03E6
03DA
01C4
0E38
13C8
3008
7188
7FF0
600C
6004
E7F4
E804
E9F8
E9F0
E810
E7D0
E810
E9E0
E9F8
E804
E7F4
E004
E00C
FFF0
FFE0
ENDCHAR
STARTCHAR Ecircumflextilde
ENCODING 7876
SWIDTH 754 0
DWIDTH 15 0
BBX 14 27 1 -2
BITMAP
0FF0
1008
33C8
7008
7FF0
7C30
53C8
3008
7188
7FF0
600C
6004
E7F4
E804
E9F8
E9F0
E810
E7D0
E810
E9E0
E9F8
E804
E7F4
E004
E00C
FFF0
FFE0
ENDCHAR
STARTCHAR ecircumflextilde
ENCODING 7877
SWIDTH 754 0
DWIDTH 15 0
BBX 14 27 1 -2
BITMAP
0FF0
1008
33C8
7008
7FF0
7C30
53C8
3008
7188
7FF0
600C
6004
E7F4
E804
E9F8
E9F0
E810
E7D0
E810
E9E0
E9F8
E804
E7F4
E004
E00C
FFF0
FFE0
ENDCHAR
STARTCHAR Ecircumflexdotbelow
ENCODING 7878
SWIDTH 754 0
DWIDTH 15 0
BBX 14 28 1 -7
BITMAP
03C0
0C30
13C8
3008
7188
7FF0
600C
6004
E7F4
E804
E9F8
E9F0
E810
E7D0
E810
E9E0
E9F8
E804
E7F4
E004
E004
FFF8
FC20
1D20
1C20
1C40
1F80
1F00
ENDCHAR
STARTCHAR ecircumflexdotbelow
ENCODING 7879
SWIDTH 754 0
DWIDTH 15 0
BBX 14 28 1 -7
BITMAP
03C0
0C30
13C8
3008
7188
7FF0
600C
6004
E7F4
E804
E9F8
E9F0
E810
E7D0
E810
E9E0
E9F8
E804
E7F4
E004
E004
FFF8
FC20
1D20
1C20
1C40
1F80
1F00
ENDCHAR
STARTCHAR Ihookabove
ENCODING 7880
SWIDTH 705 0
DWIDTH 14 0
BBX 13 24 1 -2
BITMAP
0FC0
1020
37A0
3B60
3C40
3BA0
1FC0
2078
4008
CFE8
C108
F930
F940
3940
3940
3940
3940
3930
4108
CFE8
C008
E018
FFE0
FFC0
ENDCHAR
STARTCHAR ihookabove
ENCODING 7881
SWIDTH 705 0
DWIDTH 14 0
BBX 13 24 1 -2
BITMAP
0FC0
1020
37A0
3B60
3C40
3BA0
1FC0
2078
4008
CFE8
C108
F930
F940
3940
3940
3940
3940
3930
4108
CFE8
C008
E018
FFE0
FFC0
ENDCHAR
STARTCHAR Idotbelow
ENCODING 7882
SWIDTH 705 0
DWIDTH 14 0
BBX 13 22 1 -7
BITMAP
3FF8
4008
CFE8
C108
F930
F940
3940
3940
3940
3940
3930
4108
CFE8
C008
C008
FFF0
F840
1940
3840
3840
3F80
3E00
ENDCHAR
STARTCHAR idotbelow
ENCODING 7883
SWIDTH 705 0
DWIDTH 14 0
BBX 13 22 1 -7
BITMAP
3FF8
4008
CFE8
C108
F930
F940
3940
3940
3940
3940
3930
4108
CFE8
C008
C008
FFF0
F840
1940
3840
3840
3F80
3E00
ENDCHAR
STARTCHAR Odotbelow
ENCODING 7884
SWIDTH 837 0
DWIDTH 17 0
BBX 15 22 1 -7
BITMAP
0FF8
1004
23E2
641A
C9CA
C9CA
C9CA
C9CA
C9CA
C9CA
C9CA
C80A
E41A
E3E2
F004
FFF8
7C10
0C90
0C10
0C10
0FE0
0F80
ENDCHAR
STARTCHAR odotbelow
ENCODING 7885
SWIDTH 837 0
DWIDTH 17 0
BBX 15 22 1 -7
BITMAP
0FF8
1004
23E2
641A
C9CA
C9CA
C9CA
C9CA
C9CA
C9CA
C9CA
C80A
E41A
E3E2
F004
FFF8
7C10
0C90
0C10
0C10
0FE0
0F80
ENDCHAR
STARTCHAR Ohookabove
ENCODING 7886
SWIDTH 837 0
DWIDTH 17 0
BBX 15 24 1 -2
BITMAP
03E0
05D0
0C30
1FB0
1EF0
0610
0FF8
1004
23E2
641A
C80A
C9CA
C9CA
C9CA
C9CA
C9CA
C9CA
C9CA
E41A
E3E2
F004
FE18
7FF0
1FC0
ENDCHAR
STARTCHAR ohookabove
ENCODING 7887
SWIDTH 837 0
DWIDTH 17 0
BBX 15 24 1 -2
BITMAP
03E0
05D0
0C30
1FB0
1EF0
0610
0FF8
1004
23E2
641A
C80A
C9CA
C9CA
C9CA
C9CA
C9CA
C9CA
C9CA
E41A
E3E2
F004
FE18
7FF0
1FC0
ENDCHAR
STARTCHAR Ocircumflexacute
ENCODING 7888
SWIDTH 837 0
DWIDTH 17 0
BBX 15 27 1 -2
BITMAP
003C
0064
00D4
01C4
01C8
0630
09E8
1208
33E8
3C18
3004
23E2
641A
C80A
C9CA
C9CA
C9CA
C9CA
C9CA
C9CA
C9CA
E41A
E3E2
F004
FE18
7FF0
1FC0
ENDCHAR
STARTCHAR ocircumflexacute
ENCODING 7889
SWIDTH 837 0
DWIDTH 17 0
BBX 15 27 1 -2
BITMAP
003C
0064
00D4
01C4
01C8
0630
09E8
1208
33E8
3C18
3004
23E2
641A
C80A
C9CA
C9CA
C9CA
C9CA
C9CA
C9CA
C9CA
E41A
E3E2
F004
FE18
7FF0
1FC0
ENDCHAR
STARTCHAR Ocircumflexgrave
ENCODING 7890
SWIDTH 837 0
DWIDTH 17 0
BBX 15 27 1 -2
BITMAP
0040
00B8
01B4
0384
03C4
0438
09E8
1208
33E8
3C18
3004
23E2
641A
C80A
C9CA
C9CA
C9CA
C9CA
C9CA
C9CA
C9CA
E41A
E3E2
F004
FE18
7FF0
1FC0
ENDCHAR
STARTCHAR ocircumflexgrave
ENCODING 7891
SWIDTH 837 0
DWIDTH 17 0
BBX 15 27 1 -2
BITMAP
0040
00B8
01B4
0384
03C4
0438
09E8
1208
33E8
3C18
3004
23E2
641A
C80A
C9CA
C9CA
C9CA
C9CA
C9CA
C9CA
C9CA
E41A
E3E2
F004
FE18
7FF0
1FC0
ENDCHAR
STARTCHAR Ocircumflexhookabove
ENCODING 7892
SWIDTH 837 0
DWIDTH 17 0
BBX 16 28 1 -2
BITMAP
007E
00BD
018B
01F3
01DD
01E6
0618
09E8
1208
33E8
3C18
3004
23E2
641A
C80A
C9CA
C9CA
C9CA
C9CA
C9CA
C9CA
C9CA
E41A
E3E2
F004
FE18
7FF0
1FC0
ENDCHAR
STARTCHAR ocircumflexhookabove
ENCODING 7893
SWIDTH 837 0
DWIDTH 17 0
BBX 16 28 1 -2
BITMAP
007E
00BD
018B
01F3
01DD
01E6
0618
09E8
1208
33E8
3C18
3004
23E2
641A
C80A
C9CA
C9CA
C9CA
C9CA
C9CA
C9CA
C9CA
E41A
E3E2
F004
FE18
7FF0
1FC0
ENDCHAR
STARTCHAR Ocircumflextilde
ENCODING 7894
SWIDTH 837 0
DWIDTH 17 0
BBX 15 27 1 -2
BITMAP
07F8
0808
13E8
3008
3FF0
3C10
29E8
1208
33E8
3C18
3004
23E2
641A
C80A
C9CA
C9CA
C9CA
C9CA
C9CA
C9CA
C9CA
E41A
E3E2
F004
FE18
7FF0
1FC0
ENDCHAR
STARTCHAR ocircumflextilde
ENCODING 7895
SWIDTH 837 0
DWIDTH 17 0
BBX 15 27 1 -2
BITMAP
07F8
0808
13E8
3008
3FF0
3C10
29E8
1208
33E8
3C18
3004
23E2
641A
C80A
C9CA
C9CA
C9CA
C9CA
C9CA
C9CA
C9CA
E41A
E3E2
F004
FE18
7FF0
1FC0
ENDCHAR
STARTCHAR Ocircumflexdotbelow
ENCODING 7896
SWIDTH 837 0
DWIDTH 17 0
BBX 15 28 1 -7
BITMAP
01C0
0630
09C8
1228
3008
33E8
3C18
33E4
6412
E80A
C9CA
C9CA
C9CA
C9CA
C9CA
C9CA
C9CA
C80A
E412
E3E2
F004
FFF8
7C10
0C90
0C10
0E20
0FC0
0F80
ENDCHAR
STARTCHAR ocircumflexdotbelow
ENCODING 7897
SWIDTH 837 0
DWIDTH 17 0
BBX 15 28 1 -7
BITMAP
01C0
0630
09C8
1228
3008
33E8
3C18
33E4
6412
E80A
C9CA
C9CA
C9CA
C9CA
C9CA
C9CA
C9CA
C80A
E412
E3E2
F004
FFF8
7C10
0C90
0C10
0E20
0FC0
0F80
ENDCHAR
STARTCHAR Ohornacute
ENCODING 7898
SWIDTH 847 0
DWIDTH 17 0
BBX 16 22 1 -2
BITMAP
00F0
0F08
17C8
700F
73F9
7C03
23FD
640A
C80A
C9CA
C9CA
C9CA
C9CA
C9CA
C9CA
C9CA
E41A
E3E2
F004
FE18
7FF0
3FC0
ENDCHAR
STARTCHAR ohornacute
ENCODING 7899
SWIDTH 847 0
DWIDTH 17 0
BBX 16 22 1 -2
BITMAP
00F0
0F08
17C8
700F
73F9
7C03
23FD
640A
C80A
C9CA
C9CA
C9CA
C9CA
C9CA
C9CA
C9CA
E41A
E3E2
F004
FE18
7FF0
3FC0
ENDCHAR
STARTCHAR Ohorngrave
ENCODING 7900
SWIDTH 847 0
DWIDTH 17 0
BBX 16 22 1 -2
BITMAP
1FC0
3430
73D0
7017
7FF9
7803
23FD
640A
C80A
C9CA
C9CA
C9CA
C9CA
C9CA
C9CA
C9CA
E41A
E3E2
F004
FE18
7FF0
3FC0
ENDCHAR
STARTCHAR ohorngrave
ENCODING 7901
SWIDTH 847 0
DWIDTH 17 0
BBX 16 22 1 -2
BITMAP
1FC0
3430
73D0
7017
7FF9
7803
23FD
640A
C80A
C9CA
C9CA
C9CA
C9CA
C9CA
C9CA
C9CA
E41A
E3E2
F004
FE18
7FF0
3FC0
ENDCHAR
STARTCHAR Ohornhookabove
ENCODING 7902
SWIDTH 847 0
DWIDTH 17 0
BBX 16 24 1 -2
BITMAP
03E0
05D0
0C30
1FB0
1E30
1FD7
0FF9
1003
23FD
640A
C80A
C9CA
C9CA
C9CA
C9CA
C9CA
C9CA
C9CA
E41A
E3E2
F004
FE18
7FF0
3FC0
ENDCHAR
STARTCHAR ohornhookabove
ENCODING 7903
SWIDTH 847 0
DWIDTH 17 0
BBX 16 24 1 -2
BITMAP
03E0
05D0
0C30
1FB0
1E30
1FD7
0FF9
1003
23FD
640A
C80A
C9CA
C9CA
C9CA
C9CA
C9CA
C9CA
C9CA
E41A
E3E2
F004
FE18
7FF0
3FC0
ENDCHAR
STARTCHAR Ohorntilde
ENCODING 7904
SWIDTH 847 0
DWIDTH 17 0
BBX 16 22 1 -2
BITMAP
0FF0
1008
33C8
700F
77D9
7823
23FD
640A
C80A
C9CA
C9CA
C9CA
C9CA
C9CA
C9CA
C9CA
E41A
E3E2
F004
FE18
7FF0
3FC0
ENDCHAR
STARTCHAR ohorntilde
ENCODING 7905
SWIDTH 847 0
DWIDTH 17 0
BBX 16 22 1 -2
BITMAP
0FF0
1008
33C8
700F
77D9
7823
23FD
640A
C80A
C9CA
C9CA
C9CA
C9CA
C9CA
C9CA
C9CA
E41A
E3E2
F004
FE18
7FF0
3FC0
ENDCHAR
STARTCHAR Ohorndotbelow
ENCODING 7906
SWIDTH 847 0
DWIDTH 17 0
BBX 16 24 1 -7
BITMAP
0007
0019
0FE3
13E5
2419
680A
C9CA
C9CA
C9CA
C9CA
C9CA
C9CA
C9CA
C80A
E412
E3E2
F00C
FFF0
7C10
0C90
0C10
0E20
0FC0
0F80
ENDCHAR
STARTCHAR ohorndotbelow
ENCODING 7907
SWIDTH 847 0
DWIDTH 17 0
BBX 16 24 1 -7
BITMAP
0007
0019
0FE3
13E5
2419
680A
C9CA
C9CA
C9CA
C9CA
C9CA
C9CA
C9CA
C80A
E412
E3E2
F00C
FFF0
7C10
0C90
0C10
0E20
0FC0
0F80
ENDCHAR
STARTCHAR Udotbelow
ENCODING 7908
SWIDTH 846 0
DWIDTH 17 0
BBX 15 22 1 -7
BITMAP
3F3E
6142
E9CA
E9CA
E9CA
E9CA
E9CA
E9CA
E9CA
E9CA
E9CA
E80A
E40A
E3F2
F004
FFF8
3C10
0C90
0C10
0E20
0FC0
0F80
ENDCHAR
STARTCHAR udotbelow
ENCODING 7909
SWIDTH 846 0
DWIDTH 17 0
BBX 15 22 1 -7
BITMAP
3F3E
6142
E9CA
E9CA
E9CA
E9CA
E9CA
E9CA
E9CA
E9CA
E9CA
E80A
E40A
E3F2
F004
FFF8
3C10
0C90
0C10
0E20
0FC0
0F80
ENDCHAR
STARTCHAR Uhookabove
ENCODING 7910
SWIDTH 846 0
DWIDTH 17 0
BBX 15 24 1 -2
BITMAP
03F0
05E8
0C10
0FD8
0E68
0E90
0FE0
31FE
61C2
E9CA
E9CA
E9CA
E9CA
E9CA
E9CA
E9CA
E9CA
E8CA
E40A
E3F2
F004
FE18
7FF0
1FC0
ENDCHAR
STARTCHAR uhookabove
ENCODING 7911
SWIDTH 846 0
DWIDTH 17 0
BBX 15 24 1 -2
BITMAP
03F0
05E8
0C10
0FD8
0E68
0E90
0FE0
31FE
61C2
E9CA
E9CA
E9CA
E9CA
E9CA
E9CA
E9CA
E9CA
E8CA
E40A
E3F2
F004
FE18
7FF0
1FC0
ENDCHAR
STARTCHAR Uhornacute
ENCODING 7912
SWIDTH 856 0
DWIDTH 17 0
BBX 16 22 1 -2
BITMAP
01F0
1E08
37C8
700F
72F9
6DE3
6145
E9C9
E9C9
E9C9
E9C9
E9C9
E9C9
E9C9
E9C9
E8C9
E40A
E3F2
F004
FE18
7FF0
1FC0
ENDCHAR
STARTCHAR uhornacute
ENCODING 7913
SWIDTH 856 0
DWIDTH 17 0
BBX 16 22 1 -2
BITMAP
01F0
1E08
37C8
700F
72F9
6DE3
6145
E9C9
E9C9
E9C9
E9C9
E9C9
E9C9
E9C9
E9C9
E8C9
E40A
E3F2
F004
FE18
7FF0
1FC0
ENDCHAR
STARTCHAR Uhorngrave
ENCODING 7914
SWIDTH 856 0
DWIDTH 17 0
BBX 16 22 1 -2
BITMAP
1F00
30F0
77D0
7017
7F09
61F3
61C5
E9C9
E9C9
E9C9
E9C9
E9C9
E9C9
E9C9
E9C9
E8C9
E40A
E3F2
F004
FE18
7FF0
1FC0
ENDCHAR
STARTCHAR uhorngrave
ENCODING 7915
SWIDTH 856 0
DWIDTH 17 0
BBX 16 22 1 -2
BITMAP
1F00
30F0
77D0
7017
7F09
61F3
61C5
E9C9
E9C9
E9C9
E9C9
E9C9
E9C9
E9C9
E9C9
E8C9
E40A
E3F2
F004
FE18
7FF0
1FC0
ENDCHAR
STARTCHAR Uhornhookabove
ENCODING 7916
SWIDTH 856 0
DWIDTH 17 0
BBX 16 24 1 -2
BITMAP
03E0
05D0
0C28
1FE8
1E28
1ED7
0FF9
31E3
6145
E9C9
E9C9
E9C9
E9C9
E9C9
E9C9
E9C9
E9C9
E8C9
E40A
E3F2
F004
FE18
7FF0
1FC0
ENDCHAR
STARTCHAR uhornhookabove
ENCODING 7917
SWIDTH 856 0
DWIDTH 17 0
BBX 16 24 1 -2
BITMAP
03E0
05D0
0C28
1FE8
1E28
1ED7
0FF9
31E3
6145
E9C9
E9C9
E9C9
E9C9
E9C9
E9C9
E9C9
E9C9
E8C9
E40A
E3F2
F004
FE18
7FF0
1FC0
ENDCHAR
STARTCHAR Uhorntilde
ENCODING 7918
SWIDTH 856 0
DWIDTH 17 0
BBX 16 22 1 -2
BITMAP
0FF0
1008
37C8
700F
7619
69E3
61C5
E9C9
E9C9
E9C9
E9C9
E9C9
E9C9
E9C9
E9C9
E8C9
E40A
E3F2
F004
FE18
7FF0
1FC0
ENDCHAR
STARTCHAR uhorntilde
ENCODING 7919
SWIDTH 856 0
DWIDTH 17 0
BBX 16 22 1 -2
BITMAP
0FF0
1008
37C8
700F
7619
69E3
61C5
E9C9
E9C9
E9C9
E9C9
E9C9
E9C9
E9C9
E9C9
E8C9
E40A
E3F2
F004
FE18
7FF0
1FC0
ENDCHAR
STARTCHAR Uhorndotbelow
ENCODING 7920
SWIDTH 856 0
DWIDTH 17 0
BBX 16 24 1 -7
BITMAP
0007
0019
3F23
6143
E9CD
E9C9
E9C9
E9C9
E9C9
E9C9
E9C9
E9C9
E9C9
E809
E40A
E3F2
F004
FFF8
3C10
0C90
0C10
0E20
0FC0
0F80
ENDCHAR
STARTCHAR uhorndotbelow
ENCODING 7921
SWIDTH 856 0
DWIDTH 17 0
BBX 16 24 1 -7
BITMAP
0007
0019
3F23
6143
E9CD
E9C9
E9C9
E9C9
E9C9
E9C9
E9C9
E9C9
E9C9
E809
E40A
E3F2
F004
FFF8
3C10
0C90
0C10
0E20
0FC0
0F80
ENDCHAR
STARTCHAR Ygrave
ENCODING 7922
SWIDTH 805 0
DWIDTH 16 0
BBX 16 22 0 -2
BITMAP
07C0
0838
39F4
3804
3F84
20FB
20E1
6565
E4E5
E4E5
E4E5
E249
F212
7914
7CE4
3C48
1E50
1E50
0E10
0E10
0FE0
0F80
ENDCHAR
STARTCHAR ygrave
ENCODING 7923
SWIDTH 805 0
DWIDTH 16 0
BBX 16 22 0 -2
BITMAP
07C0
0838
39F4
3804
3F84
20FB
20E1
6565
E4E5
E4E5
E4E5
E249
F212
7914
7CE4
3C48
1E50
1E50
0E10
0E10
0FE0
0F80
ENDCHAR
STARTCHAR Ydotbelow
ENCODING 7924
SWIDTH 805 0
DWIDTH 16 0
BBX 16 22 0 -7
BITMAP
1F3F
2121
6565
E4E5
E4E5
E4E5
E249
F212
7912
78E4
3C48
3E50
1E50
0E10
0E10
0FE0
0E10
0650
0E10
0E10
0FE0
0F80
ENDCHAR
STARTCHAR ydotbelow
ENCODING 7925
SWIDTH 805 0
DWIDTH 16 0
BBX 16 22 0 -7
BITMAP
1F3F
2121
6565
E4E5
E4E5
E4E5
E249
F212
7912
78E4
3C48
3E50
1E50
0E10
0E10
0FE0
0E10
0650
0E10
0E10
0FE0
0F80
ENDCHAR
STARTCHAR Yhookabove
ENCODING 7926
SWIDTH 805 0
DWIDTH 16 0
BBX 16 24 0 -2
BITMAP
01F0
0208
06E8
0ED8
0F18
0FE8
0730
18FF
20A1
6565
E4E5
E4E5
E4E5
E249
F212
7914
7CE4
3C48
1E50
1E50
0E10
0E10
0FE0
0F80
ENDCHAR
STARTCHAR yhookabove
ENCODING 7927
SWIDTH 805 0
DWIDTH 16 0
BBX 16 24 0 -2
BITMAP
01F0
0208
06E8
0ED8
0F18
0FE8
0730
18FF
20A1
6565
E4E5
E4E5
E4E5
E249
F212
7914
7CE4
3C48
1E50
1E50
0E10
0E10
0FE0
0F80
ENDCHAR
STARTCHAR Ytilde
ENCODING 7928
SWIDTH 805 0
DWIDTH 16 0
BBX 16 22 0 -2
BITMAP
07FC
0804
09C4
3834
3B04
24FB
20E1
6565
E4E5
E4E5
E4E5
E249
F212
7914
7CE4
3C48
1E50
1E50
0E10
0E10
0FE0
0F80
ENDCHAR
STARTCHAR ytilde
ENCODING 7929
SWIDTH 805 0
DWIDTH 16 0
BBX 16 22 0 -2
BITMAP
07FC
0804
09C4
3834
3B04
24FB
20E1
6565
E4E5
E4E5
E4E5
E249
F212
7914
7CE4
3C48
1E50
1E50
0E10
0E10
0FE0
0F80
ENDCHAR
STARTCHAR enspace
ENCODING 8192
SWIDTH 500 0
DWIDTH 10 0
BBX 1 1 0 0
BITMAP
00
ENDCHAR
STARTCHAR emspace
ENCODING 8193
SWIDTH 1000 0
DWIDTH 20 0
BBX 1 1 0 0
BITMAP
00
ENDCHAR
STARTCHAR uni2002
ENCODING 8194
SWIDTH 500 0
DWIDTH 10 0
BBX 1 1 0 0
BITMAP
00
ENDCHAR
STARTCHAR uni2003
ENCODING 8195
SWIDTH 1000 0
DWIDTH 20 0
BBX 1 1 0 0
BITMAP
00
ENDCHAR
STARTCHAR space.tab_en
ENCODING 8199
SWIDTH 1100 0
DWIDTH 22 0
BBX 1 1 0 0
BITMAP
00
ENDCHAR
STARTCHAR uni2010
ENCODING 8208
SWIDTH 520 0
DWIDTH 10 0
BBX 10 7 0 3
BITMAP
1FC0
2040
6740
E040
E040
FF80
FF00
ENDCHAR
STARTCHAR figuredash
ENCODING 8210
SWIDTH 834 0
DWIDTH 17 0
BBX 15 7 1 3
BITMAP
1FFC
2002
EFFA
E002
E002
FFFC
FFF0
ENDCHAR
STARTCHAR endash
ENCODING 8211
SWIDTH 834 0
DWIDTH 17 0
BBX 15 7 1 3
BITMAP
1FFC
2002
EFFA
E002
E002
FFFC
FFF0
ENDCHAR
STARTCHAR emdash
ENCODING 8212
SWIDTH 1234 0
DWIDTH 25 0
BBX 23 7 1 3
BITMAP
1FFFFC
200002
EFFFFA
E00002
E00002
FFFFFC
FFFFF0
ENDCHAR
STARTCHAR horizontalbar
ENCODING 8213
SWIDTH 1234 0
DWIDTH 25 0
BBX 23 7 1 3
BITMAP
1FFFFC
200002
EFFFFA
E00002
E00002
FFFFFC
FFFFF0
ENDCHAR
STARTCHAR quoteleft
ENCODING 8216
SWIDTH 484 0
DWIDTH 10 0
BBX 8 10 1 5
BITMAP
1F
2D
56
D1
D1
CD
C1
E1
FE
FC
ENDCHAR
STARTCHAR quoteright
ENCODING 8217
SWIDTH 484 0
DWIDTH 10 0
BBX 8 10 1 5
BITMAP
3F
41
CD
C3
C3
FB
ED
E2
FC
F0
ENDCHAR
STARTCHAR quotesinglbase
ENCODING 8218
SWIDTH 484 0
DWIDTH 10 0
BBX 8 10 1 -4
BITMAP
3F
41
CD
C3
C3
FB
ED
E2
FC
F0
ENDCHAR
STARTCHAR quotedblleft
ENCODING 8220
SWIDTH 784 0
DWIDTH 16 0
BBX 15 10 0 5
BITMAP
0FBE
16CE
2BDC
6852
E852
E65E
E042
E0C2
FFFC
FDF8
ENDCHAR
STARTCHAR quotedblright
ENCODING 8221
SWIDTH 784 0
DWIDTH 16 0
BBX 15 10 0 5
BITMAP
1FFE
2042
665E
E146
E146
FD7E
E6DA
71C4
7FF8
79F0
ENDCHAR
STARTCHAR quotedblbase
ENCODING 8222
SWIDTH 784 0
DWIDTH 16 0
BBX 15 10 0 -4
BITMAP
1FBE
2042
665E
E146
E146
FD7E
E6DA
71C4
7FF8
79F0
ENDCHAR
STARTCHAR dagger
ENCODING 8224
SWIDTH 818 0
DWIDTH 16 0
BBX 15 17 1 -2
BITMAP
03E0
0420
1CA0
249E
4082
CFFA
C082
C2A2
FEBC
FEB8
0CA0
0CA0
0CA0
0C20
0C20
0FC0
1F00
ENDCHAR
STARTCHAR daggerdbl
ENCODING 8225
SWIDTH 818 0
DWIDTH 16 0
BBX 15 17 1 -2
BITMAP
03E0
3C3C
4082
CFFA
C082
C6B2
FC9C
FC98
26B6
4082
CFFA
C082
CC92
FC1C
EC30
0FC0
1F00
ENDCHAR
STARTCHAR bullet
ENCODING 8226
SWIDTH 543 0
DWIDTH 11 0
BBX 10 10 0 1
BITMAP
1FC0
2040
6740
E4C0
E4C0
E740
E040
E040
FF80
FF00
ENDCHAR
STARTCHAR ellipsis
ENCODING 8230
SWIDTH 1210 0
DWIDTH 24 0
BBX 23 9 1 -2
BITMAP
3F3E7C
414182
C0C182
C4C992
C4C992
C0C182
E0C186
FFFFF8
FDFBF0
ENDCHAR
STARTCHAR perthousand
ENCODING 8240
SWIDTH 1517 0
DWIDTH 30 0
BBX 30 17 0 -2
BITMAP
0FCF8000
17308000
28B50000
6AB50000
EAB50000
EAA5F8F8
E8AB0504
E72A7274
F8EA8A8C
7FCAAAAC
3ED2AAAC
00D6AAAC
01D68A8C
01867274
01CF8F88
01FFFFF0
01C7E7E0
ENDCHAR
STARTCHAR minute
ENCODING 8242
SWIDTH 456 0
DWIDTH 9 0
BBX 8 10 1 5
BITMAP
3F
61
E9
E9
C9
C9
C1
E2
FC
F8
ENDCHAR
STARTCHAR second
ENCODING 8243
SWIDTH 766 0
DWIDTH 15 0
BBX 14 10 1 5
BITMAP
3FFC
6184
E994
E994
C994
C9A4
C184
E18C
FFF0
FBE0
ENDCHAR
STARTCHAR guilsinglleft
ENCODING 8249
SWIDTH 663 0
DWIDTH 13 0
BBX 11 12 1 0
BITMAP
07E0
1820
23A0
6C20
E9C0
E8C0
EC20
E3A0
F020
FF20
7FC0
0F80
ENDCHAR
STARTCHAR guilsinglright
ENCODING 8250
SWIDTH 663 0
DWIDTH 13 0
BBX 12 12 1 0
BITMAP
3F80
6060
E710
E0D0
FE50
FC50
60D0
6710
E060
E380
FF00
F800
ENDCHAR
STARTCHAR fraction
ENCODING 8260
SWIDTH 417 0
DWIDTH 8 0
BBX 9 17 0 -2
BITMAP
0F80
0880
3A80
3280
3280
3500
7500
7500
6500
6500
6A00
6A00
EA00
E200
E600
F800
F000
ENDCHAR
STARTCHAR zero.sups
ENCODING 8304
SWIDTH 656 0
DWIDTH 13 0
BBX 11 13 1 2
BITMAP
1FC0
2F20
50A0
D6A0
D6A0
D6A0
D6A0
D6A0
D0A0
CF20
E040
7F80
3E00
ENDCHAR
STARTCHAR foursuperior
ENCODING 8308
SWIDTH 608 0
DWIDTH 12 0
BBX 12 13 0 2
BITMAP
3FF0
2B50
EB50
EB50
EB50
E850
E7D0
F050
FF50
7F10
07F0
07E0
0780
ENDCHAR
STARTCHAR five.sups
ENCODING 8309
SWIDTH 593 0
DWIDTH 12 0
BBX 11 13 1 2
BITMAP
3FC0
6F40
E840
EB80
E840
EF20
E0A0
FEA0
C0A0
4F20
E0C0
FF00
FE00
ENDCHAR
STARTCHAR six.sups
ENCODING 8310
SWIDTH 628 0
DWIDTH 13 0
BBX 11 13 1 2
BITMAP
1FC0
27C0
6840
CB80
C860
CFA0
CB60
CB60
C860
E7A0
F040
FF80
7E00
ENDCHAR
STARTCHAR seven.sups
ENCODING 8311
SWIDTH 577 0
DWIDTH 12 0
BBX 11 13 0 2
BITMAP
3FE0
6FA0
E060
FF60
FE60
09A0
1620
34C0
7500
7500
7100
7E00
7800
ENDCHAR
STARTCHAR eight.sups
ENCODING 8312
SWIDTH 638 0
DWIDTH 13 0
BBX 12 14 0 1
BITMAP
0FE0
1390
1450
75D0
7D50
77D0
6830
6BB0
6BB0
E7D0
F810
7FE0
7F80
1E00
ENDCHAR
STARTCHAR nine.sups
ENCODING 8313
SWIDTH 628 0
DWIDTH 13 0
BBX 12 13 0 2
BITMAP
0FE0
17D0
2830
6B30
6930
E7F0
F030
7F30
7030
13D0
3020
3FC0
3F80
ENDCHAR
STARTCHAR parenleft.sups
ENCODING 8317
SWIDTH 434 0
DWIDTH 9 0
BBX 7 15 1 2
BITMAP
1C
22
5A
D4
D4
D8
D8
D8
D8
D8
D4
D2
CA
FC
78
ENDCHAR
STARTCHAR parenright.sups
ENCODING 8318
SWIDTH 435 0
DWIDTH 9 0
BBX 7 15 1 2
BITMAP
38
44
DA
CA
EA
EA
6A
6A
6A
6A
6A
4A
D4
F8
E0
ENDCHAR
STARTCHAR n.sups
ENCODING 8319
SWIDTH 673 0
DWIDTH 13 0
BBX 11 13 1 2
BITMAP
1FC0
2F20
50A0
D760
D760
D760
D760
D760
D760
D760
C720
FBC0
E380
ENDCHAR
STARTCHAR zero.sinf
ENCODING 8320
SWIDTH 656 0
DWIDTH 13 0
BBX 11 13 1 -2
BITMAP
1FC0
2F20
50A0
D6A0
D6A0
D6A0
D6A0
D6A0
D0A0
CF20
E040
7F80
3E00
ENDCHAR
STARTCHAR one.sinf
ENCODING 8321
SWIDTH 557 0
DWIDTH 11 0
BBX 11 13 0 -2
BITMAP
1F80
3680
7180
7980
7980
1980
1980
1960
2120
67A0
E020
FFC0
7F00
ENDCHAR
STARTCHAR two.sinf
ENCODING 8322
SWIDTH 585 0
DWIDTH 12 0
BBX 11 13 0 -2
BITMAP
1FE0
37A0
7060
7F60
7860
13A0
2CC0
6BE0
E820
E7E0
E020
FFC0
FF80
ENDCHAR
STARTCHAR three.sinf
ENCODING 8323
SWIDTH 584 0
DWIDTH 12 0
BBX 11 13 0 -2
BITMAP
1FC0
2720
60A0
FEA0
F0C0
13A0
3060
3F60
2060
27A0
6040
FF80
7F00
ENDCHAR
STARTCHAR four.sinf
ENCODING 8324
SWIDTH 620 0
DWIDTH 12 0
BBX 12 13 0 -2
BITMAP
3FF0
6B50
EB50
EB50
EB50
E850
E7D0
F050
FF50
7F10
07E0
07C0
0780
ENDCHAR
STARTCHAR five.sinf
ENCODING 8325
SWIDTH 593 0
DWIDTH 12 0
BBX 11 13 1 -2
BITMAP
3FC0
6F40
E840
EB80
E840
EF20
E0A0
FEA0
C0A0
4F20
E0C0
FF00
FE00
ENDCHAR
STARTCHAR six.sinf
ENCODING 8326
SWIDTH 628 0
DWIDTH 13 0
BBX 11 13 1 -2
BITMAP
1FC0
27C0
6840
CB80
C860
CFA0
CB60
CB60
C860
E7A0
F040
FF80
7E00
ENDCHAR
STARTCHAR seven.sinf
ENCODING 8327
SWIDTH 577 0
DWIDTH 12 0
BBX 11 13 0 -2
BITMAP
3FE0
6FA0
E060
FF60
FE60
09A0
1620
34C0
7500
7500
7100
7E00
7800
ENDCHAR
STARTCHAR eight.sinf
ENCODING 8328
SWIDTH 638 0
DWIDTH 13 0
BBX 12 14 0 -3
BITMAP
0FE0
1390
1450
75D0
7D50
77D0
6830
6BB0
6BB0
E7D0
F810
7FE0
7F80
1E00
ENDCHAR
STARTCHAR nine.sinf
ENCODING 8329
SWIDTH 628 0
DWIDTH 13 0
BBX 12 13 0 -2
BITMAP
0FE0
17D0
2830
6B30
6930
E7F0
F030
7F30
7030
13D0
3020
3FC0
3F80
ENDCHAR
STARTCHAR parenleft.sinf
ENCODING 8333
SWIDTH 434 0
DWIDTH 9 0
BBX 7 15 1 -2
BITMAP
1C
22
5A
D4
D4
D8
D8
D8
D8
D8
D4
D2
CA
FC
78
ENDCHAR
STARTCHAR parenright.sinf
ENCODING 8334
SWIDTH 435 0
DWIDTH 9 0
BBX 7 15 1 -2
BITMAP
38
44
DA
CA
EA
EA
6A
6A
6A
6A
6A
4A
D4
F8
E0
ENDCHAR
STARTCHAR colonsign
ENCODING 8353
SWIDTH 728 0
DWIDTH 15 0
BBX 13 19 1 -3
BITMAP
0360
0498
1928
13E8
2408
4808
C9F0
C9E0
C900
C900
C9F8
E808
E7E8
F128
FC08
7C90
3EF0
0FC0
0D80
ENDCHAR
STARTCHAR lira
ENCODING 8356
SWIDTH 795 0
DWIDTH 16 0
BBX 16 17 0 -2
BITMAP
07FC
0804
11E4
3204
74F8
6420
6F40
F4DE
EF21
6421
F4E5
F405
73F9
7001
7003
7FFC
7FF8
ENDCHAR
STARTCHAR naira
ENCODING 8358
SWIDTH 853 0
DWIDTH 17 0
BBX 17 17 0 -2
BITMAP
1F1F80
30B080
727480
753480
749480
644480
642280
F49480
E49280
64CC80
F4E480
F4F480
74F480
70F080
71F100
7E7E00
7C7C00
ENDCHAR
STARTCHAR peseta
ENCODING 8359
SWIDTH 812 0
DWIDTH 16 0
BBX 17 17 0 -2
BITMAP
1FFC00
300200
73F100
720900
62E480
64E480
E2E480
F20900
F3F200
720200
720C00
72F000
72E000
708000
718000
7E0000
7C0000
ENDCHAR
STARTCHAR dong
ENCODING 8363
SWIDTH 782 0
DWIDTH 16 0
BBX 15 20 0 -5
BITMAP
007C
01C2
027E
0712
07D2
0814
13F4
2414
65D4
65D4
E5D4
E414
E414
F3E4
FC18
7FF8
33E8
3008
7FF0
7FE0
ENDCHAR
STARTCHAR Euro
ENCODING 8364
SWIDTH 748 0
DWIDTH 15 0
BBX 15 17 0 -2
BITMAP
07FE
0802
11FA
3202
72FC
6FE8
6208
F2F0
E208
EFE8
F27C
F202
71FA
7802
7E06
3FF8
1FF0
ENDCHAR
STARTCHAR peso
ENCODING 8369
SWIDTH 812 0
DWIDTH 16 0
BBX 17 17 0 -2
BITMAP
1FFC00
300200
73F100
720900
64E480
F2E500
E2E480
E40480
F3F900
F20200
F20C00
72F000
72E000
708000
718000
7E0000
7C0000
ENDCHAR
STARTCHAR guarani
ENCODING 8370
SWIDTH 788 0
DWIDTH 16 0
BBX 14 20 1 -4
BITMAP
03E0
0420
0C98
1084
27E4
6804
C9F8
C9F0
CA4C
CAC4
C9D4
C9D4
E814
E7F4
F084
FC1C
7C18
1FE0
0F80
0F00
ENDCHAR
STARTCHAR cedi
ENCODING 8373
SWIDTH 728 0
DWIDTH 15 0
BBX 13 19 1 -3
BITMAP
03E0
0418
1888
13E8
2408
4808
C9F0
C9E0
C900
C900
C9F8
E408
E3E8
F088
FC88
7C10
3E20
0FC0
0F00
ENDCHAR
STARTCHAR indianrupee
ENCODING 8377
SWIDTH 713 0
DWIDTH 14 0
BBX 14 17 0 -2
BITMAP
1FFC
27F4
7044
7F48
6044
67F4
6044
7F48
6058
27E4
7014
FF94
7F94
0384
0384
03F8
03E0
ENDCHAR
STARTCHAR turkishlira
ENCODING 8378
SWIDTH 795 0
DWIDTH 16 0
BBX 16 17 0 -2
BITMAP
1F80
2080
6480
6440
6F40
6480
E55E
EE61
E4E1
E4E5
E4E5
6409
63F2
6004
7018
7FF0
7FC0
ENDCHAR
STARTCHAR ruble
ENCODING 8381
SWIDTH 782 0
DWIDTH 16 0
BBX 15 17 0 -2
BITMAP
1FFC
3002
73F2
740A
74E6
74E6
740A
73F2
7406
74F8
6430
6F20
E440
F080
F180
7E00
7C00
ENDCHAR
STARTCHAR liter
ENCODING 8467
SWIDTH 749 0
DWIDTH 15 0
BBX 13 17 1 -2
BITMAP
0FF0
1108
26C8
6828
C9A8
C9A8
C928
C828
C7C8
C810
C9E0
C810
E410
E3D0
F010
FFE0
7FC0
ENDCHAR
STARTCHAR uni2117
ENCODING 8471
SWIDTH 967 0
DWIDTH 19 0
BBX 18 21 1 -4
BITMAP
006000
0FFF00
1C0280
37FD40
740EC0
F4F2C0
FD0AC0
FD6AC0
FD6AC0
FD0AC0
FCF2C0
FD0EC0
FD76C0
FD66C0
F446C0
F78680
EA0580
F7FF80
FC0600
7FFC00
1FF000
ENDCHAR
STARTCHAR uni2120
ENCODING 8480
SWIDTH 1003 0
DWIDTH 20 0
BBX 20 12 0 3
BITMAP
0FDCF0
176310
286DD0
6BEAD0
EE6B50
F1ACD0
FEAB50
60AB50
6F6310
FFFFE0
FEF3C0
FCE380
ENDCHAR
STARTCHAR trademark
ENCODING 8482
SWIDTH 1003 0
DWIDTH 20 0
BBX 20 12 0 3
BITMAP
3FDCF0
7DA310
E22DD0
FAEAD0
FAEB50
3AECD0
3AEB50
3AEB50
38E310
3FFFE0
3CF3C0
38E380
ENDCHAR
STARTCHAR Omega
ENCODING 8486
SWIDTH 877 0
DWIDTH 18 0
BBX 17 17 0 -2
BITMAP
07FE00
080100
11F880
320480
727280
72F280
72F280
72F280
72F280
72F280
72F480
6A6480
612880
E62680
E02080
FFFF00
FFFE00
ENDCHAR
STARTCHAR estimated
ENCODING 8494
SWIDTH 815 0
DWIDTH 16 0
BBX 15 17 1 -2
BITMAP
0FF8
1004
27F2
480A
C9CA
C9CA
C80A
CFFA
C802
C9FE
C9F8
C804
E604
E1E4
F004
FFF8
7FE0
ENDCHAR
STARTCHAR onethird
ENCODING 8531
SWIDTH 1269 0
DWIDTH 25 0
BBX 25 17 0 -2
BITMAP
1F87C000
36888000
719A8000
79BA8000
79BAFE00
19B2BD00
19B28300
1974FB00
2114C300
6795DE80
E025C180
FFE5FD80
FFE98180
0061BE80
00E38100
00FFFE00
00F3F800
ENDCHAR
STARTCHAR twothirds
ENCODING 8532
SWIDTH 1269 0
DWIDTH 25 0
BBX 25 17 0 -2
BITMAP
1FE7C000
37A88000
705A8000
7F5A8000
7CDAFE00
1332BD00
2CF28300
6BF4FB00
E814C300
E7D55E80
E015C180
FFE5FD80
FFE98180
0061BE80
00E38100
00FFFE00
00F3F800
ENDCHAR
STARTCHAR oneeighth
ENCODING 8539
SWIDTH 1283 0
DWIDTH 26 0
BBX 25 17 0 -2
BITMAP
1F87C000
36888000
719A8000
79BABE00
79BAC100
19B29C80
19B2AA80
1974AA80
2114E300
67953E80
E0255D80
FFE55D80
7F694180
00E13E80
00E3C100
00FFFE00
00F1F800
ENDCHAR
STARTCHAR threeeighths
ENCODING 8540
SWIDTH 1293 0
DWIDTH 26 0
BBX 25 17 0 -2
BITMAP
1FC7C000
27284000
70BA8000
FEBABF00
F0FAC080
139A9E80
3F52AD80
2052AD80
2794E280
6014BE80
E0754D80
FFE54D80
7F652180
00619E80
00E3C100
00FFFE00
00F1F800
ENDCHAR
STARTCHAR fiveeighths
ENCODING 8541
SWIDTH 1303 0
DWIDTH 26 0
BBX 25 17 1 -2
BITMAP
3FCF8000
6F508000
E8328000
EBF57E00
EF358100
E0B53D00
FEB55B00
C0A55B00
4F25C300
C0297E80
E0E95A80
FFEB5A80
FECB4280
00C33C80
00C38300
00FFFC00
01F3F800
ENDCHAR
STARTCHAR seveneighths
ENCODING 8542
SWIDTH 1241 0
DWIDTH 25 0
BBX 24 17 0 -2
BITMAP
3FEF80
6F9080
E05500
FF557E
FC5581
09953D
16255B
35E95B
7569C2
75E97D
71EA9B
7ECABB
78CA83
00C37D
01C782
01FFFC
01E3F0
ENDCHAR
STARTCHAR arrowleft
ENCODING 8592
SWIDTH 1100 0
DWIDTH 22 0
BBX 16 14 3 -1
BITMAP
0070
0190
0210
0C9E
1141
267D
6241
F981
FC5E
7E1C
1F90
0FF0
03C0
0180
ENDCHAR
STARTCHAR arrowup
ENCODING 8593
SWIDTH 1100 0
DWIDTH 22 0
BBX 14 16 4 -2
BITMAP
01C0
0240
0420
0C90
0950
1228
3364
2084
6084
FEBC
FEB0
0E20
0C20
0FC0
0F80
0F00
ENDCHAR
STARTCHAR arrowright
ENCODING 8594
SWIDTH 1100 0
DWIDTH 22 0
BBX 16 14 3 -1
BITMAP
03C0
0220
0E18
1E44
2072
67C9
E051
E062
FE4C
FE10
0E60
0F80
0F00
0400
ENDCHAR
STARTCHAR arrowdown
ENCODING 8595
SWIDTH 1100 0
DWIDTH 22 0
BBX 14 16 4 -2
BITMAP
03E0
0420
0CA0
0EA0
1EBC
2084
E3E4
F228
F948
7990
3CA0
3E20
1E40
0F80
0E00
0400
ENDCHAR
STARTCHAR arrowupleft
ENCODING 8598
SWIDTH 1100 0
DWIDTH 22 0
BBX 14 13 4 0
BITMAP
1E00
21F8
6204
E5C8
F490
75A0
7250
7028
7094
7988
3FD0
3BE0
31C0
ENDCHAR
STARTCHAR arrowupright
ENCODING 8599
SWIDTH 1100 0
DWIDTH 22 0
BBX 14 13 4 0
BITMAP
007C
0F84
1024
31D4
7924
7CA8
3968
1208
2488
71C8
FBF0
7DE0
30C0
ENDCHAR
STARTCHAR arrowdownright
ENCODING 8600
SWIDTH 1100 0
DWIDTH 22 0
BBX 14 13 4 0
BITMAP
0410
0A28
1148
2688
7128
FCE8
78A4
3114
10F4
3004
7FC4
7FF8
07F0
ENDCHAR
STARTCHAR arrowdownleft
ENCODING 8601
SWIDTH 1100 0
DWIDTH 22 0
BBX 14 13 4 0
BITMAP
0430
0A48
1184
3024
3248
3390
7490
7448
6784
6008
61F0
FFE0
FE00
ENDCHAR
STARTCHAR uni21AA
ENCODING 8618
SWIDTH 1100 0
DWIDTH 22 0
BBX 17 19 3 -3
BITMAP
07FC00
180200
27FA00
680200
EBFC00
EBF800
EAA000
EB9000
EB8C00
E98200
E81980
E7E480
F01900
FF8200
7F8C00
079000
032000
03C000
030000
ENDCHAR
STARTCHAR uni21AB
ENCODING 8619
SWIDTH 1100 0
DWIDTH 22 0
BBX 16 19 3 -3
BITMAP
0FFC
1003
33FD
3003
3FFB
3FFB
009B
013B
063B
0833
3303
24FD
E302
F83C
FC38
3F20
1FA0
07C0
0380
ENDCHAR
STARTCHAR uni21B0
ENCODING 8624
SWIDTH 1100 0
DWIDTH 22 0
BBX 17 17 2 -2
BITMAP
002000
005000
019000
022000
0C1E00
118100
227C80
718280
FC1A80
7E1A80
1F9A80
0FDA80
03FA80
01B880
003880
003F00
003E00
ENDCHAR
STARTCHAR uni21B1
ENCODING 8625
SWIDTH 1100 0
DWIDTH 22 0
BBX 17 16 3 -2
BITMAP
01E000
039000
078C00
078200
183180
23EC80
643100
698200
EB8C00
EB1000
EB6000
EB8000
E20000
E20000
FC0000
F80000
ENDCHAR
STARTCHAR uni21B2
ENCODING 8626
SWIDTH 1100 0
DWIDTH 22 0
BBX 17 16 2 -2
BITMAP
000F80
001880
003A80
005A80
009A80
031A80
041A80
198280
227C80
718100
F81E00
7E1800
3F1000
0FD000
07E000
01C000
ENDCHAR
STARTCHAR uni21B3
ENCODING 8627
SWIDTH 1100 0
DWIDTH 22 0
BBX 16 16 3 -2
BITMAP
3E00
6200
EA00
EBC0
EB20
EB18
EB84
E833
E7E9
F031
FF82
7F0C
3F10
0360
0780
0700
ENDCHAR
STARTCHAR partialdiff
ENCODING 8706
SWIDTH 792 0
DWIDTH 16 0
BBX 15 18 0 -3
BITMAP
07F8
0804
39F2
380A
3FCA
3FCA
300A
13FA
240A
64CA
64CA
E4CA
E40A
F3F2
7804
7FF8
3FE0
0F80
ENDCHAR
STARTCHAR Delta
ENCODING 8710
SWIDTH 830 0
DWIDTH 17 0
BBX 15 17 1 -2
BITMAP
07F0
0808
11C8
3224
3414
7494
6494
65D2
65CA
E9CA
C9CA
C80A
C80A
C7F2
C002
FFFC
FFF8
ENDCHAR
STARTCHAR product
ENCODING 8719
SWIDTH 859 0
DWIDTH 17 0
BBX 15 17 1 -2
BITMAP
1FFE
2002
E7FA
E80A
E9EA
E9EA
E9EA
E9EA
E9EA
E9EA
E9EA
E9EA
E9EA
E1E2
E1E2
FEFC
F8F8
ENDCHAR
STARTCHAR summation
ENCODING 8721
SWIDTH 750 0
DWIDTH 15 0
BBX 15 19 0 -4
BITMAP
1FFC
3002
77F2
7402
727C
7138
7890
7C48
3E48
1C48
0890
0920
127C
2402
67FA
E002
E002
FFFC
FFF0
ENDCHAR
STARTCHAR minus
ENCODING 8722
SWIDTH 834 0
DWIDTH 17 0
BBX 15 6 1 3
BITMAP
3FFE
6FFA
E002
E002
FFFC
FFF0
ENDCHAR
STARTCHAR uni2215
ENCODING 8725
SWIDTH 417 0
DWIDTH 8 0
BBX 9 17 0 -2
BITMAP
0F80
0880
3A80
3280
3280
3500
7500
7500
6500
6500
6A00
6A00
EA00
E200
E600
F800
F000
ENDCHAR
STARTCHAR uni2219
ENCODING 8729
SWIDTH 464 0
DWIDTH 9 0
BBX 9 9 0 2
BITMAP
1F00
2080
6080
E480
E480
E080
E080
FF00
FC00
ENDCHAR
STARTCHAR radical
ENCODING 8730
SWIDTH 841 0
DWIDTH 17 0
BBX 17 19 0 -2
BITMAP
000780
000880
001280
003280
003280
007500
1F7500
20E500
60E500
E66900
E26A00
F94A00
F90A00
3D1200
1C9400
1E6400
1E0400
0FF800
0FE000
ENDCHAR
STARTCHAR infinity
ENCODING 8734
SWIDTH 978 0
DWIDTH 20 0
BBX 19 13 0 0
BITMAP
0FFFC0
118720
2678A0
64A660
65A660
E59660
E59660
E59660
E428A0
F3C720
F83040
7FFF80
3FFE00
ENDCHAR
STARTCHAR integral
ENCODING 8747
SWIDTH 574 0
DWIDTH 11 0
BBX 12 21 0 -4
BITMAP
01E0
0210
0C90
1910
1930
3940
3940
3940
3940
3940
3940
3940
3940
3940
3940
2240
6E40
E080
E100
FE00
F800
ENDCHAR
STARTCHAR approxequal
ENCODING 8776
SWIDTH 834 0
DWIDTH 17 0
BBX 15 13 1 0
BITMAP
1FFE
2002
6FFA
E002
EF84
FFF8
F0FE
2002
6FFA
E002
EFC4
FFF8
EFE0
ENDCHAR
STARTCHAR notequal
ENCODING 8800
SWIDTH 834 0
DWIDTH 17 0
BBX 15 16 1 -2
BITMAP
01F0
1F1C
2042
6FFA
E042
E082
FE9C
FEBC
2082
6FFA
E082
E102
FC3C
FFF0
1F00
1E00
ENDCHAR
STARTCHAR lessequal
ENCODING 8804
SWIDTH 814 0
DWIDTH 16 0
BBX 14 17 1 -2
BITMAP
003C
01C4
0E14
11E4
260C
6870
E9E0
E830
E70C
F0E4
FE14
6184
6004
E7F4
E004
FFF8
FFF0
ENDCHAR
STARTCHAR greaterequal
ENCODING 8805
SWIDTH 814 0
DWIDTH 16 0
BBX 14 17 1 -2
BITMAP
1C00
23C0
E438
E3C4
F034
FF14
7FD4
0E14
1064
2784
6038
E0CC
E004
E7F4
E004
FFF8
FFF0
ENDCHAR
STARTCHAR block
ENCODING 9608
SWIDTH 1000 0
DWIDTH 20 0
BBX 22 22 -1 -4
BITMAP
FFFFFC
FFFFFC
FFFFFC
FFFFFC
FFFFFC
FFFFFC
FFFFFC
FFFFFC
FFFFFC
FFFFFC
FFFFFC
FFFFFC
FFFFFC
FFFFFC
FFFFFC
FFFFFC
FFFFFC
FFFFFC
FFFFFC
FFFFFC
FFFFFC
FFFFFC
ENDCHAR
STARTCHAR blacksquare
ENCODING 9632
SWIDTH 1100 0
DWIDTH 22 0
BBX 12 12 5 0
BITMAP
3FF0
2010
E010
E790
E490
E490
E310
E010
E010
FFE0
FFC0
7F80
ENDCHAR
STARTCHAR blackuppointingtriangle
ENCODING 9650
SWIDTH 1100 0
DWIDTH 22 0
BBX 14 12 4 0
BITMAP
01C0
0240
0420
0C10
0890
1948
13C8
2004
6004
7FFC
FFF0
7FE0
ENDCHAR
STARTCHAR whiteuppointingtriangle
ENCODING 9651
SWIDTH 1100 0
DWIDTH 22 0
BBX 11 9 7 3
BITMAP
0E00
1200
1100
2100
2080
4040
8040
8020
FFE0
ENDCHAR
STARTCHAR blackrightpointingtriangle
ENCODING 9654
SWIDTH 1100 0
DWIDTH 22 0
BBX 12 14 5 -1
BITMAP
3800
6600
E180
E040
E630
E510
E610
E060
E080
E300
E400
F800
E000
8000
ENDCHAR
STARTCHAR whiterightpointingtriangle
ENCODING 9655
SWIDTH 1100 0
DWIDTH 22 0
BBX 9 11 8 2
BITMAP
C000
B000
8800
8600
8100
8080
8080
8300
8C00
9000
E000
ENDCHAR
STARTCHAR blackdownpointingtriangle
ENCODING 9660
SWIDTH 1100 0
DWIDTH 22 0
BBX 14 12 4 0
BITMAP
3FFC
6004
F3C4
F148
7990
7C10
3C20
1E20
1E40
0F80
0E00
0400
ENDCHAR
STARTCHAR whitedownpointingtriangle
ENCODING 9661
SWIDTH 1100 0
DWIDTH 22 0
BBX 11 9 7 3
BITMAP
FFE0
8020
8040
4040
4080
2080
1100
1200
0E00
ENDCHAR
STARTCHAR blackleftpointingtriangle
ENCODING 9664
SWIDTH 1100 0
DWIDTH 22 0
BBX 12 14 5 -1
BITMAP
0070
0090
0310
0C10
1090
2350
6190
F810
FE10
3F10
1FD0
07E0
03C0
0080
ENDCHAR
STARTCHAR whiteleftpointingtriangle
ENCODING 9665
SWIDTH 1100 0
DWIDTH 22 0
BBX 9 11 8 2
BITMAP
0180
0680
1880
2080
C080
8080
8080
6080
1080
0C80
0380
ENDCHAR
STARTCHAR blackdiamond
ENCODING 9670
SWIDTH 1100 0
DWIDTH 22 0
BBX 14 14 4 -1
BITMAP
01C0
0220
0410
0888
1144
2224
6244
F188
F810
7C20
3E40
1F80
0F00
0600
ENDCHAR
STARTCHAR lozenge
ENCODING 9674
SWIDTH 831 0
DWIDTH 17 0
BBX 15 17 1 -2
BITMAP
07F0
0808
19C8
3224
3214
2494
65D2
69CA
E9CA
E492
F494
F224
73E8
7808
3810
3FE0
3FC0
ENDCHAR
STARTCHAR uni25D6
ENCODING 9686
SWIDTH 546 0
DWIDTH 11 0
BBX 12 22 0 -4
BITMAP
01F0
07F0
1FF0
3FF0
3FF0
7FF0
7FF0
FFF0
FFF0
FFF0
FFF0
FFF0
FFF0
FFF0
7FF0
7FF0
7FF0
3FF0
1FF0
0FF0
03F0
0070
ENDCHAR
STARTCHAR uni25D7
ENCODING 9687
SWIDTH 546 0
DWIDTH 11 0
BBX 12 22 -1 -4
BITMAP
F800
FE00
FF80
FF80
FFC0
FFE0
FFE0
FFF0
FFF0
FFF0
FFF0
FFF0
FFF0
FFF0
FFE0
FFE0
FFC0
FFC0
FF80
FF00
FC00
E000
ENDCHAR
STARTCHAR uni25DC
ENCODING 9692
SWIDTH 1280 0
DWIDTH 26 0
BBX 22 22 2 -4
BITMAP
000FFC
007FFC
01FFFC
07FFFC
07FFFC
0FFFFC
1FFFFC
3FFFFC
3FFFFC
7FFFFC
7FFFFC
7FFFFC
7FFFFC
FFFFFC
FFFFFC
FFFFFC
FFFFFC
FFFFFC
FFFFFC
FFFFFC
FFFFFC
FFFFF8
ENDCHAR
STARTCHAR uni25DD
ENCODING 9693
SWIDTH 1280 0
DWIDTH 26 0
BBX 22 22 2 -4
BITMAP
FF8000
FFF800
FFFE00
FFFF00
FFFF80
FFFFC0
FFFFE0
FFFFE0
FFFFF0
FFFFF0
FFFFF8
FFFFF8
FFFFF8
FFFFF8
FFFFF8
FFFFF8
FFFFFC
FFFFFC
FFFFFC
FFFFFC
FFFFFC
FFFFF8
ENDCHAR
STARTCHAR uni25DE
ENCODING 9694
SWIDTH 1280 0
DWIDTH 26 0
BBX 22 22 2 -4
BITMAP
FFFFFC
FFFFFC
FFFFFC
FFFFFC
FFFFFC
FFFFFC
FFFFF8
FFFFF8
FFFFF8
FFFFF8
FFFFF8
FFFFF0
FFFFF0
FFFFF0
FFFFE0
FFFFC0
FFFFC0
FFFF80
FFFE00
FFFC00
FFE000
FC0000
ENDCHAR
STARTCHAR uni25DF
ENCODING 9695
SWIDTH 1280 0
DWIDTH 26 0
BBX 22 22 2 -4
BITMAP
FFFFFC
FFFFFC
FFFFFC
FFFFFC
FFFFFC
FFFFFC
FFFFFC
FFFFFC
FFFFFC
7FFFFC
7FFFFC
7FFFFC
3FFFFC
3FFFFC
1FFFFC
1FFFFC
0FFFFC
07FFFC
03FFFC
00FFFC
003FFC
0000F8
ENDCHAR
STARTCHAR uni261A
ENCODING 9754
SWIDTH 1100 0
DWIDTH 22 0
BBX 17 13 2 0
BITMAP
000180
1FFE80
200280
618280
FE0280
FF8280
0E0280
0FC280
0F0280
0F8280
07FE80
07FF80
000E00
ENDCHAR
STARTCHAR uni261B
ENCODING 9755
SWIDTH 1100 0
DWIDTH 22 0
BBX 17 13 3 0
BITMAP
380000
47FF00
C40080
C41880
C40700
C43600
C40800
C43800
C40800
C41000
C7E000
FFC000
E00000
ENDCHAR
STARTCHAR uni261C
ENCODING 9756
SWIDTH 1100 0
DWIDTH 22 0
BBX 14 11 5 2
BITMAP
000C
7FD4
8034
FC14
1014
0C14
0814
0E14
0814
07F4
001C
ENDCHAR
STARTCHAR uni261D
ENCODING 9757
SWIDTH 1100 0
DWIDTH 22 0
BBX 11 15 7 0
BITMAP
6000
5000
5000
5000
5A00
5580
5540
8040
4040
4040
4040
4080
FFE0
8020
FFE0
ENDCHAR
STARTCHAR uni261E
ENCODING 9758
SWIDTH 1100 0
DWIDTH 22 0
BBX 15 11 5 2
BITMAP
E000
AFFC
B002
A07E
A020
A0E0
A020
A0C0
A040
9FC0
E000
ENDCHAR
STARTCHAR uni261F
ENCODING 9759
SWIDTH 1100 0
DWIDTH 22 0
BBX 11 15 7 0
BITMAP
FFC0
FFE0
8020
7FC0
4040
4040
4040
4040
5040
5540
3D40
0340
0140
0140
01C0
ENDCHAR
STARTCHAR uni27A1
ENCODING 10145
SWIDTH 650 0
DWIDTH 13 0
BBX 14 30 -1 -8
BITMAP
7000
7800
7C00
7C00
FE00
FF00
FF80
FF80
FFC0
FFE0
FFF0
FFF0
FFF8
FFFC
FFFC
FFFC
FFF8
FFF8
FFF0
FFE0
FFC0
FFC0
FF80
FF00
FE00
FE00
7C00
7800
7000
2000
ENDCHAR
STARTCHAR uni2B1B
ENCODING 11035
SWIDTH 1280 0
DWIDTH 26 0
BBX 22 22 2 -4
BITMAP
FFFFFC
FFFFFC
FFFFFC
FFFFFC
FFFFFC
FFFFFC
FFFFFC
FFFFFC
FFFFFC
FFFFFC
FFFFFC
FFFFFC
FFFFFC
FFFFFC
FFFFFC
FFFFFC
FFFFFC
FFFFFC
FFFFFC
FFFFFC
FFFFFC
FFFFF8
ENDCHAR
STARTCHAR uni2B24
ENCODING 11044
SWIDTH 1280 0
DWIDTH 26 0
BBX 23 23 1 -4
BITMAP
001800
01FF80
07FFE0
0FFFF0
1FFFF8
3FFFF8
3FFFFC
7FFFFC
7FFFFE
7FFFFE
FFFFFE
FFFFFE
FFFFFE
FFFFFE
7FFFFE
7FFFFE
7FFFFC
3FFFFC
3FFFF8
1FFFF8
0FFFF0
07FFE0
01FF80
ENDCHAR
STARTCHAR A.salt
ENCODING 57600
SWIDTH 836 0
DWIDTH 17 0
BBX 15 17 1 -2
BITMAP
0FF8
1004
23F2
640A
E9CA
E9CA
E9CA
E9CA
E80A
E7FA
E80A
E9CA
E9CA
E1C2
E1C2
FFFC
F9F8
ENDCHAR
STARTCHAR Agrave.salt
ENCODING 57601
SWIDTH 836 0
DWIDTH 17 0
BBX 15 22 1 -2
BITMAP
0F80
1078
33E8
3008
3FE8
3C18
1004
23F2
640A
E9CA
E9CA
E9CA
E9CA
E80A
E7FA
E80A
E9CA
E9CA
E1C2
E1C2
FFFC
F9F8
ENDCHAR
STARTCHAR Aacute.salt
ENCODING 57602
SWIDTH 836 0
DWIDTH 17 0
BBX 15 22 1 -2
BITMAP
0078
0784
09E4
3A04
39F8
3E08
3004
23F2
640A
E9CA
E9CA
E9CA
E9CA
E80A
E7FA
E80A
E9CA
E9CA
E1C2
E1C2
FFFC
F9F8
ENDCHAR
STARTCHAR Acircumflex.salt
ENCODING 57603
SWIDTH 836 0
DWIDTH 17 0
BBX 15 22 1 -2
BITMAP
03E0
0C18
13E8
3008
33E8
3C18
3004
23F2
640A
E9CA
E9CA
E9CA
E9CA
E80A
E7FA
E80A
E9CA
E9CA
E1C2
E1C2
FFFC
F9F8
ENDCHAR
STARTCHAR Atilde.salt
ENCODING 57604
SWIDTH 836 0
DWIDTH 17 0
BBX 15 21 1 -2
BITMAP
0FF8
1388
3068
33C8
3C38
3004
23F2
640A
E9CA
E9CA
E9CA
E9CA
E80A
E7FA
E80A
E9CA
E9CA
E1C2
E1C2
FFFC
F9F8
ENDCHAR
STARTCHAR Adieresis.salt
ENCODING 57605
SWIDTH 836 0
DWIDTH 17 0
BBX 15 21 1 -2
BITMAP
1FFC
3294
7084
71C4
7E38
7004
23F2
640A
E9CA
E9CA
E9CA
E9CA
E80A
E7FA
E80A
E9CA
E9CA
E1C2
E1C2
FFFC
F9F8
ENDCHAR
STARTCHAR Aring.salt
ENCODING 57606
SWIDTH 836 0
DWIDTH 17 0
BBX 15 22 1 -2
BITMAP
07F0
09C8
1228
34D4
35D4
7A18
71E4
2232
640A
E9CA
E9CA
E9CA
E9CA
E80A
E7FA
E80A
E9CA
E9CA
E1C2
E1C2
FFFC
F9F8
ENDCHAR
STARTCHAR Amacron.salt
ENCODING 57607
SWIDTH 836 0
DWIDTH 17 0
BBX 15 21 1 -2
BITMAP
0FF8
1008
33E8
39C8
3E38
3004
23F2
640A
E9CA
E9CA
E9CA
E9CA
E80A
E7FA
E80A
E9CA
E9CA
E1C2
E1C2
FFFC
F9F8
ENDCHAR
STARTCHAR Abreve.salt
ENCODING 57608
SWIDTH 836 0
DWIDTH 17 0
BBX 15 22 1 -2
BITMAP
0F78
10C4
3214
39E8
3E30
3DC8
1004
23F2
640A
E9CA
E9CA
E9CA
E9CA
E80A
E7FA
E80A
E9CA
E9CA
E1C2
E1C2
FFFC
F9F8
ENDCHAR
STARTCHAR Aogonek.salt
ENCODING 57609
SWIDTH 836 0
DWIDTH 17 0
BBX 15 21 1 -6
BITMAP
0FF8
1004
23F2
640A
E9CA
E9CA
E9CA
E9CA
E80A
E7FA
E80A
E9CA
E9CA
E1D2
E1D2
FFD4
F9D2
01CA
01E2
01FC
01F8
ENDCHAR
STARTCHAR E.salt
ENCODING 57610
SWIDTH 743 0
DWIDTH 15 0
BBX 13 17 1 -2
BITMAP
0FF8
1008
27E8
6808
C9F8
C9F0
C810
CFD0
C810
C9E0
C9C0
C838
E408
E3E8
F008
FFF8
7FE0
ENDCHAR
STARTCHAR Egrave.salt
ENCODING 57611
SWIDTH 743 0
DWIDTH 15 0
BBX 13 22 1 -2
BITMAP
0F00
10F0
33C8
7008
7F88
7FF8
1008
27E8
6808
C9F8
C9F0
C810
CFD0
C810
C9E0
C9C0
C838
E408
E3E8
F008
FFF8
7FE0
ENDCHAR
STARTCHAR Eacute.salt
ENCODING 57612
SWIDTH 743 0
DWIDTH 15 0
BBX 13 22 1 -2
BITMAP
00F0
0F08
11E8
3208
70F0
7FF8
7008
27E8
6808
C9F8
C9F0
C810
CFD0
C810
C9E0
C9C0
C838
E408
E3E8
F008
FFF8
7FE0
ENDCHAR
STARTCHAR Ecircumflex.salt
ENCODING 57613
SWIDTH 743 0
DWIDTH 15 0
BBX 13 22 1 -2
BITMAP
03E0
0C10
13E8
3008
73E8
7FF8
7008
27E8
6808
C9F8
C9F0
C810
CFD0
C810
C9E0
C9C0
C838
E408
E3E8
F008
FFF8
7FE0
ENDCHAR
STARTCHAR Edieresis.salt
ENCODING 57614
SWIDTH 743 0
DWIDTH 15 0
BBX 13 21 1 -2
BITMAP
1FF8
34A8
7088
7088
7FF8
7008
27E8
6808
C9F8
C9F0
C810
CFD0
C810
C9E0
C9C0
C838
E408
E3E8
F008
FFF8
7FE0
ENDCHAR
STARTCHAR Emacron.salt
ENCODING 57615
SWIDTH 743 0
DWIDTH 15 0
BBX 13 21 1 -2
BITMAP
0FF8
1008
33E8
7008
7FF8
7008
27E8
6808
C9F8
C9F0
C810
CFD0
C810
C9E0
C9C0
C838
E408
E3E8
F008
FFF8
7FE0
ENDCHAR
STARTCHAR Ebreve.salt
ENCODING 57616
SWIDTH 743 0
DWIDTH 15 0
BBX 13 22 1 -2
BITMAP
0F78
11C8
3418
73E8
7C10
3FF8
3008
27E8
6808
C9F8
C9F0
C810
CFD0
C810
C9E0
C9C0
C838
E408
E3E8
F008
FFF8
7FE0
ENDCHAR
STARTCHAR Edotaccent.salt
ENCODING 57617
SWIDTH 743 0
DWIDTH 15 0
BBX 13 22 1 -2
BITMAP
03C0
0420
0CA0
1C20
1C20
1FF8
1008
27E8
6808
C9F8
C9F0
C810
CFD0
C810
C9E0
C9C0
C838
E408
E3E8
F008
FFF8
7FE0
ENDCHAR
STARTCHAR Eogonek.salt
ENCODING 57618
SWIDTH 743 0
DWIDTH 15 0
BBX 13 21 1 -6
BITMAP
0FF8
1008
27E8
6808
C9F8
C9F0
C810
CFD0
C810
C9E0
C9C0
C838
E408
E3E8
F028
FF28
7F48
0328
0788
07F0
03E0
ENDCHAR
STARTCHAR Ecaron.salt
ENCODING 57619
SWIDTH 743 0
DWIDTH 15 0
BBX 13 22 1 -2
BITMAP
0E78
1188
3368
7888
7E30
7FF8
1008
27E8
6808
C9F8
C9F0
C810
CFD0
C810
C9E0
C9C0
C838
E408
E3E8
F008
FFF8
7FE0
ENDCHAR
STARTCHAR I.salt
ENCODING 57620
SWIDTH 471 0
DWIDTH 9 0
BBX 8 17 1 -2
BITMAP
1E
21
E5
E5
E5
E5
E5
E5
E5
E5
E5
E5
E5
E1
E1
FE
F8
ENDCHAR
STARTCHAR Igrave.salt
ENCODING 57621
SWIDTH 471 0
DWIDTH 9 0
BBX 10 21 0 -2
BITMAP
3FC0
6F40
E040
FE40
FF80
7080
7280
7280
7280
7280
7280
7280
7280
7280
7280
7280
7280
7080
7080
7F00
7C00
ENDCHAR
STARTCHAR Iacute.salt
ENCODING 57622
SWIDTH 471 0
DWIDTH 9 0
BBX 10 22 0 -2
BITMAP
03C0
1C40
2740
6040
E780
FF00
F080
7280
7280
7280
7280
7280
7280
7280
7280
7280
7280
7280
7080
7080
7F00
7C00
ENDCHAR
STARTCHAR Icircumflex.salt
ENCODING 57623
SWIDTH 471 0
DWIDTH 9 0
BBX 10 22 0 -2
BITMAP
0F00
30C0
4F40
C040
FFC0
FF80
9080
7280
7280
7280
7280
7280
7280
7280
7280
7280
7280
7280
7080
7080
7F00
7C00
ENDCHAR
STARTCHAR Idieresis.salt
ENCODING 57624
SWIDTH 471 0
DWIDTH 9 0
BBX 11 21 0 -2
BITMAP
7FE0
D2A0
C220
C220
FFC0
7080
7280
7280
7280
7280
7280
7280
7280
7280
7280
7280
7280
7080
7080
7F00
7C00
ENDCHAR
STARTCHAR Itilde.salt
ENCODING 57625
SWIDTH 471 0
DWIDTH 9 0
BBX 10 21 0 -2
BITMAP
3FC0
4C40
C340
C840
FF80
1080
7280
7280
7280
7280
7280
7280
7280
7280
7280
7280
7280
7080
7080
7F00
7C00
ENDCHAR
STARTCHAR Imacron.salt
ENCODING 57626
SWIDTH 471 0
DWIDTH 9 0
BBX 9 21 0 -2
BITMAP
3F80
2080
E680
E080
FF00
F080
7280
7280
7280
7280
7280
7280
7280
7280
7280
7280
7280
7080
7080
7F00
7C00
ENDCHAR
STARTCHAR Ibreve.salt
ENCODING 57627
SWIDTH 471 0
DWIDTH 9 0
BBX 11 22 -1 -2
BITMAP
1FE0
2320
6860
F7A0
F840
7F80
7840
3940
3940
3940
3940
3940
3940
3940
3940
3940
3940
3940
3840
3840
3F80
3E00
ENDCHAR
STARTCHAR Iogonek.salt
ENCODING 57628
SWIDTH 471 0
DWIDTH 9 0
BBX 8 21 1 -6
BITMAP
1F
21
65
E5
E5
E5
E5
E5
E5
E5
E5
E5
E5
E9
E9
EA
C9
E5
E1
FE
F8
ENDCHAR
STARTCHAR Idotaccent.salt
ENCODING 57629
SWIDTH 471 0
DWIDTH 9 0
BBX 8 22 1 -2
BITMAP
1E
21
69
E1
E1
FE
E1
E5
E5
E5
E5
E5
E5
E5
E5
E5
E5
E5
E1
E1
FE
F8
ENDCHAR
STARTCHAR L.salt
ENCODING 57630
SWIDTH 715 0
DWIDTH 14 0
BBX 13 17 1 -2
BITMAP
1E00
2100
E900
E900
E900
E900
E900
E900
E900
E900
E900
E8F8
E808
E7E8
E008
FFF0
FFE0
ENDCHAR
STARTCHAR Lacute.salt
ENCODING 57631
SWIDTH 715 0
DWIDTH 14 0
BBX 13 22 1 -2
BITMAP
01E0
1E10
2790
E810
E3E0
FF80
E100
E900
E900
E900
E900
E900
E900
E900
E900
E900
E8F8
E808
E7E8
E008
FFF0
FFE0
ENDCHAR
STARTCHAR Lcommaaccent.salt
ENCODING 57632
SWIDTH 715 0
DWIDTH 14 0
BBX 13 25 1 -10
BITMAP
1E00
2100
E900
E900
E900
E900
E900
E900
E900
E900
E900
E8F8
E808
E7E8
E008
FFF0
FC20
0DA0
1C60
1C60
1FA0
1D40
1F80
1F00
1C00
ENDCHAR
STARTCHAR Lcaron.salt
ENCODING 57633
SWIDTH 715 0
DWIDTH 14 0
BBX 14 17 1 -2
BITMAP
1E7C
2184
E994
E994
E988
E988
E9F0
E9E0
E900
E900
E900
E8FC
E804
E7E4
E004
FFF8
FFE0
ENDCHAR
STARTCHAR Ldot.salt
ENCODING 57634
SWIDTH 715 0
DWIDTH 14 0
BBX 14 17 1 -2
BITMAP
1E00
2100
E900
E900
E9FC
E984
E994
E984
E9F8
E9F0
E9E0
E81C
E804
E7E4
E004
FFF8
FFE0
ENDCHAR
STARTCHAR Lslash.salt
ENCODING 57635
SWIDTH 725 0
DWIDTH 15 0
BBX 14 17 0 -2
BITMAP
0F80
1080
3280
7280
72C0
7220
63A0
6E20
E2C0
F280
F280
F27C
7204
71F4
7004
7FFC
7FF0
ENDCHAR
STARTCHAR M.salt
ENCODING 57636
SWIDTH 1170 0
DWIDTH 23 0
BBX 22 17 1 -2
BITMAP
0FFFF0
100008
23E7C4
641824
E9D394
E9D394
E9D394
E9D394
E9D394
E9D394
E9D394
E9D394
E9D394
E1C384
E1C384
FFFFF8
F9F3F0
ENDCHAR
STARTCHAR N.salt
ENCODING 57637
SWIDTH 846 0
DWIDTH 17 0
BBX 15 17 1 -2
BITMAP
0FF8
1006
23F2
640A
E9CA
E9CA
E9CA
E9CA
E9CA
E9CA
E9CA
E9CA
E9CA
E1C2
E1C2
FEFC
F8F8
ENDCHAR
STARTCHAR Ntilde.salt
ENCODING 57638
SWIDTH 846 0
DWIDTH 17 0
BBX 15 21 1 -2
BITMAP
0FFC
1B84
3864
3BC8
3C38
3006
23F2
640A
E9CA
E9CA
E9CA
E9CA
E9CA
E9CA
E9CA
E9CA
E9CA
E1C2
E1C2
FEFC
F8F8
ENDCHAR
STARTCHAR Nacute.salt
ENCODING 57639
SWIDTH 846 0
DWIDTH 17 0
BBX 15 22 1 -2
BITMAP
0078
0784
09E4
3804
39F8
3E08
3006
23F2
640A
E9CA
E9CA
E9CA
E9CA
E9CA
E9CA
E9CA
E9CA
E9CA
E1C2
E1C2
FEFC
F8F8
ENDCHAR
STARTCHAR Ncommaaccent.salt
ENCODING 57640
SWIDTH 846 0
DWIDTH 17 0
BBX 15 25 1 -10
BITMAP
0FF8
1006
23F2
640A
E9CA
E9CA
E9CA
E9CA
E9CA
E9CA
E9CA
E9CA
E9CA
E1C2
E1C2
FFFC
FA18
0490
0C50
0E50
0FD0
0EA0
0FC0
0F80
0E00
ENDCHAR
STARTCHAR Ncaron.salt
ENCODING 57641
SWIDTH 846 0
DWIDTH 17 0
BBX 15 22 1 -2
BITMAP
0F38
18C4
3B64
3888
3F70
3C88
1006
23F2
640A
E9CA
E9CA
E9CA
E9CA
E9CA
E9CA
E9CA
E9CA
E9CA
E1C2
E1C2
FEFC
F8F8
ENDCHAR
STARTCHAR W.salt
ENCODING 57642
SWIDTH 1170 0
DWIDTH 23 0
BBX 22 18 1 -3
BITMAP
3E3C7C
614284
E9D394
E9D394
E9D394
E9D394
E9D394
E9D394
E9D394
E9D394
E9D394
E81014
E41824
E3E7C4
F01018
FFFFE0
7FFFC0
1F1F00
ENDCHAR
STARTCHAR Wcircumflex.salt
ENCODING 57643
SWIDTH 1170 0
DWIDTH 23 0
BBX 22 23 1 -3
BITMAP
003C00
00C300
013C80
030080
077C80
3FFF7C
614284
E9D394
E9D394
E9D394
E9D394
E9D394
E9D394
E9D394
E9D394
E9D394
E81014
E41824
E3E7C4
F01018
FFFFE0
7FFFC0
1F1F00
ENDCHAR
STARTCHAR Wgrave.salt
ENCODING 57644
SWIDTH 1170 0
DWIDTH 23 0
BBX 22 23 1 -3
BITMAP
00F000
010F00
077C80
070080
07F880
3FFF7C
61C284
E9D394
E9D394
E9D394
E9D394
E9D394
E9D394
E9D394
E9D394
E9D394
E81014
E41824
E3E7C4
F01018
FFFFE0
7FFFC0
1F1F00
ENDCHAR
STARTCHAR Wacute.salt
ENCODING 57645
SWIDTH 1170 0
DWIDTH 23 0
BBX 22 23 1 -3
BITMAP
000F00
00F080
013E80
030080
071F00
3FFC7C
61C284
E9D394
E9D394
E9D394
E9D394
E9D394
E9D394
E9D394
E9D394
E9D394
E81014
E41824
E3E7C4
F01018
FFFFE0
7FFFC0
1F1F00
ENDCHAR
STARTCHAR Wdieresis.salt
ENCODING 57646
SWIDTH 1170 0
DWIDTH 23 0
BBX 22 22 1 -3
BITMAP
03FF80
025A80
061880
061880
3FFF7C
61C284
E9D394
E9D394
E9D394
E9D394
E9D394
E9D394
E9D394
E9D394
E9D394
E81014
E41824
E3E7C4
F01018
FFFFE0
7FFFC0
1F1F00
ENDCHAR
STARTCHAR X.salt
ENCODING 57647
SWIDTH 837 0
DWIDTH 17 0
BBX 15 17 1 -2
BITMAP
1E3E
2142
64D2
F4D4
F494
7294
6222
63F2
640A
E80A
E9CA
E9CA
E9CA
E1C2
E1C2
FEFC
F8F8
ENDCHAR
STARTCHAR Y.salt
ENCODING 57648
SWIDTH 806 0
DWIDTH 16 0
BBX 16 17 0 -2
BITMAP
1F1E
2121
6565
E4E5
E4E5
E4E5
E4E5
E405
E339
70C2
7C44
7E48
3E50
0E10
0E10
0FE0
0FC0
ENDCHAR
STARTCHAR Yacute.salt
ENCODING 57649
SWIDTH 806 0
DWIDTH 16 0
BBX 16 22 0 -2
BITMAP
007C
0784
08F4
1904
1878
1FFE
20A1
6565
E4E5
E4E5
E4E5
E4E5
E405
E339
70C2
7C44
7E48
3E50
0E10
0E10
0FE0
0FC0
ENDCHAR
STARTCHAR Ycircumflex.salt
ENCODING 57650
SWIDTH 806 0
DWIDTH 16 0
BBX 16 22 0 -2
BITMAP
01F0
060C
09F4
1804
39F4
3FFE
20E1
6565
E4E5
E4E5
E4E5
E4E5
E405
E339
70C2
7C44
7E48
3E50
0E10
0E10
0FE0
0FC0
ENDCHAR
STARTCHAR Ydieresis.salt
ENCODING 57651
SWIDTH 806 0
DWIDTH 16 0
BBX 16 21 0 -2
BITMAP
0FFE
1A52
3842
3844
3FFE
20E1
6565
E4E5
E4E5
E4E5
E4E5
E405
E339
70C2
7C44
7E48
3E50
0E10
0E10
0FE0
0FC0
ENDCHAR
STARTCHAR Ygrave.salt
ENCODING 57652
SWIDTH 806 0
DWIDTH 16 0
BBX 16 22 0 -2
BITMAP
0780
0878
19E4
3814
3FC4
3FFE
20E1
6565
E4E5
E4E5
E4E5
E4E5
E405
E339
70C2
7C44
7E48
3E50
0E10
0E10
0FE0
0FC0
ENDCHAR
STARTCHAR AE.salt
ENCODING 57653
SWIDTH 1113 0
DWIDTH 22 0
BBX 21 17 1 -2
BITMAP
07FFF8
180008
23FFE8
640808
E9C9F0
E9C9E0
E9C810
E9CF90
E80810
E7F9E0
E809C0
E9C838
E9C808
E1C7E8
E1C008
FFFFF0
F9FFE0
ENDCHAR
STARTCHAR IJ.salt
ENCODING 57654
SWIDTH 1133 0
DWIDTH 23 0
BBX 21 18 1 -3
BITMAP
1E00F8
210108
E50328
E50728
E50728
E50728
E50728
E5FF28
E58728
E59728
E59728
E59028
E59848
E1C788
E1E010
FFFFE0
F9FF80
003E00
ENDCHAR
STARTCHAR IJ.stack
ENCODING 57655
SWIDTH 1363 0
DWIDTH 27 0
BBX 25 18 1 -3
BITMAP
3FF00780
40080880
CFE83A80
C1083A80
F9303A80
F9203A80
F9403A80
3947FA80
394C3A80
395D3A80
395D3A80
212D0280
410C8280
CEEC7C80
C00E0100
FFFFFE00
FFCFFC00
0003E000
ENDCHAR
STARTCHAR quoteleft.salt
ENCODING 57656
SWIDTH 407 0
DWIDTH 8 0
BBX 7 8 1 7
BITMAP
1C
32
5C
D2
CA
C2
FC
F8
ENDCHAR
STARTCHAR quoteright.salt
ENCODING 57657
SWIDTH 407 0
DWIDTH 8 0
BBX 7 8 1 7
BITMAP
3E
42
DE
C6
F4
FC
F8
F0
ENDCHAR
STARTCHAR ampersand.salt
ENCODING 57658
SWIDTH 732 0
DWIDTH 15 0
BBX 14 21 0 -4
BITMAP
01E0
0210
064C
0844
09F4
3204
327C
3270
3E08
33E8
2408
64F0
65E0
E41C
E604
E1F4
F844
7E08
3E10
07E0
07C0
ENDCHAR
STARTCHAR caron.2
ENCODING 57659
SWIDTH 600 0
DWIDTH 12 0
BBX 8 8 2 7
BITMAP
1F
21
65
65
E2
E2
FC
F8
ENDCHAR
STARTCHAR indexup
ENCODING 57660
SWIDTH 1100 0
DWIDTH 22 0
BBX 14 17 4 -2
BITMAP
0C00
1200
3200
3200
33C0
72B8
72A8
7008
7008
7008
7008
7808
27F4
2004
6004
FFF8
FFF0
ENDCHAR
STARTCHAR indexdown
ENCODING 57661
SWIDTH 1100 0
DWIDTH 22 0
BBX 14 17 4 -2
BITMAP
1FF8
2004
6004
FFF8
F808
7008
3008
3008
7028
72A8
72B0
73E0
7380
7200
7200
3C00
3000
ENDCHAR
STARTCHAR indexupleft
ENCODING 57662
SWIDTH 1100 0
DWIDTH 22 0
BBX 16 19 3 -3
BITMAP
0C00
1200
3100
7880
7E40
3920
1C10
3210
280E
6409
7011
F822
7C44
3E88
1F10
0E20
0740
0F80
0600
ENDCHAR
STARTCHAR indexupright
ENCODING 57663
SWIDTH 1100 0
DWIDTH 22 0
BBX 16 19 3 -3
BITMAP
0004
000A
0012
0024
00C8
0114
0104
0E0A
1405
2205
7102
F884
FC48
7E30
3F10
1F90
0FE0
07C0
0380
ENDCHAR
STARTCHAR indexdownleft
ENCODING 57664
SWIDTH 1100 0
DWIDTH 22 0
BBX 20 16 1 -2
BITMAP
001800
002400
006200
00F100
00C880
008440
030220
040110
0480A0
0920C0
134380
279500
7FE800
F3F000
40E000
004000
ENDCHAR
STARTCHAR indexdownright
ENCODING 57665
SWIDTH 1100 0
DWIDTH 22 0
BBX 20 16 1 -2
BITMAP
006000
009000
011000
023000
044C00
088200
110100
220080
720240
FE0920
7F0520
2F9790
07CFE0
03F380
01C100
008000
ENDCHAR
STARTCHAR indexdownleft.outline
ENCODING 57666
SWIDTH 1100 0
DWIDTH 22 0
BBX 17 13 4 1
BITMAP
004000
00E000
013000
019800
024C00
042600
081300
100980
240500
490A00
9E9000
A32000
41C000
ENDCHAR
STARTCHAR indexdownright.outline
ENCODING 57667
SWIDTH 1100 0
DWIDTH 22 0
BBX 17 13 4 1
BITMAP
010000
028000
048000
098000
126000
341000
680800
D00400
701200
104A00
093500
04A280
03C100
ENDCHAR
STARTCHAR indexupleft.outline
ENCODING 57668
SWIDTH 1100 0
DWIDTH 22 0
BBX 13 17 6 -1
BITMAP
4000
B000
4800
2400
1200
2900
6080
5080
C070
A048
8090
4120
2240
1C80
0900
0A00
0400
ENDCHAR
STARTCHAR indexupright.outline
ENCODING 57669
SWIDTH 1100 0
DWIDTH 22 0
BBX 13 17 6 -1
BITMAP
0020
0050
0090
0120
0240
04A0
0820
1050
6028
9028
C810
6420
3240
1980
0C80
0680
0300
ENDCHAR
STARTCHAR uni261A.salt
ENCODING 57670
SWIDTH 1100 0
DWIDTH 22 0
BBX 17 12 2 0
BITMAP
1FFF80
200280
600280
FFC280
FF2280
072280
07A280
07C680
03CF80
01DF00
01EE00
018000
ENDCHAR
STARTCHAR uni261B.salt
ENCODING 57671
SWIDTH 1100 0
DWIDTH 22 0
BBX 17 12 3 0
BITMAP
7FFF00
C40080
C41080
C46F00
C44E00
C49000
C46000
C64000
FF4000
FF6000
E78000
070000
ENDCHAR
STARTCHAR indexdown.salt
ENCODING 57672
SWIDTH 1100 0
DWIDTH 22 0
BBX 14 17 4 -2
BITMAP
07F8
0804
3804
3FF8
3C08
3808
1004
23C4
7E24
FE24
4FC8
0FC8
00C8
00E8
00E8
00F0
00E0
ENDCHAR
STARTCHAR indexdownleft.salt
ENCODING 57673
SWIDTH 1100 0
DWIDTH 22 0
BBX 18 15 2 -1
BITMAP
001800
002400
004200
00F100
008880
010440
020240
040240
08C380
113200
239200
67FA00
7BFA00
E13C00
403000
ENDCHAR
STARTCHAR indexdownright.salt
ENCODING 57674
SWIDTH 1100 0
DWIDTH 22 0
BBX 18 15 2 -1
BITMAP
008000
014000
022000
044000
08B800
110400
220200
640100
FC3900
FC4480
4C8C40
0CFE40
0CDFC0
1F8F00
1C0600
ENDCHAR
STARTCHAR indexup.salt
ENCODING 57675
SWIDTH 1100 0
DWIDTH 22 0
BBX 14 17 4 -2
BITMAP
0C00
1200
3200
7200
7200
7380
7240
63BC
6044
7008
7030
7840
67B0
2010
6010
FFE0
FFC0
ENDCHAR
STARTCHAR indexupleft.salt
ENCODING 57676
SWIDTH 1100 0
DWIDTH 22 0
BBX 15 18 4 -3
BITMAP
3800
6400
E300
F080
F840
7E20
3220
1228
3214
7C22
4044
4088
FF10
FE20
8640
0F80
0F00
0400
ENDCHAR
STARTCHAR indexupright.salt
ENCODING 57677
SWIDTH 1100 0
DWIDTH 22 0
BBX 15 18 4 -3
BITMAP
000C
0032
0044
0088
0110
0230
0448
1C28
2428
4218
E106
F082
F87C
7C38
3E50
1F80
0E00
0400
ENDCHAR
STARTCHAR uni261C.salt
ENCODING 57678
SWIDTH 1100 0
DWIDTH 22 0
BBX 14 10 5 2
BITMAP
7FDC
8034
F614
0914
0914
0514
0734
0154
024C
0380
ENDCHAR
STARTCHAR uni261D.salt
ENCODING 57679
SWIDTH 1100 0
DWIDTH 22 0
BBX 11 15 7 0
BITMAP
6000
5000
5000
9000
9000
9C00
9200
95C0
8E20
80C0
4100
4200
FF80
8080
FF80
ENDCHAR
STARTCHAR uni261E.salt
ENCODING 57680
SWIDTH 1100 0
DWIDTH 22 0
BBX 15 10 5 2
BITMAP
EFFC
9002
A0BE
A140
A140
A240
9180
A900
E500
0300
ENDCHAR
STARTCHAR uni261F.salt
ENCODING 57681
SWIDTH 1100 0
DWIDTH 22 0
BBX 11 15 7 0
BITMAP
3FC0
3FE0
4020
3FC0
1040
6040
8020
BE20
5120
0F20
0140
0140
0140
0140
01C0
ENDCHAR
STARTCHAR indexdownleft.salt_outline
ENCODING 57682
SWIDTH 1100 0
DWIDTH 22 0
BBX 15 12 5 1
BITMAP
00C0
0120
0190
0648
0824
1012
201A
4714
4890
94D0
A350
C030
ENDCHAR
STARTCHAR indexdownright.salt_outline
ENCODING 57683
SWIDTH 1100 0
DWIDTH 22 0
BBX 15 12 5 1
BITMAP
0E00
1900
3200
65C0
C820
9010
B010
53C8
1464
1492
270A
1804
ENDCHAR
STARTCHAR indexupleft.salt_outline
ENCODING 57684
SWIDTH 1100 0
DWIDTH 22 0
BBX 13 16 6 -1
BITMAP
6000
9000
4800
2600
1100
1880
2880
48A0
2850
3098
C130
BA60
44C0
0980
0700
0200
ENDCHAR
STARTCHAR indexupright.salt_outline
ENCODING 57685
SWIDTH 1100 0
DWIDTH 22 0
BBX 13 16 6 -1
BITMAP
0030
0050
0190
0220
0440
08C0
0920
1120
70A0
D060
6810
35C8
1A30
0D00
0600
0200
ENDCHAR
STARTCHAR block.v
ENCODING 57687
SWIDTH 1000 0
DWIDTH 20 0
BBX 22 22 -1 -4
BITMAP
FFFFFC
FFFFFC
FFFFFC
FFFFFC
FFFFFC
FFFFFC
FFFFFC
FFFFFC
FFFFFC
FFFFFC
FFFFFC
FFFFFC
FFFFFC
FFFFFC
FFFFFC
FFFFFC
FFFFFC
FFFFFC
FFFFFC
FFFFFC
FFFFFC
FFFFFC
ENDCHAR
STARTCHAR uni25D6.v
ENCODING 57688
SWIDTH 1335 0
DWIDTH 27 0
BBX 21 12 3 1
BITMAP
03FC00
0FFF00
1FFFC0
3FFFE0
7FFFE0
7FFFF0
FFFFF0
FFFFF8
FFFFF8
FFFFF8
FFFFF8
FFFFF8
ENDCHAR
STARTCHAR uni25D7.v
ENCODING 57689
SWIDTH 1335 0
DWIDTH 27 0
BBX 21 12 3 1
BITMAP
FFFFF8
FFFFF8
FFFFF8
FFFFF8
FFFFF8
FFFFF0
7FFFF0
3FFFE0
3FFFC0
1FFF80
07FF00
00F000
ENDCHAR
STARTCHAR uni27A1.w
ENCODING 57690
SWIDTH 650 0
DWIDTH 13 0
BBX 14 30 0 -8
BITMAP
0038
0078
00F8
00F8
01FC
03FC
07FC
07FC
0FFC
1FFC
3FFC
3FFC
7FFC
FFFC
FFFC
FFFC
7FFC
7FFC
3FFC
1FFC
0FFC
0FFC
07FC
03FC
01FC
01FC
00F8
0078
0038
0010
ENDCHAR
STARTCHAR uni27A1.n
ENCODING 57691
SWIDTH 1000 0
DWIDTH 20 0
BBX 30 14 -5 0
BITMAP
0FFFFFC0
FFFFFFFC
FFFFFFFC
7FFFFFF8
3FFFFFF0
1FFFFFE0
0FFFFFC0
03FFFF00
01FFFE00
00FFFC00
003FF000
001FE000
000FC000
00030000
ENDCHAR
STARTCHAR uni27A1.s
ENCODING 57692
SWIDTH 1000 0
DWIDTH 20 0
BBX 30 14 -5 0
BITMAP
00078000
000FC000
003FF000
007FF800
00FFFC00
03FFFF00
07FFFF80
0FFFFFC0
3FFFFFF0
7FFFFFF8
FFFFFFFC
FFFFFFFC
7FFFFFF8
0FFFFFC0
ENDCHAR
STARTCHAR uni2B24.salt
ENCODING 57693
SWIDTH 1280 0
DWIDTH 26 0
BBX 22 23 2 -4
BITMAP
00F800
07FF80
1FFFE0
7FFFF0
7FFFF8
FFFFFC
FFFFFC
FFFFFC
FFFFFC
FFFFFC
FFFFFC
FFFFFC
FFFFFC
FFFFFC
FFFFFC
FFFFFC
FFFFFC
FFFFFC
FFFFFC
7FFFF8
3FFFF0
0FFFC0
03FF00
ENDCHAR
STARTCHAR uni25DD.curve
ENCODING 57694
SWIDTH 1280 0
DWIDTH 26 0
BBX 22 22 2 -4
BITMAP
FFFF00
FFFFC0
FFFFE0
FFFFF0
FFFFF8
FFFFF8
FFFFF8
FFFFF8
FFFFFC
FFFFFC
FFFFFC
FFFFFC
FFFFFC
FFFFFC
FFFFFC
FFFFFC
FFFFFC
FFFFFC
FFFFFC
FFFFFC
FFFFFC
FFFFF8
ENDCHAR
STARTCHAR uni2B1B.trapezoid_e
ENCODING 57695
SWIDTH 1280 0
DWIDTH 26 0
BBX 24 22 2 -4
BITMAP
FFFFFF
FFFFFE
FFFFFE
FFFFFE
FFFFFE
FFFFFE
FFFFFC
FFFFFC
FFFFFC
FFFFFC
FFFFFC
FFFFF8
FFFFF8
FFFFF8
FFFFF8
FFFFF8
FFFFF0
FFFFF0
FFFFF0
FFFFF0
FFFFF0
FFFFE0
ENDCHAR
STARTCHAR uni2B1B.trapezoid_w
ENCODING 57696
SWIDTH 1280 0
DWIDTH 26 0
BBX 24 22 0 -4
BITMAP
FFFFFF
FFFFFF
FFFFFF
7FFFFF
7FFFFF
7FFFFF
7FFFFF
7FFFFF
3FFFFF
3FFFFF
3FFFFF
3FFFFF
3FFFFF
1FFFFF
1FFFFF
1FFFFF
1FFFFF
1FFFFF
0FFFFF
0FFFFF
0FFFFF
0FFFFE
ENDCHAR
STARTCHAR arrowleft.chevron
ENCODING 57697
SWIDTH 1330 0
DWIDTH 27 0
BBX 27 29 0 -7
BITMAP
00100000
00380000
00380000
00780000
00FFFFE0
01FFFFC0
03FFFFC0
03FFFF80
07FFFF80
0FFFFF80
1FFFFF00
3FFFFF00
3FFFFE00
7FFFFE00
FFFFFE00
FFFFFE00
7FFFFE00
3FFFFF00
1FFFFF00
0FFFFF00
0FFFFF80
07FFFF80
03FFFFC0
01FFFFC0
00FFFFC0
00FFFFE0
00780000
00380000
00180000
ENDCHAR
STARTCHAR arrowup.chevron
ENCODING 57698
SWIDTH 1280 0
DWIDTH 26 0
BBX 28 28 -1 -7
BITMAP
000F0000
001F8000
003FC000
007FE000
00FFF000
03FFFC00
07FFFE00
0FFFFF00
1FFFFF80
3FFFFFE0
FFFFFFF0
FFFFFFF0
1FFFFF80
1FFFFF80
1FFFFF80
1FFFFF80
1FFFFF80
1FFFFF80
1FFFFF80
1FFFFF80
1FFFFF80
1FFFFF80
1FFFFF80
1FFFFF80
1FF9FF80
1FC07F80
1F000F80
18000180
ENDCHAR
STARTCHAR arrowright.chevron
ENCODING 57699
SWIDTH 1330 0
DWIDTH 27 0
BBX 27 29 0 -7
BITMAP
00020000
00030000
00038000
0003C000
FFFFE000
FFFFF000
7FFFE800
7FFFF800
3FFFFC00
3FFFFE00
3FFFFF00
1FFFFF00
1FFFFF80
0FFFFFC0
0FFFFFE0
0FFFFFC0
1FFFFFC0
1FFFFF80
1FFFFF00
3FFFFE00
3FFFFA00
7FFFFC00
7FFFF800
7FFFF000
FFFFE000
FFFDC000
00038000
00038000
00030000
ENDCHAR
STARTCHAR arrowdown.chevron
ENCODING 57700
SWIDTH 1280 0
DWIDTH 26 0
BBX 28 28 -1 -7
BITMAP
1C000380
1F801F80
1FE07F80
1FFFFF80
1FFFFF80
1FFFFF80
1FFFFF80
1FFFFF80
1FFFFF80
1FFFFF80
1FFFFF80
1FFFFF80
1FFFFF80
1FFFFF80
1FFFFF80
FFFFFFF0
FFFFFFF0
7FFFFFE0
3FFFFFC0
1FFFFF80
0FFFFF00
07FFFE00
03FFF800
00FFF000
007FE000
003FC000
001F8000
00060000
ENDCHAR
STARTCHAR uni25D6.deco
ENCODING 57701
SWIDTH 560 0
DWIDTH 11 0
BBX 11 25 1 -5
BITMAP
03C0
07C0
0FE0
0FE0
1FE0
3FE0
7FE0
7FE0
FFE0
FFE0
FFE0
FFE0
FFE0
FFE0
FFE0
FFE0
FFE0
FFE0
7FE0
7FE0
3FE0
0FE0
0FE0
07E0
01C0
ENDCHAR
STARTCHAR uni25D7.deco
ENCODING 57702
SWIDTH 560 0
DWIDTH 11 0
BBX 11 25 -1 -5
BITMAP
7800
3C00
FE00
FE00
FF80
FFC0
FFC0
FFE0
FFE0
FFE0
FFE0
FFE0
FFE0
FFE0
FFE0
FFE0
FFE0
FFE0
FFC0
FFC0
FF80
FE00
FE00
FE00
3800
ENDCHAR
STARTCHAR uni25D6.v_deco
ENCODING 57703
SWIDTH 1280 0
DWIDTH 26 0
BBX 25 11 0 1
BITMAP
00FFC000
07FFF000
07FFF800
0FFFF800
3FFFFE00
3FFFFF00
7FFFFF00
FFFFFF80
FFFFFF80
DFFFFF80
3FFFFF00
ENDCHAR
STARTCHAR uni25D7.v_deco
ENCODING 57704
SWIDTH 1280 0
DWIDTH 26 0
BBX 25 12 0 2
BITMAP
3FFFFF00
3FFFFF00
DFFFFE80
FFFFFF80
BFFFFF80
7FFFFF00
3FFFFF00
1FFFFE00
0FFFF800
07FFF800
03FFE000
001E0000
ENDCHAR
STARTCHAR uni25D6.bevel
ENCODING 57705
SWIDTH 350 0
DWIDTH 7 0
BBX 7 22 1 -4
BITMAP
0E
16
3E
3E
FE
FE
FE
FE
FE
FE
FE
FE
FE
FE
FE
FE
FE
7E
3E
3E
0E
06
ENDCHAR
STARTCHAR uni25D7.bevel
ENCODING 57706
SWIDTH 350 0
DWIDTH 7 0
BBX 7 22 -1 -4
BITMAP
E0
D0
F8
F8
FE
FE
FE
FE
FE
FE
FE
FE
FE
FE
FE
FE
FE
FC
F8
F8
E0
C0
ENDCHAR
STARTCHAR uni25D6.v_bevel
ENCODING 57707
SWIDTH 1280 0
DWIDTH 26 0
BBX 22 6 2 4
BITMAP
0FFFC0
3FFFF0
7FFFF0
7FFFF0
FFFFFC
FFFFFC
ENDCHAR
STARTCHAR uni25D7.v_bevel
ENCODING 57708
SWIDTH 1280 0
DWIDTH 26 0
BBX 22 6 2 4
BITMAP
FFFFFC
BFFFFC
7FFFF0
3FFFF0
17FFE0
0FFFC0
ENDCHAR
STARTCHAR uni25D6.spike
ENCODING 57709
SWIDTH 350 0
DWIDTH 7 0
BBX 7 23 1 -4
BITMAP
40
7E
7E
3E
3E
1E
1E
1E
3E
7E
FE
FE
FE
7E
3E
1E
1E
1E
3E
3E
3E
7E
7E
ENDCHAR
STARTCHAR uni25D7.spike
ENCODING 57710
SWIDTH 350 0
DWIDTH 7 0
BBX 7 23 -1 -4
BITMAP
04
FC
FC
F8
F8
F0
F0
F0
F8
FC
FE
FE
FE
FC
F8
F0
F0
F0
F8
F8
F8
FC
FC
ENDCHAR
STARTCHAR uni25D6.v_spike
ENCODING 57711
SWIDTH 1280 0
DWIDTH 26 0
BBX 22 7 2 4
BITMAP
003000
807804
E0FC1C
FDFEFC
FFFFFC
FFFFFC
FFFFFC
ENDCHAR
STARTCHAR uni25D7.v_spike
ENCODING 57712
SWIDTH 1280 0
DWIDTH 26 0
BBX 22 7 2 4
BITMAP
FFFFFC
FFFFFC
FFFFFC
FFFFFC
F1FE7C
C0FC0C
007000
ENDCHAR
STARTCHAR uni25D6.square
ENCODING 57713
SWIDTH 350 0
DWIDTH 7 0
BBX 6 22 2 -4
BITMAP
FC
FC
FC
FC
FC
FC
FC
FC
FC
FC
FC
FC
FC
FC
FC
FC
FC
FC
FC
FC
FC
7C
ENDCHAR
STARTCHAR uni25D7.square
ENCODING 57714
SWIDTH 350 0
DWIDTH 7 0
BBX 6 22 -1 -4
BITMAP
FC
FC
FC
FC
FC
FC
FC
FC
FC
FC
FC
FC
FC
FC
FC
FC
FC
FC
FC
FC
FC
F8
ENDCHAR
STARTCHAR uni25D6.v_square
ENCODING 57715
SWIDTH 1280 0
DWIDTH 26 0
BBX 22 6 2 4
BITMAP
FFFFF8
FFFFFC
FFFFFC
FFFFFC
FFFFFC
FFFFFC
ENDCHAR
STARTCHAR uni25D7.v_square
ENCODING 57716
SWIDTH 1280 0
DWIDTH 26 0
BBX 22 6 2 4
BITMAP
FFFFFC
FFFFFC
FFFFFC
FFFFFC
FFFFFC
7FFFF8
ENDCHAR
STARTCHAR uni25D6.rounded
ENCODING 57717
SWIDTH 350 0
DWIDTH 7 0
BBX 7 22 1 -4
BITMAP
1E
3E
3E
7E
7E
7E
7E
7E
FE
FE
FE
FE
FE
FE
7E
7E
7E
7E
7E
3E
3E
0E
ENDCHAR
STARTCHAR uni25D7.rounded
ENCODING 57718
SWIDTH 350 0
DWIDTH 7 0
BBX 7 22 -1 -4
BITMAP
F0
F8
F8
FC
FC
FC
FC
FC
FE
FE
FE
FE
FE
FE
FC
FC
FC
FC
FC
F8
F8
E0
ENDCHAR
STARTCHAR uni25D6.v_rounded
ENCODING 57719
SWIDTH 1280 0
DWIDTH 26 0
BBX 22 6 2 4
BITMAP
1FFFC0
7FFFF0
7FFFF8
FFFFF8
FFFFFC
FFFFFC
ENDCHAR
STARTCHAR uni25D7.v_rounded
ENCODING 57720
SWIDTH 1280 0
DWIDTH 26 0
BBX 22 6 2 4
BITMAP
FFFFFC
FFFFFC
FFFFF8
7FFFF8
3FFFF0
07FF80
ENDCHAR
STARTCHAR uni21AB.arrow
ENCODING 57721
SWIDTH 1000 0
DWIDTH 20 0
BBX 26 36 -2 -18
BITMAP
7FF00000
7FFE0000
7FFF8000
7FFFC000
7FFFE000
7FFFE000
7FFFF000
7FFFF000
7FFFF800
7FFFF800
7FFFF800
7FFFFC00
7FFFFC00
7FFFFC00
7FFFFC00
7FFFFC00
7FFFFC00
7FFFFC00
7FFFFC00
7FFFFC00
7FFFFC00
7FFFFC00
0FFFFC00
0FFFFC00
FFFFFFC0
7FFFFF80
3FFFFF00
1FFFFE00
0FFFFC00
07FFF800
03FFF000
01FFE000
00FFC000
007F8000
003F0000
000E0000
ENDCHAR
STARTCHAR uni21AC.arrow
ENCODING 57722
SWIDTH 1000 0
DWIDTH 20 0
BBX 26 37 -2 -4
BITMAP
000C0000
001E0000
003F0000
007F8000
00FFC000
01FFF000
03FFF000
07FFF800
1FFFFC00
2FFFFF00
5FFFFF80
7FFFFFC0
F7FFFBC0
0FFFFC00
0FFFFC00
7FFFFC00
7FFFFC00
7FFFFC00
7FFFFC00
7FFFFC00
7FFFFC00
7FFFFC00
7FFFFC00
7FFFFC00
7FFFFC00
7FFFF800
7FFFF800
7FFFF800
7FFFF800
7FFFF000
7FFFF000
7FFFE000
7FFFC000
7FFF8000
7FFF0000
7FFC0000
7F800000
ENDCHAR
STARTCHAR uni21AB.v_arrow
ENCODING 57723
SWIDTH 1335 0
DWIDTH 27 0
BBX 36 25 -12 -6
BITMAP
0010000000
0031FFFFF0
0071FFFFF0
00F3FFFFF0
01FFFFFFF0
03FFFFFFF0
07FFFFFFF0
0FFFFFFFF0
1FFFFFFFF0
3FFFFFFFF0
7FFFFFFFF0
7FFFFFFFF0
FFFFFFFFE0
FFFFFFFFE0
7FFFFFFFE0
3FFFFFFFC0
1FFFFFFF80
0FFFFFFF00
07FFFFFE00
03FFFFFC00
01FFFFF000
00FFFE0000
0070000000
0070000000
0030000000
ENDCHAR
STARTCHAR uni21AC.v_arrow
ENCODING 57724
SWIDTH 1335 0
DWIDTH 27 0
BBX 36 25 3 -6
BITMAP
0000018000
FFFFF9C000
FFFFF9E000
FFFFFDF000
FFFFFFF800
FFFFFFFC00
FFFFFFFE00
FFFFFFFE00
FFFFFFFF00
FFFFFFFFC0
FFFFFFFFA0
FFFFFFFFE0
FFFFFFFFF0
7FFFFFFFF0
7FFFFFFFE0
3FFFFFFFC0
3FFFFFFF80
1FFFFFFF00
0BFFFFFE00
07FFFFFC00
00FFFFF800
000FFFF000
000001E000
000001C000
0000018000
ENDCHAR
STARTCHAR uni25D6.wings
ENCODING 57725
SWIDTH 900 0
DWIDTH 18 0
BBX 19 29 0 -7
BITMAP
0FFE00
0FFE00
0FFE00
0FFF00
FFFFE0
FFFFE0
FFFFE0
FFFFE0
FFFFE0
FFFFE0
FFFFE0
FFFFE0
FFFFE0
FFFFE0
FFFFE0
FFFFE0
FFFFE0
FFFFE0
FFFFE0
FFFFE0
FFFFE0
FFFFE0
FFFFE0
FFFFE0
FFFFE0
77FFE0
0FFF00
0FFE00
0FFE00
ENDCHAR
STARTCHAR uni25D7.wings
ENCODING 57726
SWIDTH 900 0
DWIDTH 18 0
BBX 19 29 -1 -7
BITMAP
0FFE00
0FFE00
0FFE00
1FFE00
FFFFE0
FFFFE0
FFFFE0
FFFFE0
FFFFE0
FFFFE0
FFFFE0
FFFFE0
FFFFE0
FFFFE0
FFFFE0
FFFFE0
FFFFE0
FFFFE0
FFFFE0
FFFFE0
FFFFE0
FFFFE0
FFFFE0
FFFFE0
FFFFE0
FFFDC0
1FFE00
0FFE00
0FFE00
ENDCHAR
STARTCHAR uni25D6.v_wings
ENCODING 57727
SWIDTH 1280 0
DWIDTH 26 0
BBX 29 19 -2 -2
BITMAP
07FFFF80
0FFFFFC0
0FFFFFC0
0FFFFFC0
F7FFFFB8
FFFFFFF8
FFFFFFF8
FFFFFFF8
FFFFFFF8
FFFFFFF8
FFFFFFF8
FFFFFFF8
FFFFFFF8
FFFFFFF8
FFFFFFF8
1FFFFFE0
0FFFFFC0
0FFFFFC0
0FFFFFC0
ENDCHAR
STARTCHAR uni25D7.v_wings
ENCODING 57728
SWIDTH 1280 0
DWIDTH 26 0
BBX 29 19 -2 -2
BITMAP
0FFFFFC0
0FFFFFC0
0FFFFFC0
1FFFFFC0
7FFFFFF8
FFFFFFF8
FFFFFFF8
FFFFFFF8
FFFFFFF8
FFFFFFF8
FFFFFFF8
FFFFFFF8
FFFFFFF8
FFFFFFF8
FFFFFFF8
0FFFFFC0
0FFFFFC0
0FFFFFC0
0FFFFFC0
ENDCHAR
STARTCHAR uni2B1B.chevron_e
ENCODING 57729
SWIDTH 1280 0
DWIDTH 26 0
BBX 26 22 0 -4
BITMAP
FFFFFC00
FFFFFC00
7FFFFC00
7FFFFE00
3FFFFE00
3FFFFF00
3FFFFF00
1FFFFF00
1FFFFF80
0FFFFF80
0FFFFFC0
0FFFFF80
1FFFFF80
1FFFFF80
1FFFFF00
3FFFFF00
3FFFFE00
7FFFFE00
7FFFFE00
7FFFFC00
FFFFFC00
FFFFF800
ENDCHAR
STARTCHAR uni2B1B.chevron_n
ENCODING 57730
SWIDTH 1280 0
DWIDTH 26 0
BBX 22 26 2 -6
BITMAP
007800
03FE00
0FFFC0
7FFFF0
FFFFFC
FFFFFC
FFFFFC
FFFFFC
FFFFFC
FFFFFC
FFFFFC
FFFFFC
FFFFFC
FFFFFC
FFFFFC
FFFFFC
FFFFFC
FFFFFC
FFFFFC
FFFFFC
FFFFFC
FFFFFC
FF07FC
FC00FC
E0003C
800004
ENDCHAR
STARTCHAR uni2B1B.chevron_s
ENCODING 57731
SWIDTH 1280 0
DWIDTH 26 0
BBX 22 25 2 -5
BITMAP
E0001C
F8007C
FF03FC
FFDFFC
FFFFFC
FFFFFC
FFFFFC
FFFFFC
FFFFFC
FFFFFC
FFFFFC
FFFFFC
FFFFFC
FFFFFC
FFFFFC
FFFFFC
FFFFFC
FFFFFC
FFFFFC
FFFFFC
FFFFFC
7FFFF8
1FFFC0
03FF00
00F800
ENDCHAR
STARTCHAR uni2B1B.chevron_w
ENCODING 57732
SWIDTH 1280 0
DWIDTH 26 0
BBX 26 22 0 -4
BITMAP
0FFFFFC0
0FFFFF80
1FFFFF80
1FFFFF00
3FFFFF00
3FFFFF00
3FFFFE00
7FFFFE00
7FFFFC00
FFFFFC00
FFFFFC00
FFFFFC00
7FFFFC00
7FFFFE00
7FFFFE00
3FFFFE00
3FFFFF00
1FFFFF00
1FFFFF80
1FFFFF80
0FFFFF80
0FFFFFC0
ENDCHAR
STARTCHAR uni2B1B.semichevron_e
ENCODING 57733
SWIDTH 650 0
DWIDTH 13 0
BBX 14 22 0 -4
BITMAP
FFFC
FFFC
7FFC
7FFC
3FFC
3FFC
3FFC
1FFC
1FFC
0FFC
0FFC
0FFC
1FFC
1FFC
1FFC
3FFC
3FFC
7FFC
7FFC
7FFC
FFFC
FFFC
ENDCHAR
STARTCHAR uni2B1B.semichevron_w
ENCODING 57734
SWIDTH 650 0
DWIDTH 13 0
BBX 14 22 -1 -4
BITMAP
FFFC
FFFC
FFF8
FFF8
FFF0
FFF0
FFF0
FFE0
FFE0
FFE0
FFC0
FFC0
FFE0
FFE0
FFF0
FFF0
FFF0
FFF8
FFF8
FFF8
FFFC
FFFC
ENDCHAR
STARTCHAR uni2B1B.semichevron_n
ENCODING 57735
SWIDTH 1000 0
DWIDTH 20 0
BBX 22 14 -1 0
BITMAP
E0001C
F8007C
FF03FC
FFCFFC
FFFFFC
FFFFFC
FFFFFC
FFFFFC
FFFFFC
FFFFFC
FFFFFC
FFFFFC
FFFFFC
FFFFFC
ENDCHAR
STARTCHAR uni2B1B.semichevron_s
ENCODING 57736
SWIDTH 1000 0
DWIDTH 20 0
BBX 22 14 -1 0
BITMAP
FFFFFC
FFFFFC
FFFFFC
FFFFFC
FFFFFC
FFFFFC
FFFFFC
FFFFFC
FFFFFC
FFFFFC
FF87FC
FC00FC
F0003C
800004
ENDCHAR
STARTCHAR space.v
ENCODING 57737
SWIDTH 1000 0
DWIDTH 20 0
BBX 1 1 0 0
BITMAP
00
ENDCHAR
STARTCHAR Agrave.v
ENCODING 57738
SWIDTH 1000 0
DWIDTH 20 0
BBX 15 21 3 -2
BITMAP
0FC0
1038
33E8
7008
7FE8
7810
1008
33C8
3428
64A4
6494
69D2
C812
C80A
CFFA
C80A
C9CA
C1C2
C3C2
FDFC
F9F8
ENDCHAR
STARTCHAR Aacute.v
ENCODING 57739
SWIDTH 1000 0
DWIDTH 20 0
BBX 15 21 3 -2
BITMAP
01F8
0E08
13E8
3008
77F0
7810
7008
33C8
3428
64A4
6494
69D2
C812
C80A
CFFA
C80A
C9CA
C1C2
C3C2
FDFC
F9F8
ENDCHAR
STARTCHAR Acircumflex.v
ENCODING 57740
SWIDTH 1000 0
DWIDTH 20 0
BBX 15 21 3 -2
BITMAP
07E0
0898
1368
3008
77E8
7810
7008
33C8
3428
64A4
6494
69D2
C812
C80A
CFFA
C80A
C9CA
C1C2
C3C2
FDFC
F9F8
ENDCHAR
STARTCHAR Atilde.v
ENCODING 57741
SWIDTH 1000 0
DWIDTH 20 0
BBX 15 20 3 -2
BITMAP
0FF8
13E8
3008
77F0
7810
7008
33C8
3428
64A4
6494
69D2
C812
C80A
CFFA
C80A
C9CA
C1C2
C3C2
FDFC
F9F8
ENDCHAR
STARTCHAR Adieresis.v
ENCODING 57742
SWIDTH 1000 0
DWIDTH 20 0
BBX 15 20 3 -2
BITMAP
1FF8
34A8
7088
7FF8
7810
7008
33C8
3428
64A4
6494
69D2
C812
C80A
CFFA
C80A
C9CA
C1C2
C3C2
FDFC
F9F8
ENDCHAR
STARTCHAR Aring.v
ENCODING 57743
SWIDTH 1000 0
DWIDTH 20 0
BBX 16 21 2 -2
BITMAP
03F8
05E4
0A14
1ACC
3AEC
3B14
3CE4
3914
1A12
324A
32CA
74E9
6405
67FD
6405
6405
E4E5
E0E1
E1E1
FEFE
7CF8
ENDCHAR
STARTCHAR Amacron.v
ENCODING 57744
SWIDTH 1000 0
DWIDTH 20 0
BBX 15 20 3 -2
BITMAP
1FF8
13E8
7008
7FF8
7810
7008
33C8
3428
64A4
6494
69D2
C812
C80A
CFFA
C80A
C9CA
C1C2
C3C2
FDFC
F9F8
ENDCHAR
STARTCHAR Abreve.v
ENCODING 57745
SWIDTH 1000 0
DWIDTH 20 0
BBX 15 21 3 -2
BITMAP
1F78
3188
7628
79C8
7FF0
3810
1008
33C8
3428
64A4
6494
69D2
C812
C80A
CFFA
C80A
C9CA
C1C2
C3C2
FDFC
F9F8
ENDCHAR
STARTCHAR Aogonek.v
ENCODING 57746
SWIDTH 1000 0
DWIDTH 20 0
BBX 15 20 3 -5
BITMAP
07F0
0808
13C8
3428
64A4
6494
6992
C852
C80A
CFFA
C80A
C9CA
C1D2
C1D2
FFD4
F992
F18A
01C2
01FC
01F0
ENDCHAR
STARTCHAR Ccedilla.v
ENCODING 57747
SWIDTH 1000 0
DWIDTH 20 0
BBX 15 19 2 -4
BITMAP
07FE
0802
13FA
2402
64FE
64FC
E4F8
E500
E500
E500
E4FE
E602
F1FA
7842
7F5E
3E18
0E30
0FC0
0F80
ENDCHAR
STARTCHAR Cacute.v
ENCODING 57748
SWIDTH 1000 0
DWIDTH 20 0
BBX 15 21 2 -2
BITMAP
00FC
0704
09F4
1804
19F8
1E06
1002
13FA
2402
64FE
64FC
E4F0
E500
E500
E500
E4FE
E202
71FA
7802
7FFC
3FF8
ENDCHAR
STARTCHAR Ccircumflex.v
ENCODING 57749
SWIDTH 1000 0
DWIDTH 20 0
BBX 15 21 2 -2
BITMAP
01F0
064C
09B4
1804
1BFC
1C02
1002
13FA
2402
64FE
64FC
E4F0
E500
E500
E500
E4FE
E202
71FA
7802
7FFC
3FF8
ENDCHAR
STARTCHAR Cdotaccent.v
ENCODING 57750
SWIDTH 1000 0
DWIDTH 20 0
BBX 15 21 2 -2
BITMAP
01F0
0210
0650
0E10
0FF0
0C0E
0802
13FA
2402
64FE
64FC
E4F0
E500
E500
E500
E4FE
E202
71FA
7802
7FFC
3FF8
ENDCHAR
STARTCHAR Ccaron.v
ENCODING 57751
SWIDTH 1000 0
DWIDTH 20 0
BBX 15 21 2 -2
BITMAP
07BC
0844
19F4
1C04
1FF8
1C0E
0802
13FA
2402
64FE
64FC
E4F0
E500
E500
E500
E4FE
E202
71FA
7802
7FFC
3FF8
ENDCHAR
STARTCHAR Dcaron.v
ENCODING 57752
SWIDTH 1000 0
DWIDTH 20 0
BBX 15 21 3 -2
BITMAP
1F78
3088
73E8
7818
7FE0
4018
4004
CFE2
C812
C9CA
C9CA
C9CA
C9CA
C9CA
C9CA
C80A
C832
C7C4
C008
FFF0
FFE0
ENDCHAR
STARTCHAR Egrave.v
ENCODING 57753
SWIDTH 1000 0
DWIDTH 20 0
BBX 14 21 3 -2
BITMAP
0FC0
1038
33E8
7008
7FF8
4004
4004
CFF4
C804
C9F8
C808
C808
CFE8
C808
C9F0
C80C
C804
C7F4
C004
FFF8
FFF0
ENDCHAR
STARTCHAR Eacute.v
ENCODING 57754
SWIDTH 1000 0
DWIDTH 20 0
BBX 14 21 3 -2
BITMAP
01F8
0E08
13E8
3008
7FF0
400C
4004
CFF4
C804
C9F8
C808
C808
CFE8
C808
C9F0
C80C
C804
C7F4
C004
FFF8
FFF0
ENDCHAR
STARTCHAR Ecircumflex.v
ENCODING 57755
SWIDTH 1000 0
DWIDTH 20 0
BBX 14 21 3 -2
BITMAP
07E0
0898
1368
3008
7FF8
4004
4004
CFF4
C804
C9F8
C808
C808
CFE8
C808
C9F0
C80C
C804
C7F4
C004
FFF8
FFF0
ENDCHAR
STARTCHAR Edieresis.v
ENCODING 57756
SWIDTH 1000 0
DWIDTH 20 0
BBX 14 20 3 -2
BITMAP
1FF8
34A8
7088
7FF8
4004
4004
CFF4
C804
C9F8
C808
C808
CFE8
C808
C9F0
C80C
C804
C7F4
C004
FFF8
FFF0
ENDCHAR
STARTCHAR Emacron.v
ENCODING 57757
SWIDTH 1000 0
DWIDTH 20 0
BBX 14 20 3 -2
BITMAP
1FF8
13E8
7008
7FF8
4004
4004
CFF4
C804
C9F8
C808
C808
CFE8
C808
C9F0
C80C
C804
C7F4
C004
FFF8
FFF0
ENDCHAR
STARTCHAR Ebreve.v
ENCODING 57758
SWIDTH 1000 0
DWIDTH 20 0
BBX 14 21 3 -2
BITMAP
1F78
3188
7428
73C8
7FF0
401C
4004
CFF4
C804
C9F8
C808
C808
CFE8
C808
C9F0
C80C
C804
C7F4
C004
FFF8
FFF0
ENDCHAR
STARTCHAR Edotaccent.v
ENCODING 57759
SWIDTH 1000 0
DWIDTH 20 0
BBX 14 21 3 -2
BITMAP
03E0
0420
0CA0
1C20
1FE0
201C
4004
CFF4
C804
C9F8
C808
C808
CFE8
C808
C9F0
C80C
C804
C7F4
C004
FFF8
FFF0
ENDCHAR
STARTCHAR Eogonek.v
ENCODING 57760
SWIDTH 1000 0
DWIDTH 20 0
BBX 14 20 3 -5
BITMAP
3FFC
4004
CFF4
C804
C9FC
C9F8
C808
CFE8
C808
C9F0
C80C
C804
C7F4
C014
FFA4
FFA4
FF94
03C4
03F8
01F0
ENDCHAR
STARTCHAR Ecaron.v
ENCODING 57761
SWIDTH 1000 0
DWIDTH 20 0
BBX 14 21 3 -2
BITMAP
1F78
3088
73E8
7818
7FE0
401C
4004
CFF4
C804
C9F8
C808
C808
CFE8
C808
C9F0
C80C
C804
C7F4
C004
FFF8
FFF0
ENDCHAR
STARTCHAR Gcircumflex.v
ENCODING 57762
SWIDTH 1000 0
DWIDTH 20 0
BBX 16 21 2 -2
BITMAP
03F0
044C
09B4
1804
3BFC
3C04
3002
13F2
6402
64FC
64F0
E4FE
E521
E565
E4E5
E405
E205
F1F9
7801
7FFE
3FF8
ENDCHAR
STARTCHAR Gbreve.v
ENCODING 57763
SWIDTH 1000 0
DWIDTH 20 0
BBX 16 21 2 -2
BITMAP
0FBC
18C4
3A14
39E4
3FF8
1C0C
1002
13F2
6402
64FC
64F0
E4FE
E521
E565
E4E5
E405
E205
F1F9
7801
7FFE
3FF8
ENDCHAR
STARTCHAR Gdotaccent.v
ENCODING 57764
SWIDTH 1000 0
DWIDTH 20 0
BBX 16 21 2 -2
BITMAP
01F0
0210
0650
0E10
0FF0
0C0C
0802
13F2
6402
64FC
64F0
E4FE
E521
E565
E4E5
E405
E205
F1F9
7801
7FFE
3FF8
ENDCHAR
STARTCHAR Gcommaaccent.v
ENCODING 57765
SWIDTH 1000 0
DWIDTH 20 0
BBX 16 23 2 -8
BITMAP
07FC
0802
13F2
2402
64FC
64F8
E4FE
E521
E565
E4E5
E405
E605
71F9
7801
7FFE
3E0C
0EC8
0E30
0FB0
0EF0
0E20
07C0
0F80
ENDCHAR
STARTCHAR Hcircumflex.v
ENCODING 57766
SWIDTH 1000 0
DWIDTH 20 0
BBX 15 21 3 -2
BITMAP
07E0
0898
1368
3008
7FF8
41C6
41C2
C9CA
C9CA
C9CA
C80A
C80A
CFFA
C80A
C9CA
C9CA
C9CA
C1C2
C1C2
FFFC
F9F0
ENDCHAR
STARTCHAR Igrave.v
ENCODING 57767
SWIDTH 1000 0
DWIDTH 20 0
BBX 14 21 3 -2
BITMAP
0FC0
1038
33E8
7008
7FF8
6004
4004
CFF4
C084
FC9C
FC98
FCA0
1CA0
1CA0
1CA0
209C
4084
CF74
E004
FFF8
FFF0
ENDCHAR
STARTCHAR Iacute.v
ENCODING 57768
SWIDTH 1000 0
DWIDTH 20 0
BBX 14 21 3 -2
BITMAP
01F8
0E08
13E8
3008
7FF0
600C
4004
CFF4
C084
FC9C
FC98
FCA0
1CA0
1CA0
1CA0
209C
4084
CF74
E004
FFF8
FFF0
ENDCHAR
STARTCHAR Icircumflex.v
ENCODING 57769
SWIDTH 1000 0
DWIDTH 20 0
BBX 14 21 3 -2
BITMAP
07E0
0898
1368
3008
7FF8
6004
4004
CFF4
C084
FC9C
FC98
FCA0
1CA0
1CA0
1CA0
209C
4084
CF74
E004
FFF8
FFF0
ENDCHAR
STARTCHAR Idieresis.v
ENCODING 57770
SWIDTH 1000 0
DWIDTH 20 0
BBX 14 20 3 -2
BITMAP
1FF8
34A8
7088
7FF8
6004
4004
CFF4
C084
FC9C
FC98
FCA0
1CA0
1CA0
1CA0
209C
4084
CF74
E004
FFF8
FFF0
ENDCHAR
STARTCHAR Itilde.v
ENCODING 57771
SWIDTH 1000 0
DWIDTH 20 0
BBX 14 20 3 -2
BITMAP
0FF8
13E8
3008
7FF0
600C
4004
CFF4
C084
FC9C
FC98
FCA0
1CA0
1CA0
1CA0
209C
4084
CF74
E004
FFF8
FFF0
ENDCHAR
STARTCHAR Imacron.v
ENCODING 57772
SWIDTH 1000 0
DWIDTH 20 0
BBX 14 20 3 -2
BITMAP
1FF8
13E8
7008
7FF8
6004
4004
CFF4
C084
FC9C
FC90
FCA0
1CA0
1CA0
1CA0
209C
4084
CF74
E004
FFF8
FFF0
ENDCHAR
STARTCHAR Ibreve.v
ENCODING 57773
SWIDTH 1000 0
DWIDTH 20 0
BBX 14 21 3 -2
BITMAP
1F78
3188
7428
73C8
7FF0
601C
4004
CFF4
C084
FC9C
FC98
FCA0
1CA0
1CA0
1CA0
209C
4084
CF74
E004
FFF8
FFF0
ENDCHAR
STARTCHAR Iogonek.v
ENCODING 57774
SWIDTH 1000 0
DWIDTH 20 0
BBX 14 20 3 -5
BITMAP
3FFC
4004
CFF4
C084
FC9C
FC98
FC90
1CA0
1CA0
1CA0
209C
4084
CF74
C014
FFA4
FFA4
FF94
03C4
03F8
01F0
ENDCHAR
STARTCHAR Idotaccent.v
ENCODING 57775
SWIDTH 1000 0
DWIDTH 20 0
BBX 14 21 3 -2
BITMAP
03E0
0420
0CA0
1C20
1FE0
201C
4004
CFF4
C084
FC9C
FC98
FCA0
1CA0
1CA0
1CA0
209C
4084
CF74
E004
FFF8
FFF0
ENDCHAR
STARTCHAR Jcircumflex.v
ENCODING 57776
SWIDTH 1000 0
DWIDTH 20 0
BBX 15 22 3 -3
BITMAP
01F8
0226
05DA
1C02
1DFE
1FC2
1CC2
01D2
01D2
01D2
01D2
3FD2
41D2
C9D2
C9D2
C812
C412
E3E4
F008
FFF0
7FE0
1F00
ENDCHAR
STARTCHAR Kcommaaccent.v
ENCODING 57777
SWIDTH 1000 0
DWIDTH 20 0
BBX 15 23 3 -8
BITMAP
3E7C
4284
C994
C928
C928
C848
C844
CFA2
C812
C9CA
C9CA
C9CA
C1C2
C1C2
FFFC
FE18
F590
1C60
1F60
1DE0
1C40
0F80
1F00
ENDCHAR
STARTCHAR Lacute.v
ENCODING 57778
SWIDTH 1000 0
DWIDTH 20 0
BBX 15 21 3 -2
BITMAP
07E0
3820
4FA0
C020
DFC0
E180
C200
CA00
CA00
CA00
CA00
CA3E
CA42
CACA
C9CA
C80A
C80A
C7F2
C002
FFFC
FFF0
ENDCHAR
STARTCHAR Lcommaaccent.v
ENCODING 57779
SWIDTH 1000 0
DWIDTH 20 0
BBX 15 23 3 -8
BITMAP
3E00
4200
CA00
CA00
CA00
CA00
CA3C
CA42
CACA
C9CA
C80A
C80A
C7F2
C002
FFFC
FC18
FD90
1C60
1F60
1DE0
1C40
0F80
1F00
ENDCHAR
STARTCHAR Lcaron.v
ENCODING 57780
SWIDTH 1000 0
DWIDTH 20 0
BBX 15 17 3 -2
BITMAP
3E3E
4242
CACA
CACA
CAC4
C9C4
C9F8
C9C6
CA42
C9CA
C9CA
C80A
C80A
C7F2
C002
FFFC
FFF0
ENDCHAR
STARTCHAR Ntilde.v
ENCODING 57781
SWIDTH 1000 0
DWIDTH 20 0
BBX 15 20 3 -2
BITMAP
0FF8
13E8
3008
7FB0
43CE
41C2
C8CA
CC4A
CA4A
C90A
C88A
CA4A
C92A
C912
C98A
C9CA
C1C2
C1C2
FFFC
F9F0
ENDCHAR
STARTCHAR Nacute.v
ENCODING 57782
SWIDTH 1000 0
DWIDTH 20 0
BBX 15 21 3 -2
BITMAP
01F8
0E08
13E8
3008
7FF0
43CE
4242
C9CA
CC4A
CA4A
C90A
C88A
CA4A
C92A
C912
C98A
C9CA
C1C2
C1C2
FFFC
F9F0
ENDCHAR
STARTCHAR Ncommaaccent.v
ENCODING 57783
SWIDTH 1000 0
DWIDTH 20 0
BBX 15 23 3 -8
BITMAP
3C3C
4242
C9CA
CCCA
CA4A
C90A
C88A
C84A
C92A
C912
C992
C9CA
C1C2
C1C2
FFFC
FE18
F590
1C60
1F60
1DE0
1C40
0F80
1F00
ENDCHAR
STARTCHAR Ncaron.v
ENCODING 57784
SWIDTH 1000 0
DWIDTH 20 0
BBX 15 21 3 -2
BITMAP
1F78
3088
73E8
7818
7E60
43DE
4142
C8CA
CC4A
CA4A
C90A
C88A
CA4A
C92A
C912
C98A
C9CA
C1C2
C1C2
FFFC
F9F0
ENDCHAR
STARTCHAR Ograve.v
ENCODING 57785
SWIDTH 1000 0
DWIDTH 20 0
BBX 16 22 2 -3
BITMAP
07E0
081C
19F4
3804
3FFC
3C04
1042
23B9
6409
64E5
E4E5
E4E5
E4E5
E4E5
E4E5
E405
E209
F1F2
7804
7FF8
3FF0
0F80
ENDCHAR
STARTCHAR Oacute.v
ENCODING 57786
SWIDTH 1000 0
DWIDTH 20 0
BBX 16 22 2 -3
BITMAP
00FC
0704
09F4
1804
3BF8
3C04
3042
23B9
6409
64E5
E4E5
E4E5
E4E5
E4E5
E4E5
E405
E209
F1F2
7804
7FF8
3FF0
0F80
ENDCHAR
STARTCHAR Ocircumflex.v
ENCODING 57787
SWIDTH 1000 0
DWIDTH 20 0
BBX 16 22 2 -3
BITMAP
03F0
044C
09B4
1804
3BFC
3C04
3042
23B9
6409
64E5
E4E5
E4E5
E4E5
E4E5
E4E5
E405
E209
F1F2
7804
7FF8
3FF0
0F80
ENDCHAR
STARTCHAR Otilde.v
ENCODING 57788
SWIDTH 1000 0
DWIDTH 20 0
BBX 16 21 2 -3
BITMAP
07FC
09F4
1804
3BF8
3C04
3042
23B9
6409
64E5
E4E5
E4E5
E4E5
E4E5
E4E5
E405
E209
F1F2
7804
7FF8
3FF0
0F80
ENDCHAR
STARTCHAR Odieresis.v
ENCODING 57789
SWIDTH 1000 0
DWIDTH 20 0
BBX 16 21 2 -3
BITMAP
0FFC
1A54
3844
3FFC
3C04
3042
23B9
6409
64E5
E4E5
E4E5
E4E5
E4E5
E4E5
E405
E209
F1F2
7804
7FF8
3FF0
0F80
ENDCHAR
STARTCHAR Omacron.v
ENCODING 57790
SWIDTH 1000 0
DWIDTH 20 0
BBX 16 21 2 -3
BITMAP
0FFC
09F4
3804
3FFC
3C04
3042
23B9
6409
64E5
E4E5
E4E5
E4E5
E4E5
E4E5
E405
E209
F1F2
7804
7FF8
3FF0
0F80
ENDCHAR
STARTCHAR Obreve.v
ENCODING 57791
SWIDTH 1000 0
DWIDTH 20 0
BBX 16 22 2 -3
BITMAP
0FBC
18C4
3A14
39E4
3FF8
1C0C
1042
23B9
6409
64E5
E4E5
E4E5
E4E5
E4E5
E4E5
E405
E209
F1F2
7804
7FF8
3FF0
0F80
ENDCHAR
STARTCHAR Ohungarumlaut.v
ENCODING 57792
SWIDTH 1000 0
DWIDTH 20 0
BBX 16 23 2 -3
BITMAP
07FE
0C62
1D6A
194A
1844
1FFC
3C04
3042
23B9
6409
64E5
E4E5
E4E5
E4E5
E4E5
E4E5
E405
E209
F1F2
7804
7FF8
3FF0
0F80
ENDCHAR
STARTCHAR Racute.v
ENCODING 57793
SWIDTH 1000 0
DWIDTH 20 0
BBX 15 21 3 -2
BITMAP
03F0
1C08
33C8
7018
7FE0
4010
4008
CFE4
C814
C994
C994
C818
CFE4
C812
C80A
C9CA
C9CA
C1C2
C1C2
FFFC
F9F8
ENDCHAR
STARTCHAR Rcommaaccent.v
ENCODING 57794
SWIDTH 1000 0
DWIDTH 20 0
BBX 15 23 3 -8
BITMAP
3FF0
4008
CFC4
C824
C994
C994
C918
C824
CFD2
C80A
C9CA
C9CA
C1C2
C1C2
FFFC
FE18
F590
1C60
1F60
1DE0
1C40
0F80
1F00
ENDCHAR
STARTCHAR Rcaron.v
ENCODING 57795
SWIDTH 1000 0
DWIDTH 20 0
BBX 15 21 3 -2
BITMAP
1F78
3088
73E8
7818
7FE0
4010
4008
CFE4
C814
C994
C994
C818
CFE4
C812
C80A
C9CA
C9CA
C1C2
C1C2
FFFC
F9F8
ENDCHAR
STARTCHAR Sacute.v
ENCODING 57796
SWIDTH 1000 0
DWIDTH 20 0
BBX 15 21 3 -2
BITMAP
01F8
0E08
13E8
3008
77F0
780C
6004
27F4
C804
C9F8
C808
C604
E1E2
F012
FFCA
E00A
4012
CFE4
C008
FFF0
FFE0
ENDCHAR
STARTCHAR Scircumflex.v
ENCODING 57797
SWIDTH 1000 0
DWIDTH 20 0
BBX 15 21 3 -2
BITMAP
07E0
0898
1368
3008
77F8
7804
6004
27F4
C804
C9F8
C808
C604
E1E2
F012
FFCA
E00A
4012
CFE4
C008
FFF0
FFE0
ENDCHAR
STARTCHAR Scedilla.v
ENCODING 57798
SWIDTH 1000 0
DWIDTH 20 0
BBX 15 19 3 -4
BITMAP
0FFC
1004
27F4
4804
C9F8
C818
C804
E7E2
E012
FFCA
FFCA
4012
CFE4
C08C
FD30
F860
F8C0
1F00
3E00
ENDCHAR
STARTCHAR Scaron.v
ENCODING 57799
SWIDTH 1000 0
DWIDTH 20 0
BBX 15 21 3 -2
BITMAP
1F78
3088
73E8
7818
7FE0
781C
2004
27F4
C804
C9F8
C808
C604
E1E2
F012
FFCA
E00A
4012
CFE4
C008
FFF0
FFE0
ENDCHAR
STARTCHAR Scommaaccent.v
ENCODING 57800
SWIDTH 1000 0
DWIDTH 20 0
BBX 15 23 3 -8
BITMAP
0FFC
1004
27F4
4804
C9F8
C818
C804
E7E2
E012
FFCA
FFCA
4012
CFE4
C00C
FFF0
FC20
FDA0
1C60
1F60
1DE0
1C40
0F80
1F00
ENDCHAR
STARTCHAR Tcommaaccent.v
ENCODING 57801
SWIDTH 1000 0
DWIDTH 20 0
BBX 15 21 3 -6
BITMAP
3FFC
4002
CFFA
C082
FC9C
FC98
FC90
1CA0
1CA0
1CA0
1CA0
1C20
1FE0
1C20
1DA0
1C60
1F60
1DE0
1C40
1F80
1F00
ENDCHAR
STARTCHAR Tcaron.v
ENCODING 57802
SWIDTH 1000 0
DWIDTH 20 0
BBX 15 21 3 -2
BITMAP
1F78
3088
73E8
7818
7FE0
401E
4002
CFFA
C082
FC9C
FC98
FC90
1CA0
1CA0
1CA0
1CA0
1CA0
1C20
1C20
1FC0
1F80
ENDCHAR
STARTCHAR Ugrave.v
ENCODING 57803
SWIDTH 1000 0
DWIDTH 20 0
BBX 15 22 3 -3
BITMAP
0FC0
1038
33E8
7008
7FF8
41C6
41C2
C9CA
C9CA
C9CA
C9CA
C9CA
C9CA
C9CA
C9CA
C812
C412
E3E4
F008
FFF0
7FE0
1F00
ENDCHAR
STARTCHAR Uacute.v
ENCODING 57804
SWIDTH 1000 0
DWIDTH 20 0
BBX 15 22 3 -3
BITMAP
01F8
0E08
1BE8
3808
3FF0
21CE
42C2
C9CA
C9CA
C9CA
C9CA
C9CA
C9CA
C9CA
C9CA
C812
C412
E3E4
F008
FFF0
7FE0
1F00
ENDCHAR
STARTCHAR Ucircumflex.v
ENCODING 57805
SWIDTH 1000 0
DWIDTH 20 0
BBX 15 22 3 -3
BITMAP
07E0
0898
1368
3008
7FF8
41C6
41C2
C9CA
C9CA
C9CA
C9CA
C9CA
C9CA
C9CA
C9CA
C812
C412
E3E4
F008
FFF0
7FE0
1F00
ENDCHAR
STARTCHAR Udieresis.v
ENCODING 57806
SWIDTH 1000 0
DWIDTH 20 0
BBX 15 21 3 -3
BITMAP
1FF8
34A8
7088
7FF8
41C6
41C2
C9CA
C9CA
C9CA
C9CA
C9CA
C9CA
C9CA
C9CA
C812
C412
E3E4
F008
FFF0
7FE0
1F00
ENDCHAR
STARTCHAR Utilde.v
ENCODING 57807
SWIDTH 1000 0
DWIDTH 20 0
BBX 15 21 3 -3
BITMAP
0FF8
13E8
3008
7FB0
41CE
41C2
C9CA
C9CA
C9CA
C9CA
C9CA
C9CA
C9CA
C9CA
C812
C412
E3E4
F008
FFF0
7FE0
1F00
ENDCHAR
STARTCHAR Umacron.v
ENCODING 57808
SWIDTH 1000 0
DWIDTH 20 0
BBX 15 21 3 -3
BITMAP
1FF8
13E8
7008
7FF8
41C6
41C2
C9CA
C9CA
C9CA
C9CA
C9CA
C9CA
C9CA
C9CA
C812
C412
E3E4
F008
FFF0
7FE0
1F00
ENDCHAR
STARTCHAR Ubreve.v
ENCODING 57809
SWIDTH 1000 0
DWIDTH 20 0
BBX 15 22 3 -3
BITMAP
1F78
3188
7428
73C8
7E30
41DE
41C2
C9CA
C9CA
C9CA
C9CA
C9CA
C9CA
C9CA
C9CA
C812
C412
E3E4
F008
FFF0
7FE0
1F00
ENDCHAR
STARTCHAR Uring.v
ENCODING 57810
SWIDTH 1000 0
DWIDTH 20 0
BBX 15 25 3 -3
BITMAP
0FF0
13E8
3428
75D8
7598
7628
71C8
7E30
41DE
41C2
C9CA
C9CA
C9CA
C9CA
C9CA
C9CA
C9CA
C9CA
C812
C412
E3E4
F008
FFF0
7FE0
1F00
ENDCHAR
STARTCHAR Uhungarumlaut.v
ENCODING 57811
SWIDTH 1000 0
DWIDTH 20 0
BBX 15 23 3 -3
BITMAP
0FFC
18C4
3AD4
32D4
3088
3FF8
41C6
41C2
C9CA
C9CA
C9CA
C9CA
C9CA
C9CA
C9CA
C9CA
C812
C412
E3E4
F008
FFF0
7FE0
1F00
ENDCHAR
STARTCHAR Uogonek.v
ENCODING 57812
SWIDTH 1000 0
DWIDTH 20 0
BBX 15 20 3 -5
BITMAP
3E3C
4242
CACA
C9CA
C9CA
C9CA
C9CA
C9CA
C9CA
C9CA
C892
C412
E3E4
F08C
FD30
7D10
3C90
1E10
1FE0
0F80
ENDCHAR
STARTCHAR Wcircumflex.v
ENCODING 57813
SWIDTH 1000 0
DWIDTH 20 0
BBX 16 21 2 -2
BITMAP
03F0
044C
09B4
1804
3FFC
21F3
21F1
E575
E575
E595
E515
E515
E4E5
E4A5
E525
E555
F555
F2CA
70E2
7FFC
7CF8
ENDCHAR
STARTCHAR Wgrave.v
ENCODING 57814
SWIDTH 1000 0
DWIDTH 20 0
BBX 16 21 2 -2
BITMAP
07E0
081C
19F4
3804
3FFC
21F3
21F1
E575
E575
E595
E515
E515
E4E5
E4A5
E525
E555
F555
F2CA
70E2
7FFC
7CF8
ENDCHAR
STARTCHAR Wacute.v
ENCODING 57815
SWIDTH 1000 0
DWIDTH 20 0
BBX 16 21 2 -2
BITMAP
00FC
0704
09F4
1804
1FF8
21F7
2131
E575
E575
E595
E515
E515
E4E5
E4A5
E525
E555
F555
F2CA
70E2
7FFC
7CF8
ENDCHAR
STARTCHAR Wdieresis.v
ENCODING 57816
SWIDTH 1000 0
DWIDTH 20 0
BBX 16 20 2 -2
BITMAP
0FFE
1A4A
3842
3FFC
21F3
21F1
E575
E575
E595
E515
E515
E4E5
E4A5
E525
E555
F555
F2CA
70E2
7FFC
7CF8
ENDCHAR
STARTCHAR Yacute.v
ENCODING 57817
SWIDTH 1000 0
DWIDTH 20 0
BBX 16 21 2 -2
BITMAP
00FC
0704
0DF4
1C04
1FF8
10E7
2121
64E5
E4E5
E4E5
E4C9
F20A
7912
78A4
3C48
3E48
1E50
0E10
0E10
0FE0
0FC0
ENDCHAR
STARTCHAR Ycircumflex.v
ENCODING 57818
SWIDTH 1000 0
DWIDTH 20 0
BBX 16 21 2 -2
BITMAP
03F0
044C
09B4
1804
3FFC
20E3
20E1
64E5
E4E5
E4E5
E4C9
F20A
7912
78A4
3C48
3E48
1E50
0E10
0E10
0FE0
0FC0
ENDCHAR
STARTCHAR Ydieresis.v
ENCODING 57819
SWIDTH 1000 0
DWIDTH 20 0
BBX 16 20 2 -2
BITMAP
0FFE
1A52
3842
3FFC
20E3
20E1
64E5
E4E5
E4E5
E4C9
F20A
7912
78A4
3C48
3E48
1E50
0E10
0E10
0FE0
0FC0
ENDCHAR
STARTCHAR Ygrave.v
ENCODING 57820
SWIDTH 1000 0
DWIDTH 20 0
BBX 16 21 2 -2
BITMAP
07E0
081C
19F4
3804
3FFC
20E3
20E1
64E5
E4E5
E4E5
E4C9
F20A
7912
78A4
3C48
3E48
1E50
0E10
0E10
0FE0
0FC0
ENDCHAR
STARTCHAR Zacute.v
ENCODING 57821
SWIDTH 1000 0
DWIDTH 20 0
BBX 15 21 3 -2
BITMAP
01F8
0E08
1BE8
3808
3FF0
200E
4002
CFFA
C00A
FF92
FE24
FCC8
0910
1220
2440
48BE
C802
C7FA
C002
FFFC
FFF0
ENDCHAR
STARTCHAR Zdotaccent.v
ENCODING 57822
SWIDTH 1000 0
DWIDTH 20 0
BBX 15 21 3 -2
BITMAP
03E0
0420
0CA0
1C20
1FE0
201E
4002
CFFA
C00A
FF92
FE24
FCC8
0910
1220
2440
48BE
C802
C7FA
C002
FFFC
FFF0
ENDCHAR
STARTCHAR Zcaron.v
ENCODING 57823
SWIDTH 1000 0
DWIDTH 20 0
BBX 15 21 3 -2
BITMAP
1F78
3088
73E8
7818
7FE0
201E
4002
CFFA
C00A
FF92
FE24
FCC8
0910
1220
2440
48BE
C802
C7FA
C002
FFFC
FFF0
ENDCHAR
STARTCHAR AE.v
ENCODING 57824
SWIDTH 1000 0
DWIDTH 20 0
BBX 16 17 2 -2
BITMAP
07FF
0801
19FD
3221
32A6
34A6
65A1
69BD
E821
EFE6
E824
E9A3
E9A1
E19D
E181
FFFE
FBFC
ENDCHAR
STARTCHAR Eth.v
ENCODING 57825
SWIDTH 1000 0
DWIDTH 20 0
BBX 17 17 1 -2
BITMAP
0FFE00
100100
33F900
320480
326480
327280
223280
67B280
E23280
E23280
F27280
F20480
320C80
31F100
300200
3FFC00
3FF000
ENDCHAR
STARTCHAR Oslash.v
ENCODING 57826
SWIDTH 1000 0
DWIDTH 20 0
BBX 16 20 2 -4
BITMAP
003E
07C2
0812
13F1
2459
64A5
65A5
E555
E565
E5A5
E4A5
E4E5
E545
E209
73F2
7A04
70F8
3FF0
7F80
7800
ENDCHAR
STARTCHAR Thorn.v
ENCODING 57827
SWIDTH 1000 0
DWIDTH 20 0
BBX 15 17 3 -2
BITMAP
3E00
4200
C9F8
C804
CFE2
C812
C9CA
C9CA
C9CA
C80A
C832
CFC4
C808
C1F0
C1C0
FE00
F800
ENDCHAR
STARTCHAR Dcroat.v
ENCODING 57828
SWIDTH 1000 0
DWIDTH 20 0
BBX 17 17 1 -2
BITMAP
0FFE00
100100
33F900
320480
326480
327280
223280
67B280
E23280
E23280
F27280
F20480
320C80
31F100
300200
3FFC00
3FF000
ENDCHAR
STARTCHAR Hbar.v
ENCODING 57829
SWIDTH 1000 0
DWIDTH 20 0
BBX 16 17 2 -2
BITMAP
1F1E
2121
65E5
C405
CFFD
C405
E4E5
E4E5
E405
E405
E7FD
E405
E4E5
E0E1
E0E1
FFFE
7CF8
ENDCHAR
STARTCHAR IJ.v
ENCODING 57830
SWIDTH 1000 0
DWIDTH 20 0
BBX 15 17 3 -2
BITMAP
3E3C
4242
C9CA
C9CA
C9CA
C9CA
C9CA
C1CA
FFCA
F9CA
F1D2
2E12
4032
CFC4
C008
FFF0
FFC0
ENDCHAR
STARTCHAR Ldot.v
ENCODING 57831
SWIDTH 1000 0
DWIDTH 20 0
BBX 15 22 3 -7
BITMAP
3E00
4200
CA00
CA00
CA00
CA00
CA3C
CA42
CACA
C9CA
C80A
C80A
C7F2
C002
FFFC
FE18
FC10
0C90
0C10
0FE0
0FC0
0F00
ENDCHAR
STARTCHAR Lslash.v
ENCODING 57832
SWIDTH 1000 0
DWIDTH 20 0
BBX 16 17 2 -2
BITMAP
1F00
2100
6500
6500
65C0
6420
6720
6C3F
E4E1
E4E5
E4E5
E405
6405
63F9
6001
7FFE
7FF8
ENDCHAR
STARTCHAR Eng.v
ENCODING 57833
SWIDTH 1000 0
DWIDTH 20 0
BBX 15 19 3 -4
BITMAP
07F0
1808
27E4
4812
C812
C9D2
C9D2
C9D2
C9D2
C9D2
C9D2
C9D2
C9D2
C112
C132
FF04
FF08
07F0
07C0
ENDCHAR
STARTCHAR OE.v
ENCODING 57834
SWIDTH 1000 0
DWIDTH 20 0
BBX 16 17 2 -2
BITMAP
07FF
1801
23FD
6421
69A6
E9A6
E9A1
E9BD
E9A1
E9A7
E9A4
E423
E621
F1DD
F801
7FFE
3FFC
ENDCHAR
STARTCHAR Tbar.v
ENCODING 57835
SWIDTH 1000 0
DWIDTH 20 0
BBX 15 17 3 -2
BITMAP
3FFE
4002
CFFA
C082
FC9C
FC98
1C98
1088
37E8
7088
7C90
7CA0
7CA0
1C20
1C20
1FC0
1F00
ENDCHAR
STARTCHAR Germandbls.v
ENCODING 57836
SWIDTH 1000 0
DWIDTH 20 0
BBX 15 17 3 -2
BITMAP
3FF0
4008
CFC4
C824
C9A4
C928
C924
C932
C90A
C9CA
C9CA
C90A
C912
C122
C10C
FFF0
FFE0
ENDCHAR
STARTCHAR A.salt_v
ENCODING 57837
SWIDTH 1000 0
DWIDTH 20 0
BBX 15 17 3 -2
BITMAP
0FF8
1004
27E2
4812
C9CA
C9CA
C9CA
C9CA
C80A
CFF2
C80A
C9CA
C9CA
C1C2
C3C2
FDFC
F9F0
ENDCHAR
STARTCHAR Agrave.salt_v
ENCODING 57838
SWIDTH 1000 0
DWIDTH 20 0
BBX 16 21 2 -2
BITMAP
07E0
081C
19F4
3804
3FFC
3C04
1042
13B1
6409
64E5
64E5
E4E5
E405
E7FD
E405
E405
E4E5
E0E1
E1E1
FEFE
7CF8
ENDCHAR
STARTCHAR Aacute.salt_v
ENCODING 57839
SWIDTH 1000 0
DWIDTH 20 0
BBX 16 21 2 -2
BITMAP
00FC
0704
09F4
1804
3BF8
3C04
3042
13B1
6409
64E5
64E5
E4E5
E405
E7FD
E405
E405
E4E5
E0E1
E1E1
FEFE
7CF8
ENDCHAR
STARTCHAR Acircumflex.salt_v
ENCODING 57840
SWIDTH 1000 0
DWIDTH 20 0
BBX 16 21 2 -2
BITMAP
03F0
044C
09B4
1804
3BFC
3C04
3042
13B1
6409
64E5
64E5
E4E5
E405
E7FD
E405
E405
E4E5
E0E1
E1E1
FEFE
7CF8
ENDCHAR
STARTCHAR Atilde.salt_v
ENCODING 57841
SWIDTH 1000 0
DWIDTH 20 0
BBX 16 20 2 -2
BITMAP
07FC
09F4
1804
3BF8
3C04
3042
13B1
6409
64E5
64E5
E4E5
E405
E7FD
E405
E405
E4E5
E0E1
E1E1
FEFE
7CF8
ENDCHAR
STARTCHAR Adieresis.salt_v
ENCODING 57842
SWIDTH 1000 0
DWIDTH 20 0
BBX 16 20 2 -2
BITMAP
0FFC
1A54
3844
3FFC
3C04
3042
13B1
6409
64E5
64E5
E4E5
E405
E7FD
E405
E405
E4E5
E0E1
E1E1
FEFE
7CF8
ENDCHAR
STARTCHAR Aring.salt_v
ENCODING 57843
SWIDTH 1000 0
DWIDTH 20 0
BBX 15 21 3 -2
BITMAP
07F0
0BC8
1428
35A8
75A8
7628
61C4
6762
C812
C9CA
C9CA
C9CA
C80A
CFFA
C80A
C80A
C9CA
C1C2
C3C2
FDFC
F9F0
ENDCHAR
STARTCHAR Amacron.salt_v
ENCODING 57844
SWIDTH 1000 0
DWIDTH 20 0
BBX 16 20 2 -2
BITMAP
0FFC
09F4
3804
3FFC
3C04
3042
13B1
6409
64E5
64E5
E4E5
E405
E7FD
E405
E405
E4E5
E0E1
E1E1
FEFE
7CF8
ENDCHAR
STARTCHAR Abreve.salt_v
ENCODING 57845
SWIDTH 1000 0
DWIDTH 20 0
BBX 16 21 2 -2
BITMAP
0FBC
18C4
3A14
39E4
3FF8
1C0C
1042
13B1
6409
64E5
64E5
E4E5
E405
E7FD
E405
E405
E4E5
E0E1
E1E1
FEFE
7CF8
ENDCHAR
STARTCHAR Aogonek.salt_v
ENCODING 57846
SWIDTH 1000 0
DWIDTH 20 0
BBX 16 20 2 -6
BITMAP
0FFC
1042
13B1
6409
64E5
64E5
E4E5
E405
E7FD
E405
E405
E4E5
E0E9
E1E9
FEEA
7CC9
00C5
00E1
00FE
00F8
ENDCHAR
STARTCHAR E.salt_v
ENCODING 57847
SWIDTH 1000 0
DWIDTH 20 0
BBX 15 17 2 -2
BITMAP
07FE
0802
13FA
2402
64FE
64FC
E404
E7F4
E404
E4F8
E4F0
E40E
E202
71FA
7802
7FFC
3FF8
ENDCHAR
STARTCHAR Egrave.salt_v
ENCODING 57848
SWIDTH 1000 0
DWIDTH 20 0
BBX 15 21 2 -2
BITMAP
07E0
081C
19F4
3804
3FFC
3C02
0802
13FA
2402
64FC
6404
E404
E7F4
E404
E4F8
E406
E202
71FA
7802
7FFC
3FF8
ENDCHAR
STARTCHAR Eacute.salt_v
ENCODING 57849
SWIDTH 1000 0
DWIDTH 20 0
BBX 15 21 2 -2
BITMAP
00FC
0704
09F4
1804
39F8
3E06
3002
13FA
2402
64FC
6404
E404
E7F4
E404
E4F8
E406
E202
71FA
7802
7FFC
3FF8
ENDCHAR
STARTCHAR Ecircumflex.salt_v
ENCODING 57850
SWIDTH 1000 0
DWIDTH 20 0
BBX 15 21 2 -2
BITMAP
03F0
044C
09B4
1804
3BFC
3C02
3002
13FA
2402
64FC
6404
E404
E7F4
E404
E4F8
E406
E202
71FA
7802
7FFC
3FF8
ENDCHAR
STARTCHAR Edieresis.salt_v
ENCODING 57851
SWIDTH 1000 0
DWIDTH 20 0
BBX 15 20 2 -2
BITMAP
0FFC
1A54
3844
3FFC
3C02
3002
13FA
2402
64FE
6404
E404
E7F4
E404
E4F8
E406
E202
71FA
7802
7FFC
3FF8
ENDCHAR
STARTCHAR Emacron.salt_v
ENCODING 57852
SWIDTH 1000 0
DWIDTH 20 0
BBX 15 20 2 -2
BITMAP
0FFC
09F4
3804
3FFC
3C02
3002
13FA
2402
64FC
6404
E404
E7F4
E404
E4F8
E406
E202
71FA
7802
7FFC
3FF8
ENDCHAR
STARTCHAR Ebreve.salt_v
ENCODING 57853
SWIDTH 1000 0
DWIDTH 20 0
BBX 15 21 2 -2
BITMAP
0FBC
18C4
3A14
39E4
3FF8
1C0E
1002
13FA
2402
64FC
6404
E404
E7F4
E404
E4F8
E406
E202
71FA
7802
7FFC
3FF8
ENDCHAR
STARTCHAR Edotaccent.salt_v
ENCODING 57854
SWIDTH 1000 0
DWIDTH 20 0
BBX 15 21 2 -2
BITMAP
01F0
0210
0650
0E10
0FF0
0C0E
0802
13FA
2402
64FC
6404
E404
E7F4
E404
E4F8
E406
E202
71FA
7802
7FFC
3FF8
ENDCHAR
STARTCHAR Eogonek.salt_v
ENCODING 57855
SWIDTH 1000 0
DWIDTH 20 0
BBX 15 20 2 -5
BITMAP
07FE
0802
13FA
2402
64FE
64FC
E404
E7F4
E404
E4F8
E406
E602
71FA
780A
7FD2
3FD2
0FCA
01E2
01FC
00F8
ENDCHAR
STARTCHAR Ecaron.salt_v
ENCODING 57856
SWIDTH 1000 0
DWIDTH 20 0
BBX 15 21 2 -2
BITMAP
0FBC
1844
39F4
3C0C
3FF0
3C0E
0802
13FA
2402
64FC
6404
E404
E7F4
E404
E4F8
E406
E202
71FA
7802
7FFC
3FF8
ENDCHAR
STARTCHAR I.salt_v
ENCODING 57857
SWIDTH 1000 0
DWIDTH 20 0
BBX 8 17 6 -2
BITMAP
1F
21
65
E5
E5
E5
E5
E5
E5
E5
E5
E5
E5
E1
E1
FE
FC
ENDCHAR
STARTCHAR I_I.salt_v
ENCODING 57858
SWIDTH 1000 0
DWIDTH 20 0
BBX 15 17 3 -2
BITMAP
3E3C
4242
C9CA
C9CA
C9CA
C9CA
C9CA
C9CA
C9CA
C9CA
C9CA
C9CA
C9CA
C1C2
C1C2
FFFC
F9F0
ENDCHAR
STARTCHAR Igrave.salt_v
ENCODING 57859
SWIDTH 1000 0
DWIDTH 20 0
BBX 12 21 4 -2
BITMAP
1F80
2070
67D0
E010
FFD0
F860
0840
3940
3940
3940
3940
3940
3940
3940
3940
3940
3940
3840
3840
3F80
3F00
ENDCHAR
STARTCHAR Iacute.salt_v
ENCODING 57860
SWIDTH 1000 0
DWIDTH 20 0
BBX 12 21 4 -2
BITMAP
03F0
1C10
27D0
6010
E7E0
F840
F840
3940
3940
3940
3940
3940
3940
3940
3940
3940
3940
3840
3840
3F80
3F00
ENDCHAR
STARTCHAR Icircumflex.salt_v
ENCODING 57861
SWIDTH 1000 0
DWIDTH 20 0
BBX 12 21 4 -2
BITMAP
0FC0
1130
26D0
6010
EFD0
F860
E840
3940
3940
3940
3940
3940
3940
3940
3940
3940
3940
3840
3840
3F80
3F00
ENDCHAR
STARTCHAR Idieresis.salt_v
ENCODING 57862
SWIDTH 1000 0
DWIDTH 20 0
BBX 12 20 4 -2
BITMAP
3FF0
6950
E110
FFF0
F860
F840
3940
3940
3940
3940
3940
3940
3940
3940
3940
3940
3840
3840
3F80
3F00
ENDCHAR
STARTCHAR Itilde.salt_v
ENCODING 57863
SWIDTH 1000 0
DWIDTH 20 0
BBX 12 20 4 -2
BITMAP
1FF0
27D0
6010
EFA0
F840
F840
3940
3940
3940
3940
3940
3940
3940
3940
3940
3940
3840
3840
3F80
3F00
ENDCHAR
STARTCHAR Imacron.salt_v
ENCODING 57864
SWIDTH 1000 0
DWIDTH 20 0
BBX 12 20 4 -2
BITMAP
3FF0
27D0
E010
FFF0
F840
F840
3940
3940
3940
3940
3940
3940
3940
3940
3940
3940
3840
3840
3F80
3F00
ENDCHAR
STARTCHAR Ibreve.salt_v
ENCODING 57865
SWIDTH 1000 0
DWIDTH 20 0
BBX 12 21 4 -2
BITMAP
3EF0
6310
E850
E790
FFE0
7840
3840
3940
3940
3940
3940
3940
3940
3940
3940
3940
3940
3840
3840
3F80
3F00
ENDCHAR
STARTCHAR Iogonek.salt_v
ENCODING 57866
SWIDTH 1000 0
DWIDTH 20 0
BBX 8 20 6 -6
BITMAP
1F
21
65
E5
E5
E5
E5
E5
E5
E5
E5
E5
E9
E9
EA
E9
E5
F1
FE
FC
ENDCHAR
STARTCHAR Idotaccent.salt_v
ENCODING 57867
SWIDTH 1000 0
DWIDTH 20 0
BBX 8 21 6 -2
BITMAP
1F
21
65
E1
FF
E1
E1
E5
E5
E5
E5
E5
E5
E5
E5
E5
E5
E1
E1
FE
FC
ENDCHAR
STARTCHAR L.salt_v
ENCODING 57868
SWIDTH 1000 0
DWIDTH 20 0
BBX 14 17 3 -2
BITMAP
3E00
4200
CA00
CA00
CA00
CA00
CA00
CA00
CA00
CA00
CA00
C9FC
C804
C7F4
C004
FFF8
FFF0
ENDCHAR
STARTCHAR Lacute.salt_v
ENCODING 57869
SWIDTH 1000 0
DWIDTH 20 0
BBX 14 21 3 -2
BITMAP
07E0
3820
4FA0
C020
DFC0
E180
C200
CA00
CA00
CA00
CA00
CA00
CA00
CA00
CA00
C9FC
C804
C7F4
C004
FFF8
FFF0
ENDCHAR
STARTCHAR Lcommaaccent.salt_v
ENCODING 57870
SWIDTH 1000 0
DWIDTH 20 0
BBX 14 23 3 -8
BITMAP
3E00
4200
CA00
CA00
CA00
CA00
CA00
CA00
CA00
CA00
C9FC
C804
C7F4
C004
FFFC
FC18
FDA0
1C60
1F60
1DE0
1C40
0F80
1F00
ENDCHAR
STARTCHAR Lcaron.salt_v
ENCODING 57871
SWIDTH 1000 0
DWIDTH 20 0
BBX 16 17 3 -2
BITMAP
3E1F
4221
CA65
CA65
CA61
CAE2
CAFC
CAF8
CA00
CA00
CA00
C9FE
C802
C7F2
C002
FFFC
FFF0
ENDCHAR
STARTCHAR Ldot.salt_v
ENCODING 57872
SWIDTH 1000 0
DWIDTH 20 0
BBX 14 22 3 -7
BITMAP
3E00
4200
CA00
CA00
CA00
CA00
CA00
CA00
CA00
CA00
C9FC
C804
C7F4
C004
FFFC
F878
F820
1940
3840
3FC0
3F00
3E00
ENDCHAR
STARTCHAR Lslash.salt_v
ENCODING 57873
SWIDTH 1000 0
DWIDTH 20 0
BBX 16 17 1 -2
BITMAP
0F80
1080
3280
3280
32E0
3220
23A0
6620
E240
F240
F280
727F
3201
31FD
3001
3FFE
3FFC
ENDCHAR
STARTCHAR L.salt_s_v
ENCODING 57874
SWIDTH 1000 0
DWIDTH 20 0
BBX 14 16 3 -2
BITMAP
3E00
4200
CA00
CA00
CA00
CA00
CA00
CA00
CA00
CA00
C9FC
C804
C7F4
C004
FFF8
FFF0
ENDCHAR
STARTCHAR M.salt_v
ENCODING 57875
SWIDTH 1000 0
DWIDTH 20 0
BBX 16 17 2 -2
BITMAP
1FFE
2001
67BD
C843
CA53
CA53
CA53
CA53
CA53
CA53
CA53
CA53
CA53
C211
C219
FFFF
F7BC
ENDCHAR
STARTCHAR N.salt_v
ENCODING 57876
SWIDTH 1000 0
DWIDTH 20 0
BBX 15 17 3 -2
BITMAP
0FF8
1004
27E2
4812
C9D2
C9D2
C9D2
C9D2
C9D2
C9D2
C9D2
C9D2
C9D2
C1C2
C1C2
FFFC
F9F0
ENDCHAR
STARTCHAR Ntilde.salt_v
ENCODING 57877
SWIDTH 1000 0
DWIDTH 20 0
BBX 15 20 3 -2
BITMAP
0FF8
13E8
3008
77F0
7808
6084
2762
C812
C9D2
C9D2
C9D2
C9D2
C9D2
C9D2
C9D2
C9D2
C1C2
C1C2
FFFC
F9F0
ENDCHAR
STARTCHAR Nacute.salt_v
ENCODING 57878
SWIDTH 1000 0
DWIDTH 20 0
BBX 15 21 3 -2
BITMAP
01F8
0E08
13E8
3008
77F0
7808
6084
2762
C812
C9D2
C9D2
C9D2
C9D2
C9D2
C9D2
C9D2
C9D2
C1C2
C1C2
FFFC
F9F0
ENDCHAR
STARTCHAR Ncommaaccent.salt_v
ENCODING 57879
SWIDTH 1000 0
DWIDTH 20 0
BBX 15 21 3 -6
BITMAP
0FF0
100C
27E2
4812
C992
C9D2
C9D2
C9D2
C9D2
C9D2
C9D2
C1C2
E3E6
FC18
FD90
1C60
1F60
1DE0
1C40
1F80
1F00
ENDCHAR
STARTCHAR Ncaron.salt_v
ENCODING 57880
SWIDTH 1000 0
DWIDTH 20 0
BBX 15 21 3 -2
BITMAP
1F78
3088
73E8
7818
7FE0
7818
2084
2762
C812
C9D2
C9D2
C9D2
C9D2
C9D2
C9D2
C9D2
C9D2
C1C2
C1C2
FFFC
F9F0
ENDCHAR
STARTCHAR W.salt_v
ENCODING 57881
SWIDTH 1000 0
DWIDTH 20 0
BBX 16 18 2 -3
BITMAP
3DEF
4211
CA53
CA53
CA53
CA53
CA53
CA53
CA53
CA53
CA53
C843
C8C5
E739
F041
FFFE
7FF8
38E0
ENDCHAR
STARTCHAR Wcircumflex.salt_v
ENCODING 57882
SWIDTH 1000 0
DWIDTH 20 0
BBX 16 22 2 -3
BITMAP
03F0
044C
09B4
1804
3FF4
231B
4211
CA53
CA53
CA53
CA53
CA53
CA53
CA53
CA53
C843
C8C5
E739
F041
FFFE
7FF8
38E0
ENDCHAR
STARTCHAR Wgrave.salt_v
ENCODING 57883
SWIDTH 1000 0
DWIDTH 20 0
BBX 16 22 2 -3
BITMAP
07E0
081C
19F4
3804
3FF4
231B
4211
CA53
CA53
CA53
CA53
CA53
CA53
CA53
CA53
C843
C8C5
E739
F041
FFFE
7FF8
38E0
ENDCHAR
STARTCHAR Wacute.salt_v
ENCODING 57884
SWIDTH 1000 0
DWIDTH 20 0
BBX 16 22 2 -3
BITMAP
00FC
0704
09F4
1804
3DF8
231F
4211
CA53
CA53
CA53
CA53
CA53
CA53
CA53
CA53
C843
C8C5
E739
F041
FFFE
7FF8
38E0
ENDCHAR
STARTCHAR Wdieresis.salt_v
ENCODING 57885
SWIDTH 1000 0
DWIDTH 20 0
BBX 16 21 2 -3
BITMAP
0FFC
1A54
3844
3FFC
231B
4211
CA53
CA53
CA53
CA53
CA53
CA53
CA53
CA53
C843
C8C5
E739
F041
FFFE
7FF8
38E0
ENDCHAR
STARTCHAR X.salt_v
ENCODING 57886
SWIDTH 1100 0
DWIDTH 22 0
BBX 16 17 3 -2
BITMAP
1F1E
30A1
72CA
724A
7A52
7A52
3112
23F1
6409
6405
E4E5
E4E5
E4E5
E0E1
E1E1
FEFE
FCFC
ENDCHAR
STARTCHAR Y.salt_v
ENCODING 57887
SWIDTH 1000 0
DWIDTH 20 0
BBX 15 17 3 -2
BITMAP
3E3C
4242
CACA
C9CA
C9CA
C9CA
C9CA
C812
E672
E184
F888
FC90
7CA0
1C20
1C20
1FC0
1F80
ENDCHAR
STARTCHAR Yacute.salt_v
ENCODING 57888
SWIDTH 1000 0
DWIDTH 20 0
BBX 15 21 3 -2
BITMAP
01F8
0E08
13E8
3008
7FF0
41CE
42C2
C9CA
C9CA
C9CA
C9CA
C812
C412
E2E4
F088
FC90
7CA0
1C20
1C20
1FC0
1F80
ENDCHAR
STARTCHAR Ycircumflex.salt_v
ENCODING 57889
SWIDTH 1000 0
DWIDTH 20 0
BBX 15 21 3 -2
BITMAP
07E0
0898
1368
3008
7FF8
41C6
41C2
C9CA
C9CA
C9CA
C9CA
C812
C412
E2E4
F088
FC90
7CA0
1C20
1C20
1FC0
1F80
ENDCHAR
STARTCHAR Ydieresis.salt_v
ENCODING 57890
SWIDTH 1000 0
DWIDTH 20 0
BBX 15 20 3 -2
BITMAP
1FF8
34A8
7088
7FF8
41C6
41C2
C9CA
C9CA
C9CA
C9CA
C812
C412
E2E4
F088
FC90
7CA0
1C20
1C20
1FC0
1F80
ENDCHAR
STARTCHAR Ygrave.salt_v
ENCODING 57891
SWIDTH 1000 0
DWIDTH 20 0
BBX 15 21 3 -2
BITMAP
0FC0
1038
33E8
7008
7FF8
41C6
41C2
C9CA
C9CA
C9CA
C9CA
C812
C412
E2E4
F088
FC90
7CA0
1C20
1C20
1FC0
1F80
ENDCHAR
STARTCHAR AE.salt_v
ENCODING 57892
SWIDTH 1000 0
DWIDTH 20 0
BBX 16 17 2 -2
BITMAP
07FF
1801
23FD
6421
69A6
E9A6
E9A1
E9BD
E821
E7E7
E824
E9A3
E9A1
E19D
E181
FFFE
FBFC
ENDCHAR
STARTCHAR IJ.salt_v
ENCODING 57893
SWIDTH 1000 0
DWIDTH 20 0
BBX 15 32 3 -10
BITMAP
07E0
0420
1CA0
1CA0
1CA0
1CA0
1CA0
1CA0
1CA0
1CA0
1CA0
1CA0
1C20
1C20
1FC0
1FFE
00C2
01CA
01CA
01CA
01CA
3FCA
41CA
C9CA
C9CA
C812
C412
E3E4
F008
FFF0
7FE0
1F00
ENDCHAR
STARTCHAR IJ.stack_v
ENCODING 57894
SWIDTH 1000 0
DWIDTH 20 0
BBX 15 32 3 -10
BITMAP
3FFE
4F72
C082
E082
FC9C
FC90
1CA0
1CA0
1CA0
1CBC
2082
4FF2
C002
E006
FFF8
FFFC
0042
00C2
01D2
01D2
01D2
3FD2
41D2
C9D2
C9D2
C992
C812
E7E2
E004
FC18
7FE0
3FC0
ENDCHAR
STARTCHAR commaaccent.v
ENCODING 57895
SWIDTH 1000 0
DWIDTH 20 0
BBX 8 8 6 -9
BITMAP
3F
6F
E3
FB
ED
62
FC
F0
ENDCHAR
STARTCHAR hyphen.v
ENCODING 57896
SWIDTH 1000 0
DWIDTH 20 0
BBX 8 10 6 1
BITMAP
1F
21
65
E5
E5
E1
E1
FE
FC
78
ENDCHAR
STARTCHAR endash.v
ENCODING 57897
SWIDTH 1000 0
DWIDTH 20 0
BBX 8 14 6 -1
BITMAP
3F
61
E5
E5
E5
E5
E5
E5
E5
E5
E1
E1
FE
F8
ENDCHAR
STARTCHAR emdash.v
ENCODING 57898
SWIDTH 1000 0
DWIDTH 20 0
BBX 8 22 6 -5
BITMAP
3F
61
E5
E5
E5
E5
E5
E5
E5
E5
E5
E5
E5
E5
E5
E5
E5
E5
E1
E1
FE
F8
ENDCHAR
STARTCHAR parenleft.v
ENCODING 57899
SWIDTH 1000 0
DWIDTH 20 0
BBX 20 10 0 1
BITMAP
0FFFE0
100010
27FF90
680050
E80030
E3FF10
E3FF10
FC07F0
F803C0
E00380
ENDCHAR
STARTCHAR parenright.v
ENCODING 57900
SWIDTH 1000 0
DWIDTH 20 0
BBX 20 10 0 1
BITMAP
3E00F0
620110
E9FF30
E80030
E7FFD0
E00010
F00020
FFFFC0
7FFF00
1FFC00
ENDCHAR
STARTCHAR bracketleft.v
ENCODING 57901
SWIDTH 1000 0
DWIDTH 20 0
BBX 20 10 0 1
BITMAP
3FFFF0
600010
E7FFD0
E80030
E80030
E3FF10
E3FF10
FC03F0
F803C0
E00380
ENDCHAR
STARTCHAR bracketright.v
ENCODING 57902
SWIDTH 1000 0
DWIDTH 20 0
BBX 20 10 0 1
BITMAP
3E00F0
620110
EBFF30
E80030
EFFFF0
E00010
E00010
FFFFF0
FFFFC0
FFFF80
ENDCHAR
STARTCHAR braceleft.v
ENCODING 57903
SWIDTH 1000 0
DWIDTH 20 0
BBX 20 10 0 1
BITMAP
007C00
0F83E0
103810
27C790
681050
E81030
E3FF10
E3FF10
FC07E0
F003C0
ENDCHAR
STARTCHAR braceright.v
ENCODING 57904
SWIDTH 1000 0
DWIDTH 20 0
BBX 20 10 0 1
BITMAP
3E01F0
63EF10
E81030
EC1050
E3CF90
F03020
FF87C0
7FC780
3FFE00
01E000
ENDCHAR
STARTCHAR quoteleft.v
ENCODING 57905
SWIDTH 1000 0
DWIDTH 20 0
BBX 8 10 6 2
BITMAP
1F
27
6E
E9
E9
EF
E1
E1
FE
FC
ENDCHAR
STARTCHAR quoteright.v
ENCODING 57906
SWIDTH 1000 0
DWIDTH 20 0
BBX 8 10 6 1
BITMAP
3F
61
EF
E3
E3
FB
ED
62
FC
F8
ENDCHAR
STARTCHAR quotedblleft.v
ENCODING 57907
SWIDTH 1000 0
DWIDTH 20 0
BBX 14 10 3 2
BITMAP
1F7C
2C9C
57B8
D0A4
D0A4
CCBC
C084
E084
FFF8
FFF0
ENDCHAR
STARTCHAR quotedblright.v
ENCODING 57908
SWIDTH 1000 0
DWIDTH 20 0
BBX 14 10 3 1
BITMAP
3FFC
4084
CCBC
C28C
C28C
FAFC
EDB4
E388
FFF0
F3E0
ENDCHAR
STARTCHAR quotesinglbase.v
ENCODING 57909
SWIDTH 1000 0
DWIDTH 20 0
BBX 8 10 6 1
BITMAP
1F
61
EF
E3
E3
FB
ED
62
FC
F8
ENDCHAR
STARTCHAR quotedblbase.v
ENCODING 57910
SWIDTH 1000 0
DWIDTH 20 0
BBX 14 10 3 1
BITMAP
3FFC
4084
CCBC
C28C
C28C
FAFC
EDB4
E388
FFF0
F3E0
ENDCHAR
STARTCHAR guilsinglleft.v
ENCODING 57911
SWIDTH 1000 0
DWIDTH 20 0
BBX 13 11 4 1
BITMAP
0FC0
1020
3390
6450
6550
6950
E948
E108
C308
FFF0
F3C0
ENDCHAR
STARTCHAR guilsinglright.v
ENCODING 57912
SWIDTH 1000 0
DWIDTH 20 0
BBX 13 12 4 0
BITMAP
3CF0
4308
E928
E950
E550
E450
E450
F390
7020
7FC0
7F00
1E00
ENDCHAR
STARTCHAR guillemotleft.v
ENCODING 57913
SWIDTH 1000 0
DWIDTH 20 0
BBX 13 17 4 -2
BITMAP
07C0
0820
1390
2450
6550
6928
E108
FFF0
F820
F320
34D0
6450
6950
6108
E388
FFF0
F3C0
ENDCHAR
STARTCHAR guillemotright.v
ENCODING 57914
SWIDTH 1000 0
DWIDTH 20 0
BBX 13 16 4 -2
BITMAP
3FF8
E950
E550
E450
F390
7020
7FF0
4308
6108
E950
E450
F7D0
F020
7860
7F80
3F00
ENDCHAR
STARTCHAR period.v
ENCODING 57915
SWIDTH 1000 0
DWIDTH 20 0
BBX 8 9 6 2
BITMAP
1F
21
E1
E5
E5
E1
E1
FE
FC
ENDCHAR
STARTCHAR comma.v
ENCODING 57916
SWIDTH 1000 0
DWIDTH 20 0
BBX 8 10 6 1
BITMAP
1F
61
EF
E3
E3
FB
ED
62
FC
F8
ENDCHAR
STARTCHAR ellipsis.v
ENCODING 57917
SWIDTH 1000 0
DWIDTH 20 0
BBX 23 9 -1 2
BITMAP
3F3E7C
414182
C0C182
C4C992
C4C992
C0C182
E0C186
FFFFF8
F9FBF0
ENDCHAR
STARTCHAR exclamdown.v
ENCODING 57918
SWIDTH 1000 0
DWIDTH 20 0
BBX 8 17 6 -2
BITMAP
3F
61
E5
E1
FE
E1
E1
65
E5
E5
E5
E5
E5
E1
E1
FE
FC
ENDCHAR
STARTCHAR questiondown.v
ENCODING 57919
SWIDTH 1000 0
DWIDTH 20 0
BBX 14 17 3 -2
BITMAP
01F8
0208
0648
0E08
0FF0
0C08
1008
23C8
6408
E5F0
E5FC
E404
E3F4
F004
F804
FFF8
3FF0
ENDCHAR
STARTCHAR dagger.v
ENCODING 57920
SWIDTH 1000 0
DWIDTH 20 0
BBX 16 17 2 -2
BITMAP
03F0
0610
0E50
165F
2041
67FD
E041
E251
FE5E
FE58
0650
0650
0E50
0E10
0E10
0FE0
0F80
ENDCHAR
STARTCHAR daggerdbl.v
ENCODING 57921
SWIDTH 1000 0
DWIDTH 20 0
BBX 16 17 2 -2
BITMAP
03F0
1E1E
2041
67FD
E041
E259
FE5E
FE5C
125B
2041
67FD
E041
E659
FE1E
FE18
0FE0
0F80
ENDCHAR
STARTCHAR perthousand.v
ENCODING 57922
SWIDTH 1000 0
DWIDTH 20 0
BBX 19 18 1 -3
BITMAP
1F1E00
26A200
495400
D55400
D52800
D13000
EE5000
E0BFC0
FEB320
7D4CA0
0A55A0
1355A0
3544A0
237FA0
630440
FFFF80
F7FF00
008800
ENDCHAR
STARTCHAR ampersand.salt_v
ENCODING 57923
SWIDTH 1000 0
DWIDTH 20 0
BBX 16 21 2 -4
BITMAP
0070
0108
032E
0421
09FD
1A01
3A7E
3A7C
3E04
33F4
2404
64FC
64F0
E40F
E601
F1FD
7821
7F0E
3F08
07F0
07C0
ENDCHAR
STARTCHAR quoteleft.salt_v
ENCODING 57924
SWIDTH 1000 0
DWIDTH 20 0
BBX 6 8 3 2
BITMAP
3C
5C
D4
DC
C4
FC
F8
F0
ENDCHAR
STARTCHAR quoteright.salt_v
ENCODING 57925
SWIDTH 1000 0
DWIDTH 20 0
BBX 6 8 3 2
BITMAP
3C
5C
C4
F4
FC
EC
F0
E0
ENDCHAR
STARTCHAR A.s_v
ENCODING 57926
SWIDTH 1000 0
DWIDTH 20 0
BBX 15 16 3 -2
BITMAP
0FF0
1008
33C8
3428
64A4
6494
69D2
C812
C80A
CFFA
C80A
C9CA
C1C2
C3C2
FDFC
F9F8
ENDCHAR
STARTCHAR C.s_v
ENCODING 57927
SWIDTH 1000 0
DWIDTH 20 0
BBX 15 16 2 -2
BITMAP
07FE
0802
13FA
2402
64FE
64FC
E4F0
E500
E500
E500
E4FE
E202
71FA
7802
7FFC
3FF8
ENDCHAR
STARTCHAR D.s_v
ENCODING 57928
SWIDTH 1000 0
DWIDTH 20 0
BBX 15 16 3 -2
BITMAP
3FF8
4004
CFE2
C812
C9CA
C9CA
C9CA
C9CA
C9CA
C9CA
C80A
C832
C7C4
C008
FFF0
FFE0
ENDCHAR
STARTCHAR E.s_v
ENCODING 57929
SWIDTH 1000 0
DWIDTH 20 0
BBX 14 16 3 -2
BITMAP
3FFC
4004
CFF4
C804
C9F8
C808
C808
CFE8
C808
C9F0
C80C
C804
C7F4
C004
FFF8
FFF0
ENDCHAR
STARTCHAR G.s_v
ENCODING 57930
SWIDTH 1000 0
DWIDTH 20 0
BBX 16 16 2 -2
BITMAP
07FC
0802
13F2
6402
64FC
64F0
E4FE
E521
E565
E4E5
E405
E205
F1F9
7801
7FFE
3FF8
ENDCHAR
STARTCHAR H.s_v
ENCODING 57931
SWIDTH 1000 0
DWIDTH 20 0
BBX 15 16 3 -2
BITMAP
3E7E
42C2
C9CA
C9CA
C9CA
C80A
C80A
CFFA
C80A
C9CA
C9CA
C9CA
C1C2
C1C2
FFFC
F9F0
ENDCHAR
STARTCHAR I.s_v
ENCODING 57932
SWIDTH 1000 0
DWIDTH 20 0
BBX 14 16 3 -2
BITMAP
3FFC
4004
CFF4
C084
FC9C
FC98
FCA0
1CA0
1CA0
1CA0
209C
4084
CF74
E004
FFF8
FFF0
ENDCHAR
STARTCHAR J.s_v
ENCODING 57933
SWIDTH 1000 0
DWIDTH 20 0
BBX 15 17 3 -3
BITMAP
007E
00C2
01D2
01D2
01D2
01D2
3FD2
41D2
C9D2
C9D2
C812
C412
E3E4
F008
FFF0
7FE0
1F00
ENDCHAR
STARTCHAR K.s_v
ENCODING 57934
SWIDTH 1000 0
DWIDTH 20 0
BBX 15 16 3 -2
BITMAP
3E7E
4284
C9A4
C928
C928
C844
C842
CFB2
C812
C9CA
C9CA
C9CA
C1C2
C1C2
FFFC
F9F0
ENDCHAR
STARTCHAR L.s_v
ENCODING 57935
SWIDTH 1000 0
DWIDTH 20 0
BBX 15 16 3 -2
BITMAP
3E00
4200
CA00
CA00
CA00
CA00
CA3E
CA42
CACA
C9CA
C80A
C80A
C7F2
C002
FFFC
FFF0
ENDCHAR
STARTCHAR N.s_v
ENCODING 57936
SWIDTH 1000 0
DWIDTH 20 0
BBX 15 16 3 -2
BITMAP
3E7E
4242
C9CA
CC4A
CA4A
C90A
C88A
CA4A
C92A
C912
C98A
C9CA
C1C2
C1C2
FFFC
F9F0
ENDCHAR
STARTCHAR O.s_v
ENCODING 57937
SWIDTH 1000 0
DWIDTH 20 0
BBX 16 17 2 -3
BITMAP
0FFC
1042
23B9
6409
64E5
E4E5
E4E5
E4E5
E4E5
E4E5
E405
E209
F1F2
7804
7FF8
3FF0
0F80
ENDCHAR
STARTCHAR R.s_v
ENCODING 57938
SWIDTH 1000 0
DWIDTH 20 0
BBX 15 16 3 -2
BITMAP
3FF0
4008
CFE4
C814
C994
C994
C818
CFE4
C812
C80A
C9CA
C9CA
C1C2
C1C2
FFFC
F9F8
ENDCHAR
STARTCHAR S.s_v
ENCODING 57939
SWIDTH 1000 0
DWIDTH 20 0
BBX 15 16 3 -2
BITMAP
0FFC
3004
27F4
C804
C9F8
C808
C604
E1E2
F012
FFCA
E00A
4012
CFE4
C008
FFF0
FFE0
ENDCHAR
STARTCHAR T.s_v
ENCODING 57940
SWIDTH 1000 0
DWIDTH 20 0
BBX 15 16 3 -2
BITMAP
3FFE
4002
CFFA
C082
FC9C
FC98
FC90
1CA0
1CA0
1CA0
1CA0
1CA0
1C20
1C20
1FC0
1F80
ENDCHAR
STARTCHAR U.s_v
ENCODING 57941
SWIDTH 1000 0
DWIDTH 20 0
BBX 15 17 3 -3
BITMAP
3E7E
42C2
C9CA
C9CA
C9CA
C9CA
C9CA
C9CA
C9CA
C9CA
C812
C412
E3E4
F008
FFF0
7FE0
1F00
ENDCHAR
STARTCHAR W.s_v
ENCODING 57942
SWIDTH 1000 0
DWIDTH 20 0
BBX 16 16 2 -2
BITMAP
3F1F
2131
E575
E575
E595
E515
E515
E4E5
E4A5
E525
E555
F555
F2CA
70E2
7FFC
7CF8
ENDCHAR
STARTCHAR Y.s_v
ENCODING 57943
SWIDTH 1000 0
DWIDTH 20 0
BBX 16 16 2 -2
BITMAP
1F3F
2121
64E5
E4E5
E4E5
E4C9
F20A
7912
78A4
3C48
3E48
1E50
0E10
0E10
0FE0
0FC0
ENDCHAR
STARTCHAR Z.s_v
ENCODING 57944
SWIDTH 1000 0
DWIDTH 20 0
BBX 15 16 3 -2
BITMAP
3FFE
4002
CFFA
C00A
FF92
FE24
FCC8
0910
1220
2440
48BE
C802
C7FA
C002
FFFC
FFF0
ENDCHAR
STARTCHAR A.salt_s_v
ENCODING 57945
SWIDTH 1000 0
DWIDTH 20 0
BBX 16 16 2 -2
BITMAP
0FFC
1042
13B1
6409
64E5
64E5
E4E5
E405
E7FD
E405
E405
E4E5
E0E1
E1E1
FEFE
7CF8
ENDCHAR
STARTCHAR E.salt_s_v
ENCODING 57946
SWIDTH 1000 0
DWIDTH 20 0
BBX 15 16 2 -2
BITMAP
07FE
0802
13FA
2402
64FC
6404
E404
E7F4
E404
E4F8
E406
E202
71FA
7802
7FFC
3FF8
ENDCHAR
STARTCHAR I.salt_s_v
ENCODING 57947
SWIDTH 1000 0
DWIDTH 20 0
BBX 8 16 6 -2
BITMAP
3F
21
E5
E5
E5
E5
E5
E5
E5
E5
E5
E5
E1
E1
FE
FC
ENDCHAR
STARTCHAR N.salt_s_v
ENCODING 57948
SWIDTH 1000 0
DWIDTH 20 0
BBX 15 16 3 -2
BITMAP
1FF8
2084
2762
C812
C9D2
C9D2
C9D2
C9D2
C9D2
C9D2
C9D2
C9D2
C1C2
C1C2
FFFC
F9F0
ENDCHAR
STARTCHAR W.salt_s_v
ENCODING 57949
SWIDTH 1000 0
DWIDTH 20 0
BBX 16 17 2 -3
BITMAP
3FFF
4211
CA53
CA53
CA53
CA53
CA53
CA53
CA53
CA53
C843
C8C5
E739
F041
FFFE
7FF8
38E0
ENDCHAR
STARTCHAR Y.salt_s_v
ENCODING 57950
SWIDTH 1000 0
DWIDTH 20 0
BBX 15 16 3 -2
BITMAP
3E7E
42C2
C9CA
C9CA
C9CA
C9CA
C812
C412
E2E4
F088
FC90
7CA0
1C20
1C20
1FC0
1F80
ENDCHAR
STARTCHAR uniF6C3
ENCODING 63171
SWIDTH 600 0
DWIDTH 12 0
BBX 8 10 2 -9
BITMAP
1E
21
6D
E3
E3
FB
ED
66
F8
F0
ENDCHAR
STARTCHAR fi
ENCODING 64257
SWIDTH 1423 0
DWIDTH 28 0
BBX 27 17 1 -2
BITMAP
3FFCFFE0
60058020
E7E79FA0
E8078420
E9FBE4C0
E9E3E480
E8106480
E7D06480
E8106480
E8106480
E9E064C0
E9C08420
E9019FA0
E1038020
E3038020
FC03FFC0
F803FF00
ENDCHAR
STARTCHAR fl
ENCODING 64258
SWIDTH 1513 0
DWIDTH 30 0
BBX 29 17 1 -2
BITMAP
3FFCFC00
60048400
E7E79400
E8079400
E9FB9400
E9E39400
E81394F0
E7D39508
E8139328
E8139328
E9E39328
E9C39028
E9039FE8
E1038008
E3038008
FC03FFF0
F803FFC0
ENDCHAR
STARTCHAR exclam.v
ENCODING 65281
SWIDTH 1000 0
DWIDTH 20 0
BBX 8 17 6 -2
BITMAP
3F
61
E5
E5
E5
E5
E5
E5
E1
FE
FF
61
E5
E1
E1
FE
FC
ENDCHAR
STARTCHAR quotedbl.v
ENCODING 65282
SWIDTH 1000 0
DWIDTH 20 0
BBX 14 10 3 2
BITMAP
3FFC
6084
E494
E494
E494
E494
E084
E184
FFF8
FBE0
ENDCHAR
STARTCHAR percent.v
ENCODING 65285
SWIDTH 1000 0
DWIDTH 20 0
BBX 16 18 2 -3
BITMAP
1F8F
2751
28AA
EAAC
EAD4
E8A8
E730
F05E
FF99
7EA7
052B
0AAB
1AA3
119D
23C1
7FFE
F1F8
0040
ENDCHAR
STARTCHAR ampersand.v
ENCODING 65286
SWIDTH 1000 0
DWIDTH 20 0
BBX 17 17 2 -2
BITMAP
03F800
0C0800
09E800
320800
327000
326000
3E2F00
33B080
242280
64E480
E5E480
E40500
E60900
F1F200
F80400
7FF800
3FF000
ENDCHAR
STARTCHAR quotesingle.v
ENCODING 65287
SWIDTH 1000 0
DWIDTH 20 0
BBX 8 10 6 2
BITMAP
3F
61
E5
E5
E5
E5
E1
E1
FE
F8
ENDCHAR
STARTCHAR asterisk.v
ENCODING 65290
SWIDTH 1000 0
DWIDTH 20 0
BBX 15 14 3 0
BITMAP
03E0
0620
1EAC
22B4
6082
C7F2
F084
FD58
F228
1084
3188
7DD0
7FE0
1980
ENDCHAR
STARTCHAR zero.v
ENCODING 65296
SWIDTH 1000 0
DWIDTH 20 0
BBX 15 18 3 -3
BITMAP
0FF8
1004
27E2
4812
C9CA
C9CA
C9CA
C9CA
C9CA
C9CA
C9CA
C812
C412
E3E4
F008
FFF0
7FE0
1F00
ENDCHAR
STARTCHAR one.v
ENCODING 65297
SWIDTH 1000 0
DWIDTH 20 0
BBX 14 17 3 -2
BITMAP
1FE0
2020
E7A0
E0A0
FCA0
FCA0
FCA0
1CA0
1CA0
1CA0
1CA0
209C
4084
C774
C004
FFFC
FFF0
ENDCHAR
STARTCHAR two.v
ENCODING 65298
SWIDTH 1000 0
DWIDTH 20 0
BBX 15 17 3 -2
BITMAP
1FF8
2004
EFE2
E012
FFD2
FF92
F812
11E4
260C
4830
C9E0
C81E
C802
C7FA
C002
FFFC
FFF0
ENDCHAR
STARTCHAR three.v
ENCODING 65299
SWIDTH 1000 0
DWIDTH 20 0
BBX 15 17 3 -2
BITMAP
3FF0
4008
CFC8
C024
FF24
FFA8
F028
33E4
7012
7F8A
7FCA
400A
4012
CFE4
C008
FFF0
FFE0
ENDCHAR
STARTCHAR four.v
ENCODING 65300
SWIDTH 1000 0
DWIDTH 20 0
BBX 15 17 3 -2
BITMAP
3E3C
4242
CACA
C9CA
C9CA
C9CA
C9CA
C80A
C80A
C7F2
E00A
F80A
FFCA
7FC2
01C2
01FC
01F0
ENDCHAR
STARTCHAR five.v
ENCODING 65301
SWIDTH 1000 0
DWIDTH 20 0
BBX 15 17 3 -2
BITMAP
3FFC
6004
E7F4
E804
E9F8
E9F8
E804
E7E2
E012
FF8A
FFCA
C00A
4012
CFE4
C008
FFF0
FFE0
ENDCHAR
STARTCHAR six.v
ENCODING 65302
SWIDTH 1000 0
DWIDTH 20 0
BBX 16 18 2 -3
BITMAP
07FC
0804
13F4
2404
64FC
64FC
E402
E7F1
E409
E4E5
E4E5
E4C5
E609
F1F2
7804
7FF8
3FF0
0F80
ENDCHAR
STARTCHAR seven.v
ENCODING 65303
SWIDTH 1000 0
DWIDTH 20 0
BBX 15 17 3 -2
BITMAP
3FFC
4002
CFF2
C00A
FFCA
FFCA
FF0A
0412
09E2
1204
3238
3260
7240
7040
7080
7F00
7E00
ENDCHAR
STARTCHAR eight.v
ENCODING 65304
SWIDTH 1000 0
DWIDTH 20 0
BBX 16 18 2 -3
BITMAP
07FC
0842
13B2
320A
72EA
72EA
7A0C
71F2
2609
64E5
64E5
E4E5
E409
F3F1
7806
7FF8
3FF0
0F80
ENDCHAR
STARTCHAR nine.v
ENCODING 65305
SWIDTH 1000 0
DWIDTH 20 0
BBX 16 17 2 -2
BITMAP
07FC
0802
13F9
2409
64E5
64E5
E445
E219
F1E5
7825
7FE5
3805
1809
39F2
3804
3FF8
3FF0
ENDCHAR
STARTCHAR colon.v
ENCODING 65306
SWIDTH 1000 0
DWIDTH 20 0
BBX 8 16 6 -1
BITMAP
1F
21
E1
E5
E5
E1
FE
FF
E1
61
E5
E5
E1
E1
FE
FC
ENDCHAR
STARTCHAR semicolon.v
ENCODING 65307
SWIDTH 1000 0
DWIDTH 20 0
BBX 8 18 6 -3
BITMAP
1F
21
E5
E5
E1
E1
FF
FF
E1
ED
E3
E3
FB
ED
61
FE
F8
60
ENDCHAR
STARTCHAR question.v
ENCODING 65311
SWIDTH 1000 0
DWIDTH 20 0
BBX 14 17 3 -2
BITMAP
3FF8
6004
EFE4
E014
FF94
FE14
1014
33E4
7808
38F0
3F60
3040
3240
7040
70C0
7F00
3E00
ENDCHAR
STARTCHAR A.v
ENCODING 65313
SWIDTH 1000 0
DWIDTH 20 0
BBX 16 17 2 -2
BITMAP
03F8
0404
18E4
1914
3252
324A
34CA
64E9
6405
67FD
6405
E4E5
E4E5
E0E1
E1E1
FEFE
7CF8
ENDCHAR
STARTCHAR B.v
ENCODING 65314
SWIDTH 1000 0
DWIDTH 20 0
BBX 15 17 3 -2
BITMAP
3FF0
4008
CFC4
C824
C9A4
C9A4
C828
CFE4
C812
C9CA
C9CA
C9CA
C812
C7E2
C00C
FFF0
FFE0
ENDCHAR
STARTCHAR C.v
ENCODING 65315
SWIDTH 1000 0
DWIDTH 20 0
BBX 15 17 2 -2
BITMAP
07FE
0802
13FA
2402
64FE
64FC
E4F8
E500
E500
E500
E500
E4FE
E202
71FA
7802
7FFC
3FF8
ENDCHAR
STARTCHAR D.v
ENCODING 65316
SWIDTH 1000 0
DWIDTH 20 0
BBX 15 17 3 -2
BITMAP
3FF8
4004
CFE2
C812
C9CA
C9CA
C9CA
C9CA
C9CA
C9CA
C9CA
C80A
C832
C7C4
C008
FFF0
FFE0
ENDCHAR
STARTCHAR E.v
ENCODING 65317
SWIDTH 1000 0
DWIDTH 20 0
BBX 14 17 3 -2
BITMAP
3FFC
4004
CFF4
C804
C9FC
C9F8
C808
CFE8
C808
C9F0
C9E0
C81C
C804
C7F4
C004
FFF8
FFF0
ENDCHAR
STARTCHAR F.v
ENCODING 65318
SWIDTH 1000 0
DWIDTH 20 0
BBX 14 17 3 -2
BITMAP
3FFC
4004
CFF4
C804
C9FC
C9F8
C808
C808
CFE8
C808
C9F0
C9E0
C9C0
C200
C200
FC00
F800
ENDCHAR
STARTCHAR G.v
ENCODING 65319
SWIDTH 1000 0
DWIDTH 20 0
BBX 16 17 2 -2
BITMAP
07FC
0802
13F2
2402
64FC
64F8
E4E0
E53F
E561
E4E5
E4E5
E405
E205
F1F9
7801
7FFE
3FF8
ENDCHAR
STARTCHAR H.v
ENCODING 65320
SWIDTH 1000 0
DWIDTH 20 0
BBX 15 17 3 -2
BITMAP
3E3C
4242
C9CA
C9CA
C9CA
C9CA
C80A
CFFA
C80A
C80A
C9CA
C9CA
C9CA
C1C2
C1C2
FFFC
F9F0
ENDCHAR
STARTCHAR I.v
ENCODING 65321
SWIDTH 1000 0
DWIDTH 20 0
BBX 14 17 3 -2
BITMAP
3FFC
4004
CFF4
C084
FC9C
FC98
FC90
1CA0
1CA0
1CA0
1CA0
209C
4084
CF74
E004
FFF8
FFF0
ENDCHAR
STARTCHAR J.v
ENCODING 65322
SWIDTH 1000 0
DWIDTH 20 0
BBX 15 18 3 -3
BITMAP
003C
0042
01D2
01D2
01D2
01D2
01D2
3FD2
41D2
C9D2
C9D2
C812
C412
E3E4
F008
FFF0
7FE0
1F00
ENDCHAR
STARTCHAR K.v
ENCODING 65323
SWIDTH 1000 0
DWIDTH 20 0
BBX 15 17 3 -2
BITMAP
3E7C
4284
C994
C928
C928
C948
C844
CFE2
C812
C80A
C9CA
C9CA
C9CA
C1C2
C1C2
FFFC
F9F0
ENDCHAR
STARTCHAR L.v
ENCODING 65324
SWIDTH 1000 0
DWIDTH 20 0
BBX 15 17 3 -2
BITMAP
3E00
4200
CA00
CA00
CA00
CA00
CA00
CA7E
CA42
C9CA
C9CA
C80A
C80A
C7F2
C002
FFFC
FFF0
ENDCHAR
STARTCHAR M.v
ENCODING 65325
SWIDTH 1000 0
DWIDTH 20 0
BBX 16 17 2 -2
BITMAP
1E1F
2121
64C9
EA55
E955
E925
E8A5
E8C5
E915
E925
E9E5
E9E5
E9E5
E1E1
E1E1
FEFE
F87C
ENDCHAR
STARTCHAR N.v
ENCODING 65326
SWIDTH 1000 0
DWIDTH 20 0
BBX 15 17 3 -2
BITMAP
3C3C
4242
C9CA
CCCA
CA4A
C94A
C88A
C84A
C94A
C92A
C992
C9CA
C9CA
C1C2
C1C2
FFFC
F9F0
ENDCHAR
STARTCHAR O.v
ENCODING 65327
SWIDTH 1000 0
DWIDTH 20 0
BBX 16 18 2 -3
BITMAP
07FC
0802
13F1
2409
64E5
64E5
E4E5
E4E5
E4E5
E4E5
E4E5
E405
E209
F1F2
7804
7FF8
3FF0
0F80
ENDCHAR
STARTCHAR P.v
ENCODING 65328
SWIDTH 1000 0
DWIDTH 20 0
BBX 15 17 3 -2
BITMAP
3FF8
4004
CFE2
C812
C9CA
C9CA
C9CA
C80A
C812
CFE4
C808
C9F0
C9E0
C200
C200
FC00
F800
ENDCHAR
STARTCHAR Q.v
ENCODING 65329
SWIDTH 1000 0
DWIDTH 20 0
BBX 16 19 2 -4
BITMAP
07FC
0802
13F1
2409
64E5
64E5
E4E5
E4E5
E4E5
E4E5
E4E5
E445
E209
F1F2
7844
7E08
3E10
0FE0
0F80
ENDCHAR
STARTCHAR R.v
ENCODING 65330
SWIDTH 1000 0
DWIDTH 20 0
BBX 15 17 3 -2
BITMAP
3FF0
4008
CFC4
C824
C994
C994
C994
C82C
CFF2
C80A
C9CA
C9CA
C9CA
C1C2
C1C2
FFFC
F9F8
ENDCHAR
STARTCHAR S.v
ENCODING 65331
SWIDTH 1000 0
DWIDTH 20 0
BBX 15 17 3 -2
BITMAP
0FFC
1004
27F4
4804
C9FC
C9F0
C80C
C7E2
E012
F80A
FFCA
400A
4012
CFE4
C008
FFF0
FFE0
ENDCHAR
STARTCHAR T.v
ENCODING 65332
SWIDTH 1000 0
DWIDTH 20 0
BBX 15 17 3 -2
BITMAP
3FFC
4002
CFFA
C082
FC9C
FC98
FC90
1CA0
1CA0
1CA0
1CA0
1CA0
1CA0
1C20
1C20
1FC0
1F80
ENDCHAR
STARTCHAR U.v
ENCODING 65333
SWIDTH 1000 0
DWIDTH 20 0
BBX 15 18 3 -3
BITMAP
3E3C
4242
CACA
C9CA
C9CA
C9CA
C9CA
C9CA
C9CA
C9CA
C9CA
C812
C412
E3E4
F008
FFF0
7FE0
1F00
ENDCHAR
STARTCHAR V.v
ENCODING 65334
SWIDTH 1000 0
DWIDTH 20 0
BBX 16 17 2 -2
BITMAP
1F1E
2121
6565
E4E5
E4E5
E4E5
E4E5
E4E9
F4C9
724A
7252
7912
7914
38E4
3C08
1FF0
1FE0
ENDCHAR
STARTCHAR W.v
ENCODING 65335
SWIDTH 1000 0
DWIDTH 20 0
BBX 16 17 2 -2
BITMAP
1E0F
2111
6575
E575
E575
E595
E515
E515
E4E5
E4A5
E525
E555
F555
F2CA
70E2
7FFC
7CF8
ENDCHAR
STARTCHAR X.v
ENCODING 65336
SWIDTH 1100 0
DWIDTH 22 0
BBX 15 17 4 -2
BITMAP
3E3C
4242
CACA
C9CA
E492
E424
F228
F1C8
7228
2424
6492
C9CA
C9CA
C1C2
C1C2
FFFC
F9F0
ENDCHAR
STARTCHAR Y.v
ENCODING 65337
SWIDTH 1000 0
DWIDTH 20 0
BBX 16 17 2 -2
BITMAP
1F1E
2121
6565
E4E5
E4E5
E4E5
E249
7212
7912
78E4
3C48
3E50
1E50
0E10
0E10
0FE0
0FC0
ENDCHAR
STARTCHAR Z.v
ENCODING 65338
SWIDTH 1000 0
DWIDTH 20 0
BBX 15 17 3 -2
BITMAP
3FFC
4002
CFF2
C00A
FF92
FE24
FC48
0490
0920
1240
2480
487E
C802
C7FA
C002
FFFC
FFF0
ENDCHAR
STARTCHAR uni2B24.salt_v
ENCODING 65339
SWIDTH 1280 0
DWIDTH 26 0
BBX 23 22 1 -4
BITMAP
0FFFE0
0FFFF0
1FFFF8
3FFFF8
3FFFFC
7FFFFC
7FFFFE
7FFFFE
7FFFFE
FFFFFE
FFFFFE
FFFFFE
7FFFFE
7FFFFE
7FFFFE
7FFFFC
3FFFFC
3FFFFC
1FFFF8
1FFFF0
0FFFF0
07FFE0
ENDCHAR
STARTCHAR uni25DD.curve_v
ENCODING 65340
SWIDTH 1280 0
DWIDTH 26 0
BBX 22 22 2 -4
BITMAP
03FFFC
0FFFFC
3FFFFC
3FFFFC
7FFFFC
7FFFFC
FFFFFC
FFFFFC
FFFFFC
FFFFFC
FFFFFC
FFFFFC
FFFFFC
FFFFFC
FFFFFC
FFFFFC
FFFFFC
FFFFFC
FFFFFC
FFFFFC
FFFFFC
FFFFF8
ENDCHAR
STARTCHAR uni2B1B.trapezoid_e_v
ENCODING 65341
SWIDTH 1280 0
DWIDTH 26 0
BBX 22 24 2 -4
BITMAP
F00000
FF8000
FFFC00
FFFFE0
FFFFFC
FFFFFC
FFFFFC
FFFFFC
FFFFFC
FFFFFC
FFFFFC
FFFFFC
FFFFFC
FFFFFC
FFFFFC
FFFFFC
FFFFFC
FFFFFC
FFFFFC
FFFFFC
FFFFFC
FFFFFC
FFFFFC
FFFFF8
ENDCHAR
STARTCHAR uni2B1B.trapezoid_w_v
ENCODING 65342
SWIDTH 1280 0
DWIDTH 26 0
BBX 22 24 2 -6
BITMAP
FFFFFC
FFFFFC
FFFFFC
FFFFFC
FFFFFC
FFFFFC
FFFFFC
FFFFFC
FFFFFC
FFFFFC
FFFFFC
FFFFFC
FFFFFC
FFFFFC
FFFFFC
FFFFFC
FFFFFC
FFFFFC
FFFFFC
FFFFF8
FFFF00
FFE000
FC0000
800000
ENDCHAR
STARTCHAR .notdef
ENCODING -1
SWIDTH 1100 0
DWIDTH 22 0
BBX 19 19 2 -3
BITMAP
1FFFC0
600020
DFFFA0
DFFFA0
D001A0
D001A0
D001A0
D001A0
D001A0
D001A0
D001A0
D001A0
D001A0
D001A0
D001A0
D001A0
CFFE60
FFFFC0
FFFF00
ENDCHAR
STARTCHAR one.sups
ENCODING -1
SWIDTH 557 0
DWIDTH 11 0
BBX 11 13 0 2
BITMAP
1F80
3680
7180
7980
7980
1980
1980
1960
2120
67A0
E020
FFC0
7F00
ENDCHAR
STARTCHAR two.sups
ENCODING -1
SWIDTH 585 0
DWIDTH 12 0
BBX 11 13 0 2
BITMAP
1FE0
37A0
7060
7F60
7860
13A0
2CC0
6BE0
E820
E7E0
E020
FFC0
FF80
ENDCHAR
ENDFONT
